SplineFontDB: 3.2
FontName: OMORI_GAME
FullName: OMORI_GAME
FamilyName: OMORI_GAME
Weight: Book
Copyright: OMORI (c) OMOCAT, LLC
Version: 2.9 12/8/13
ItalicAngle: 0
UnderlinePosition: -150
UnderlineWidth: 100
Ascent: 768
Descent: 256
InvalidEm: 0
sfntRevision: 0x0002e666
LayerCount: 2
Layer: 0 1 "Back" 1
Layer: 1 1 "Fore" 0
XUID: [1021 207 -1326924781 22305]
StyleMap: 0x0040
FSType: 0
OS2Version: 1
OS2_WeightWidthSlopeOnly: 0
OS2_UseTypoMetrics: 0
CreationTime: 1376294072
ModificationTime: 1718652049
PfmFamily: 81
TTFWeight: 400
TTFWidth: 5
LineGap: 128
VLineGap: 0
Panose: 0 0 4 0 0 0 0 0 0 0
OS2TypoAscent: 768
OS2TypoAOffset: 0
OS2TypoDescent: -256
OS2TypoDOffset: 0
OS2TypoLinegap: 0
OS2WinAscent: 735
OS2WinAOffset: 0
OS2WinDescent: 273
OS2WinDOffset: 0
HheadAscent: 768
HheadAOffset: 0
HheadDescent: -256
HheadDOffset: 0
OS2SubXSize: 700
OS2SubYSize: 650
OS2SubXOff: 0
OS2SubYOff: 143
OS2SupXSize: 700
OS2SupYSize: 650
OS2SupXOff: 0
OS2SupYOff: 453
OS2StrikeYSize: 50
OS2StrikeYPos: 259
OS2Vendor: 'Alts'
OS2CodePages: 00000001.00000000
OS2UnicodeRanges: 00000000.00000000.00000000.00000000
MarkAttachClasses: 1
DEI: 91125
ShortTable: maxp 16
  1
  0
  108
  230
  5
  0
  0
  2
  8
  64
  10
  0
  64
  0
  0
  0
EndShort
LangName: 1033 "" "" "Regular" "OMORI_GAME" "" "Version 2.9 12/8/13"
GaspTable: 1 65535 2 0
Encoding: UnicodeBmp
UnicodeInterp: none
NameList: AGL For New Fonts
DisplaySize: -48
AntiAlias: 1
FitToEm: 0
WinInfo: 0 28 11
BeginChars: 65539 108

StartChar: exclam
Encoding: 33 33 4
Width: 127
VWidth: 1124
GlyphClass: 2
Flags: W
LayerCount: 2
Fore
SplineSet
73 310 m 1,0,-1
 58 315 l 1,1,-1
 53 330 l 1,2,-1
 53 603 l 1,3,-1
 58 619 l 1,4,-1
 73 625 l 1,5,-1
 89 619 l 1,6,-1
 95 603 l 1,7,-1
 95 330 l 1,8,-1
 89 315 l 1,9,-1
 73 310 l 1,0,-1
73 142 m 1,10,-1
 52 142 l 1,11,-1
 37 147 l 1,12,-1
 32 162 l 1,13,-1
 32 204 l 1,14,-1
 37 220 l 1,15,-1
 52 226 l 1,16,-1
 73 226 l 1,17,-1
 89 220 l 1,18,-1
 95 204 l 1,19,-1
 95 162 l 1,20,-1
 89 147 l 1,21,-1
 73 142 l 1,10,-1
EndSplineSet
EndChar

StartChar: quotedbl
Encoding: 34 34 5
Width: 232
VWidth: 1124
GlyphClass: 2
Flags: W
LayerCount: 2
Fore
SplineSet
79 493 m 1,0,-1
 68 483 l 1,1,-1
 52 478 l 1,2,-1
 37 483 l 1,3,-1
 32 498 l 1,4,-1
 32 519 l 1,5,-1
 37 535 l 1,6,-1
 47 546 l 1,7,-1
 53 561 l 1,8,-1
 53 582 l 1,9,-1
 58 598 l 1,10,-1
 73 604 l 1,11,-1
 89 598 l 1,12,-1
 95 582 l 1,13,-1
 95 519 l 1,14,-1
 89 504 l 1,15,-1
 79 493 l 1,0,-1
184 556 m 1,16,-1
 179 540 l 1,17,-1
 179 519 l 1,18,-1
 173 504 l 1,19,-1
 163 493 l 1,20,-1
 152 483 l 1,21,-1
 136 478 l 1,22,-1
 121 483 l 1,23,-1
 116 498 l 1,24,-1
 116 519 l 1,25,-1
 121 535 l 1,26,-1
 131 546 l 1,27,-1
 137 561 l 1,28,-1
 142 577 l 1,29,-1
 152 588 l 1,30,-1
 163 598 l 1,31,-1
 178 604 l 1,32,-1
 194 598 l 1,33,-1
 200 582 l 1,34,-1
 194 567 l 1,35,-1
 184 556 l 1,16,-1
EndSplineSet
EndChar

StartChar: numbersign
Encoding: 35 35 6
Width: 505
VWidth: 1124
GlyphClass: 2
Flags: W
LayerCount: 2
Fore
SplineSet
305 414 m 1,0,-1
 305 435 l 1,1,-1
 299 451 l 1,2,-1
 283 457 l 1,3,-1
 241 457 l 1,4,-1
 226 451 l 1,5,-1
 215 441 l 1,6,-1
 205 430 l 1,7,-1
 200 414 l 1,8,-1
 200 393 l 1,9,-1
 205 378 l 1,10,-1
 220 373 l 1,11,-1
 262 373 l 1,12,-1
 278 378 l 1,13,-1
 289 388 l 1,14,-1
 299 399 l 1,15,-1
 305 414 l 1,0,-1
451 478 m 1,16,-1
 367 478 l 1,17,-1
 352 472 l 1,18,-1
 347 456 l 1,19,-1
 347 414 l 1,20,-1
 352 399 l 1,21,-1
 367 394 l 1,22,-1
 383 399 l 1,23,-1
 394 409 l 1,24,-1
 409 415 l 1,25,-1
 430 415 l 1,26,-1
 446 409 l 1,27,-1
 452 393 l 1,28,-1
 446 378 l 1,29,-1
 430 373 l 1,30,-1
 415 367 l 1,31,-1
 404 357 l 1,32,-1
 388 352 l 1,33,-1
 346 352 l 1,34,-1
 331 346 l 1,35,-1
 326 330 l 1,36,-1
 326 225 l 1,37,-1
 320 210 l 1,38,-1
 310 199 l 1,39,-1
 305 183 l 1,40,-1
 299 168 l 1,41,-1
 283 163 l 1,42,-1
 268 168 l 1,43,-1
 263 183 l 1,44,-1
 263 204 l 1,45,-1
 268 220 l 1,46,-1
 278 231 l 1,47,-1
 284 246 l 1,48,-1
 284 309 l 1,49,-1
 278 325 l 1,50,-1
 262 331 l 1,51,-1
 220 331 l 1,52,-1
 205 325 l 1,53,-1
 200 309 l 1,54,-1
 200 288 l 1,55,-1
 194 273 l 1,56,-1
 184 262 l 1,57,-1
 179 246 l 1,58,-1
 179 204 l 1,59,-1
 173 189 l 1,60,-1
 157 184 l 1,61,-1
 142 189 l 1,62,-1
 137 204 l 1,63,-1
 137 267 l 1,64,-1
 142 283 l 1,65,-1
 152 294 l 1,66,-1
 152 304 l 1,67,-1
 136 310 l 1,68,-1
 52 310 l 1,69,-1
 37 315 l 1,70,-1
 32 330 l 1,71,-1
 37 346 l 1,72,-1
 52 352 l 1,73,-1
 136 352 l 1,74,-1
 152 357 l 1,75,-1
 158 372 l 1,76,-1
 158 414 l 1,77,-1
 152 430 l 1,78,-1
 136 436 l 1,79,-1
 94 436 l 1,80,-1
 79 430 l 1,81,-1
 68 420 l 1,82,-1
 52 415 l 1,83,-1
 37 420 l 1,84,-1
 32 435 l 1,85,-1
 32 456 l 1,86,-1
 37 472 l 1,87,-1
 52 478 l 1,88,-1
 157 478 l 1,89,-1
 173 483 l 1,90,-1
 179 498 l 1,91,-1
 179 624 l 1,92,-1
 184 640 l 1,93,-1
 199 646 l 1,94,-1
 215 640 l 1,95,-1
 221 624 l 1,96,-1
 221 519 l 1,97,-1
 226 504 l 1,98,-1
 241 499 l 1,99,-1
 283 499 l 1,100,-1
 299 504 l 1,101,-1
 305 519 l 1,102,-1
 305 624 l 1,103,-1
 310 640 l 1,104,-1
 320 651 l 1,105,-1
 331 661 l 1,106,-1
 346 667 l 1,107,-1
 362 661 l 1,108,-1
 368 645 l 1,109,-1
 362 630 l 1,110,-1
 352 619 l 1,111,-1
 347 603 l 1,112,-1
 347 540 l 1,113,-1
 352 525 l 1,114,-1
 367 520 l 1,115,-1
 451 520 l 1,116,-1
 467 514 l 1,117,-1
 473 498 l 1,118,-1
 467 483 l 1,119,-1
 451 478 l 1,16,-1
EndSplineSet
EndChar

StartChar: dollar
Encoding: 36 36 7
Width: 484
VWidth: 1124
GlyphClass: 2
Flags: W
LayerCount: 2
Fore
SplineSet
200 435 m 1,0,-1
 200 498 l 1,1,-1
 194 514 l 1,2,-1
 178 520 l 1,3,-1
 157 520 l 1,4,-1
 142 514 l 1,5,-1
 131 504 l 1,6,-1
 121 493 l 1,7,-1
 110 483 l 1,8,-1
 100 472 l 1,9,-1
 100 462 l 1,10,-1
 110 451 l 1,11,-1
 121 441 l 1,12,-1
 136 436 l 1,13,-1
 157 436 l 1,14,-1
 173 430 l 1,15,-1
 184 420 l 1,16,-1
 194 420 l 1,17,-1
 200 435 l 1,0,-1
389 288 m 1,18,-1
 389 309 l 1,19,-1
 383 325 l 1,20,-1
 367 331 l 1,21,-1
 352 336 l 1,22,-1
 341 346 l 1,23,-1
 325 352 l 1,24,-1
 304 352 l 1,25,-1
 289 357 l 1,26,-1
 278 367 l 1,27,-1
 262 373 l 1,28,-1
 247 367 l 1,29,-1
 242 351 l 1,30,-1
 242 267 l 1,31,-1
 247 252 l 1,32,-1
 262 247 l 1,33,-1
 346 247 l 1,34,-1
 362 252 l 1,35,-1
 373 262 l 1,36,-1
 383 273 l 1,37,-1
 389 288 l 1,18,-1
436 262 m 1,38,-1
 431 246 l 1,39,-1
 425 231 l 1,40,-1
 409 226 l 1,41,-1
 394 220 l 1,42,-1
 383 210 l 1,43,-1
 367 205 l 1,44,-1
 262 205 l 1,45,-1
 247 199 l 1,46,-1
 242 183 l 1,47,-1
 242 120 l 1,48,-1
 236 105 l 1,49,-1
 220 100 l 1,50,-1
 205 105 l 1,51,-1
 200 120 l 1,52,-1
 200 183 l 1,53,-1
 194 199 l 1,54,-1
 178 205 l 1,55,-1
 157 205 l 1,56,-1
 142 210 l 1,57,-1
 131 220 l 1,58,-1
 115 226 l 1,59,-1
 94 226 l 1,60,-1
 79 231 l 1,61,-1
 68 241 l 1,62,-1
 52 247 l 1,63,-1
 37 252 l 1,64,-1
 32 267 l 1,65,-1
 32 288 l 1,66,-1
 37 304 l 1,67,-1
 52 310 l 1,68,-1
 68 304 l 1,69,-1
 79 294 l 1,70,-1
 94 289 l 1,71,-1
 110 283 l 1,72,-1
 121 273 l 1,73,-1
 136 268 l 1,74,-1
 152 262 l 1,75,-1
 163 252 l 1,76,-1
 178 247 l 1,77,-1
 194 252 l 1,78,-1
 200 267 l 1,79,-1
 200 351 l 1,80,-1
 194 367 l 1,81,-1
 178 373 l 1,82,-1
 163 378 l 1,83,-1
 152 388 l 1,84,-1
 136 394 l 1,85,-1
 94 394 l 1,86,-1
 79 399 l 1,87,-1
 68 409 l 1,88,-1
 58 420 l 1,89,-1
 53 435 l 1,90,-1
 53 477 l 1,91,-1
 58 493 l 1,92,-1
 68 504 l 1,93,-1
 79 514 l 1,94,-1
 89 525 l 1,95,-1
 100 535 l 1,96,-1
 110 546 l 1,97,-1
 121 556 l 1,98,-1
 136 562 l 1,99,-1
 152 567 l 1,100,-1
 163 577 l 1,101,-1
 173 588 l 1,102,-1
 179 603 l 1,103,-1
 179 645 l 1,104,-1
 184 661 l 1,105,-1
 199 667 l 1,106,-1
 215 661 l 1,107,-1
 221 645 l 1,108,-1
 221 603 l 1,109,-1
 226 588 l 1,110,-1
 241 583 l 1,111,-1
 304 583 l 1,112,-1
 320 577 l 1,113,-1
 331 567 l 1,114,-1
 346 562 l 1,115,-1
 367 562 l 1,116,-1
 383 556 l 1,117,-1
 394 546 l 1,118,-1
 404 535 l 1,119,-1
 415 525 l 1,120,-1
 425 514 l 1,121,-1
 436 504 l 1,122,-1
 446 493 l 1,123,-1
 452 477 l 1,124,-1
 452 435 l 1,125,-1
 446 420 l 1,126,-1
 430 415 l 1,127,-1
 415 420 l 1,128,-1
 410 435 l 1,129,-1
 404 451 l 1,130,-1
 394 462 l 1,131,-1
 383 472 l 1,132,-1
 373 483 l 1,133,-1
 362 493 l 1,134,-1
 352 504 l 1,135,-1
 341 514 l 1,136,-1
 325 520 l 1,137,-1
 310 525 l 1,138,-1
 299 535 l 1,139,-1
 283 541 l 1,140,-1
 262 541 l 1,141,-1
 247 535 l 1,142,-1
 242 519 l 1,143,-1
 242 435 l 1,144,-1
 247 420 l 1,145,-1
 262 415 l 1,146,-1
 304 415 l 1,147,-1
 320 409 l 1,148,-1
 331 399 l 1,149,-1
 346 394 l 1,150,-1
 362 388 l 1,151,-1
 373 378 l 1,152,-1
 388 373 l 1,153,-1
 404 367 l 1,154,-1
 415 357 l 1,155,-1
 430 352 l 1,156,-1
 446 346 l 1,157,-1
 452 330 l 1,158,-1
 452 288 l 1,159,-1
 446 273 l 1,160,-1
 436 262 l 1,38,-1
EndSplineSet
EndChar

StartChar: percent
Encoding: 37 37 8
Width: 463
VWidth: 1124
GlyphClass: 2
Flags: W
LayerCount: 2
Fore
SplineSet
137 498 m 1,0,-1
 131 514 l 1,1,-1
 121 525 l 1,2,-1
 110 535 l 1,3,-1
 100 535 l 1,4,-1
 89 525 l 1,5,-1
 79 514 l 1,6,-1
 74 498 l 1,7,-1
 79 483 l 1,8,-1
 94 478 l 1,9,-1
 115 478 l 1,10,-1
 131 483 l 1,11,-1
 137 498 l 1,0,-1
163 451 m 1,12,-1
 152 441 l 1,13,-1
 136 436 l 1,14,-1
 73 436 l 1,15,-1
 58 441 l 1,16,-1
 47 451 l 1,17,-1
 37 462 l 1,18,-1
 32 477 l 1,19,-1
 32 540 l 1,20,-1
 37 556 l 1,21,-1
 47 567 l 1,22,-1
 58 577 l 1,23,-1
 73 583 l 1,24,-1
 136 583 l 1,25,-1
 152 577 l 1,26,-1
 163 567 l 1,27,-1
 173 556 l 1,28,-1
 179 540 l 1,29,-1
 179 477 l 1,30,-1
 173 462 l 1,31,-1
 163 451 l 1,12,-1
394 535 m 1,32,-1
 383 525 l 1,33,-1
 373 514 l 1,34,-1
 368 498 l 1,35,-1
 362 483 l 1,36,-1
 346 478 l 1,37,-1
 331 472 l 1,38,-1
 320 462 l 1,39,-1
 310 451 l 1,40,-1
 305 435 l 1,41,-1
 299 420 l 1,42,-1
 289 409 l 1,43,-1
 278 399 l 1,44,-1
 268 388 l 1,45,-1
 257 378 l 1,46,-1
 247 367 l 1,47,-1
 236 357 l 1,48,-1
 226 346 l 1,49,-1
 215 336 l 1,50,-1
 205 325 l 1,51,-1
 194 315 l 1,52,-1
 184 304 l 1,53,-1
 173 294 l 1,54,-1
 163 283 l 1,55,-1
 158 267 l 1,56,-1
 152 252 l 1,57,-1
 142 241 l 1,58,-1
 137 225 l 1,59,-1
 131 210 l 1,60,-1
 115 205 l 1,61,-1
 94 205 l 1,62,-1
 79 210 l 1,63,-1
 74 225 l 1,64,-1
 79 241 l 1,65,-1
 89 252 l 1,66,-1
 100 262 l 1,67,-1
 110 273 l 1,68,-1
 116 288 l 1,69,-1
 121 304 l 1,70,-1
 131 315 l 1,71,-1
 142 325 l 1,72,-1
 152 336 l 1,73,-1
 163 346 l 1,74,-1
 173 357 l 1,75,-1
 184 367 l 1,76,-1
 194 378 l 1,77,-1
 205 388 l 1,78,-1
 215 399 l 1,79,-1
 226 409 l 1,80,-1
 236 420 l 1,81,-1
 247 430 l 1,82,-1
 257 441 l 1,83,-1
 263 456 l 1,84,-1
 268 472 l 1,85,-1
 278 483 l 1,86,-1
 289 493 l 1,87,-1
 299 504 l 1,88,-1
 310 514 l 1,89,-1
 320 525 l 1,90,-1
 331 535 l 1,91,-1
 341 546 l 1,92,-1
 352 556 l 1,93,-1
 362 567 l 1,94,-1
 373 577 l 1,95,-1
 388 583 l 1,96,-1
 404 577 l 1,97,-1
 410 561 l 1,98,-1
 404 546 l 1,99,-1
 394 535 l 1,32,-1
383 304 m 1,100,-1
 373 315 l 1,101,-1
 362 325 l 1,102,-1
 352 325 l 1,103,-1
 341 315 l 1,104,-1
 331 304 l 1,105,-1
 320 294 l 1,106,-1
 310 283 l 1,107,-1
 299 273 l 1,108,-1
 289 262 l 1,109,-1
 289 252 l 1,110,-1
 304 247 l 1,111,-1
 325 247 l 1,112,-1
 341 252 l 1,113,-1
 352 262 l 1,114,-1
 362 273 l 1,115,-1
 373 283 l 1,116,-1
 383 294 l 1,117,-1
 383 304 l 1,100,-1
415 241 m 1,118,-1
 404 231 l 1,119,-1
 394 220 l 1,120,-1
 383 210 l 1,121,-1
 367 205 l 1,122,-1
 262 205 l 1,123,-1
 247 210 l 1,124,-1
 242 225 l 1,125,-1
 242 288 l 1,126,-1
 247 304 l 1,127,-1
 257 315 l 1,128,-1
 268 325 l 1,129,-1
 278 336 l 1,130,-1
 284 351 l 1,131,-1
 289 367 l 1,132,-1
 304 373 l 1,133,-1
 388 373 l 1,134,-1
 404 367 l 1,135,-1
 415 357 l 1,136,-1
 425 346 l 1,137,-1
 431 330 l 1,138,-1
 431 267 l 1,139,-1
 425 252 l 1,140,-1
 415 241 l 1,118,-1
EndSplineSet
EndChar

StartChar: ampersand
Encoding: 38 38 9
Width: 463
VWidth: 1124
GlyphClass: 2
Flags: W
LayerCount: 2
Fore
SplineSet
236 514 m 1,0,-1
 226 525 l 1,1,-1
 221 540 l 1,2,-1
 221 561 l 1,3,-1
 215 577 l 1,4,-1
 199 583 l 1,5,-1
 157 583 l 1,6,-1
 142 577 l 1,7,-1
 131 567 l 1,8,-1
 121 556 l 1,9,-1
 110 546 l 1,10,-1
 100 535 l 1,11,-1
 95 519 l 1,12,-1
 95 498 l 1,13,-1
 100 483 l 1,14,-1
 110 472 l 1,15,-1
 121 462 l 1,16,-1
 131 451 l 1,17,-1
 137 435 l 1,18,-1
 142 420 l 1,19,-1
 157 415 l 1,20,-1
 173 420 l 1,21,-1
 184 430 l 1,22,-1
 194 441 l 1,23,-1
 205 451 l 1,24,-1
 215 462 l 1,25,-1
 221 477 l 1,26,-1
 226 493 l 1,27,-1
 236 504 l 1,28,-1
 236 514 l 1,0,-1
278 262 m 1,29,-1
 262 268 l 1,30,-1
 247 273 l 1,31,-1
 236 283 l 1,32,-1
 226 294 l 1,33,-1
 215 304 l 1,34,-1
 205 315 l 1,35,-1
 194 325 l 1,36,-1
 184 336 l 1,37,-1
 173 346 l 1,38,-1
 163 346 l 1,39,-1
 152 336 l 1,40,-1
 136 331 l 1,41,-1
 121 325 l 1,42,-1
 116 309 l 1,43,-1
 110 294 l 1,44,-1
 100 283 l 1,45,-1
 89 273 l 1,46,-1
 79 262 l 1,47,-1
 74 246 l 1,48,-1
 74 225 l 1,49,-1
 79 210 l 1,50,-1
 89 199 l 1,51,-1
 100 189 l 1,52,-1
 115 184 l 1,53,-1
 157 184 l 1,54,-1
 173 189 l 1,55,-1
 184 199 l 1,56,-1
 199 205 l 1,57,-1
 215 210 l 1,58,-1
 226 220 l 1,59,-1
 241 226 l 1,60,-1
 257 231 l 1,61,-1
 268 241 l 1,62,-1
 278 252 l 1,63,-1
 278 262 l 1,29,-1
409 184 m 1,64,-1
 388 184 l 1,65,-1
 373 189 l 1,66,-1
 362 199 l 1,67,-1
 352 210 l 1,68,-1
 341 220 l 1,69,-1
 325 226 l 1,70,-1
 310 220 l 1,71,-1
 299 210 l 1,72,-1
 289 199 l 1,73,-1
 278 189 l 1,74,-1
 262 184 l 1,75,-1
 247 178 l 1,76,-1
 236 168 l 1,77,-1
 220 163 l 1,78,-1
 205 157 l 1,79,-1
 194 147 l 1,80,-1
 178 142 l 1,81,-1
 73 142 l 1,82,-1
 58 147 l 1,83,-1
 47 157 l 1,84,-1
 37 168 l 1,85,-1
 32 183 l 1,86,-1
 32 288 l 1,87,-1
 37 304 l 1,88,-1
 47 315 l 1,89,-1
 58 325 l 1,90,-1
 68 336 l 1,91,-1
 79 346 l 1,92,-1
 89 357 l 1,93,-1
 100 367 l 1,94,-1
 110 378 l 1,95,-1
 110 388 l 1,96,-1
 100 399 l 1,97,-1
 89 409 l 1,98,-1
 79 420 l 1,99,-1
 68 430 l 1,100,-1
 58 441 l 1,101,-1
 53 456 l 1,102,-1
 47 472 l 1,103,-1
 37 483 l 1,104,-1
 32 498 l 1,105,-1
 32 519 l 1,106,-1
 37 535 l 1,107,-1
 47 546 l 1,108,-1
 53 561 l 1,109,-1
 58 577 l 1,110,-1
 68 588 l 1,111,-1
 79 598 l 1,112,-1
 94 604 l 1,113,-1
 110 609 l 1,114,-1
 121 619 l 1,115,-1
 136 625 l 1,116,-1
 220 625 l 1,117,-1
 236 619 l 1,118,-1
 247 609 l 1,119,-1
 257 598 l 1,120,-1
 263 582 l 1,121,-1
 268 567 l 1,122,-1
 278 556 l 1,123,-1
 284 540 l 1,124,-1
 284 477 l 1,125,-1
 278 462 l 1,126,-1
 268 451 l 1,127,-1
 263 435 l 1,128,-1
 257 420 l 1,129,-1
 247 409 l 1,130,-1
 236 399 l 1,131,-1
 220 394 l 1,132,-1
 205 388 l 1,133,-1
 205 378 l 1,134,-1
 215 367 l 1,135,-1
 226 357 l 1,136,-1
 241 352 l 1,137,-1
 257 346 l 1,138,-1
 263 330 l 1,139,-1
 268 315 l 1,140,-1
 283 310 l 1,141,-1
 299 304 l 1,142,-1
 310 294 l 1,143,-1
 325 289 l 1,144,-1
 341 294 l 1,145,-1
 352 304 l 1,146,-1
 362 315 l 1,147,-1
 373 325 l 1,148,-1
 388 331 l 1,149,-1
 409 331 l 1,150,-1
 425 325 l 1,151,-1
 431 309 l 1,152,-1
 425 294 l 1,153,-1
 409 289 l 1,154,-1
 394 283 l 1,155,-1
 383 273 l 1,156,-1
 373 262 l 1,157,-1
 373 252 l 1,158,-1
 388 247 l 1,159,-1
 404 241 l 1,160,-1
 415 231 l 1,161,-1
 425 220 l 1,162,-1
 431 204 l 1,163,-1
 425 189 l 1,164,-1
 409 184 l 1,64,-1
EndSplineSet
EndChar

StartChar: quotesingle
Encoding: 39 39 10
Width: 127
VWidth: 1124
GlyphClass: 2
Flags: W
LayerCount: 2
Fore
SplineSet
79 472 m 1,0,-1
 68 462 l 1,1,-1
 52 457 l 1,2,-1
 37 462 l 1,3,-1
 32 477 l 1,4,-1
 37 493 l 1,5,-1
 47 504 l 1,6,-1
 53 519 l 1,7,-1
 53 561 l 1,8,-1
 58 577 l 1,9,-1
 73 583 l 1,10,-1
 89 577 l 1,11,-1
 95 561 l 1,12,-1
 95 498 l 1,13,-1
 89 483 l 1,14,-1
 79 472 l 1,0,-1
EndSplineSet
EndChar

StartChar: parenleft
Encoding: 40 40 11
Width: 253
VWidth: 1124
GlyphClass: 2
Flags: W
LayerCount: 2
Fore
SplineSet
205 640 m 1,0,-1
 194 630 l 1,1,-1
 184 619 l 1,2,-1
 173 609 l 1,3,-1
 163 598 l 1,4,-1
 158 582 l 1,5,-1
 152 567 l 1,6,-1
 142 556 l 1,7,-1
 131 546 l 1,8,-1
 121 535 l 1,9,-1
 110 525 l 1,10,-1
 100 514 l 1,11,-1
 95 498 l 1,12,-1
 95 414 l 1,13,-1
 89 399 l 1,14,-1
 79 388 l 1,15,-1
 74 372 l 1,16,-1
 74 330 l 1,17,-1
 79 315 l 1,18,-1
 89 304 l 1,19,-1
 95 288 l 1,20,-1
 95 246 l 1,21,-1
 100 231 l 1,22,-1
 110 220 l 1,23,-1
 121 210 l 1,24,-1
 131 199 l 1,25,-1
 137 183 l 1,26,-1
 142 168 l 1,27,-1
 157 163 l 1,28,-1
 173 157 l 1,29,-1
 184 147 l 1,30,-1
 194 136 l 1,31,-1
 200 120 l 1,32,-1
 194 105 l 1,33,-1
 178 100 l 1,34,-1
 163 105 l 1,35,-1
 152 115 l 1,36,-1
 136 121 l 1,37,-1
 121 126 l 1,38,-1
 110 136 l 1,39,-1
 100 147 l 1,40,-1
 89 157 l 1,41,-1
 79 168 l 1,42,-1
 74 183 l 1,43,-1
 68 199 l 1,44,-1
 58 210 l 1,45,-1
 53 225 l 1,46,-1
 53 267 l 1,47,-1
 47 283 l 1,48,-1
 37 294 l 1,49,-1
 32 309 l 1,50,-1
 32 393 l 1,51,-1
 37 409 l 1,52,-1
 47 420 l 1,53,-1
 53 435 l 1,54,-1
 53 519 l 1,55,-1
 58 535 l 1,56,-1
 68 546 l 1,57,-1
 79 556 l 1,58,-1
 89 567 l 1,59,-1
 95 582 l 1,60,-1
 100 598 l 1,61,-1
 110 609 l 1,62,-1
 121 619 l 1,63,-1
 131 630 l 1,64,-1
 137 645 l 1,65,-1
 142 661 l 1,66,-1
 152 672 l 1,67,-1
 163 682 l 1,68,-1
 178 688 l 1,69,-1
 199 688 l 1,70,-1
 215 682 l 1,71,-1
 221 666 l 1,72,-1
 215 651 l 1,73,-1
 205 640 l 1,0,-1
EndSplineSet
EndChar

StartChar: parenright
Encoding: 41 41 12
Width: 253
VWidth: 1124
GlyphClass: 2
Flags: W
LayerCount: 2
Fore
SplineSet
205 241 m 1,0,-1
 200 225 l 1,1,-1
 200 204 l 1,2,-1
 194 189 l 1,3,-1
 184 178 l 1,4,-1
 179 162 l 1,5,-1
 173 147 l 1,6,-1
 163 136 l 1,7,-1
 152 126 l 1,8,-1
 142 115 l 1,9,-1
 131 105 l 1,10,-1
 121 94 l 1,11,-1
 110 84 l 1,12,-1
 94 79 l 1,13,-1
 52 79 l 1,14,-1
 37 84 l 1,15,-1
 32 99 l 1,16,-1
 37 115 l 1,17,-1
 52 121 l 1,18,-1
 73 121 l 1,19,-1
 89 126 l 1,20,-1
 100 136 l 1,21,-1
 110 147 l 1,22,-1
 116 162 l 1,23,-1
 121 178 l 1,24,-1
 131 189 l 1,25,-1
 142 199 l 1,26,-1
 152 210 l 1,27,-1
 158 225 l 1,28,-1
 158 246 l 1,29,-1
 163 262 l 1,30,-1
 173 273 l 1,31,-1
 179 288 l 1,32,-1
 179 414 l 1,33,-1
 173 430 l 1,34,-1
 163 441 l 1,35,-1
 158 456 l 1,36,-1
 158 519 l 1,37,-1
 152 535 l 1,38,-1
 142 546 l 1,39,-1
 131 556 l 1,40,-1
 121 567 l 1,41,-1
 116 582 l 1,42,-1
 110 598 l 1,43,-1
 100 609 l 1,44,-1
 89 619 l 1,45,-1
 79 630 l 1,46,-1
 68 640 l 1,47,-1
 58 651 l 1,48,-1
 53 666 l 1,49,-1
 58 682 l 1,50,-1
 73 688 l 1,51,-1
 94 688 l 1,52,-1
 110 682 l 1,53,-1
 121 672 l 1,54,-1
 131 661 l 1,55,-1
 137 645 l 1,56,-1
 142 630 l 1,57,-1
 152 619 l 1,58,-1
 158 603 l 1,59,-1
 163 588 l 1,60,-1
 173 577 l 1,61,-1
 184 567 l 1,62,-1
 194 556 l 1,63,-1
 200 540 l 1,64,-1
 200 477 l 1,65,-1
 205 462 l 1,66,-1
 215 451 l 1,67,-1
 221 435 l 1,68,-1
 221 267 l 1,69,-1
 215 252 l 1,70,-1
 205 241 l 1,0,-1
EndSplineSet
EndChar

StartChar: asterisk
Encoding: 42 42 13
Width: 442
VWidth: 1124
GlyphClass: 2
Flags: W
LayerCount: 2
Fore
SplineSet
383 478 m 1,0,-1
 368 472 l 1,1,-1
 357 462 l 1,2,-1
 347 451 l 1,3,-1
 342 435 l 1,4,-1
 336 420 l 1,5,-1
 320 415 l 1,6,-1
 305 409 l 1,7,-1
 300 393 l 1,8,-1
 300 372 l 1,9,-1
 305 357 l 1,10,-1
 315 346 l 1,11,-1
 321 330 l 1,12,-1
 321 309 l 1,13,-1
 326 294 l 1,14,-1
 336 283 l 1,15,-1
 342 267 l 1,16,-1
 336 252 l 1,17,-1
 326 252 l 1,18,-1
 315 262 l 1,19,-1
 305 273 l 1,20,-1
 294 283 l 1,21,-1
 278 289 l 1,22,-1
 263 294 l 1,23,-1
 252 304 l 1,24,-1
 242 315 l 1,25,-1
 231 325 l 1,26,-1
 215 331 l 1,27,-1
 194 331 l 1,28,-1
 179 325 l 1,29,-1
 168 315 l 1,30,-1
 158 304 l 1,31,-1
 147 294 l 1,32,-1
 137 283 l 1,33,-1
 126 273 l 1,34,-1
 116 262 l 1,35,-1
 105 252 l 1,36,-1
 95 252 l 1,37,-1
 90 267 l 1,38,-1
 90 288 l 1,39,-1
 95 304 l 1,40,-1
 105 315 l 1,41,-1
 111 330 l 1,42,-1
 116 346 l 1,43,-1
 126 357 l 1,44,-1
 126 367 l 1,45,-1
 116 378 l 1,46,-1
 105 388 l 1,47,-1
 95 399 l 1,48,-1
 84 409 l 1,49,-1
 68 415 l 1,50,-1
 53 420 l 1,51,-1
 42 430 l 1,52,-1
 32 441 l 1,53,-1
 32 451 l 1,54,-1
 47 457 l 1,55,-1
 63 462 l 1,56,-1
 74 472 l 1,57,-1
 89 478 l 1,58,-1
 152 478 l 1,59,-1
 168 483 l 1,60,-1
 174 498 l 1,61,-1
 174 519 l 1,62,-1
 179 535 l 1,63,-1
 189 546 l 1,64,-1
 200 556 l 1,65,-1
 210 567 l 1,66,-1
 216 582 l 1,67,-1
 221 598 l 1,68,-1
 231 598 l 1,69,-1
 237 582 l 1,70,-1
 237 561 l 1,71,-1
 242 546 l 1,72,-1
 252 535 l 1,73,-1
 258 519 l 1,74,-1
 263 504 l 1,75,-1
 278 499 l 1,76,-1
 383 499 l 1,77,-1
 399 493 l 1,78,-1
 399 483 l 1,79,-1
 383 478 l 1,0,-1
EndSplineSet
EndChar

StartChar: plus
Encoding: 43 43 14
Width: 358
VWidth: 1124
GlyphClass: 2
Flags: W
LayerCount: 2
Fore
SplineSet
304 415 m 1,0,-1
 220 415 l 1,1,-1
 205 409 l 1,2,-1
 200 393 l 1,3,-1
 200 309 l 1,4,-1
 194 294 l 1,5,-1
 178 289 l 1,6,-1
 163 294 l 1,7,-1
 158 309 l 1,8,-1
 158 393 l 1,9,-1
 152 409 l 1,10,-1
 136 415 l 1,11,-1
 52 415 l 1,12,-1
 37 420 l 1,13,-1
 32 435 l 1,14,-1
 37 451 l 1,15,-1
 52 457 l 1,16,-1
 136 457 l 1,17,-1
 152 462 l 1,18,-1
 158 477 l 1,19,-1
 158 540 l 1,20,-1
 163 556 l 1,21,-1
 178 562 l 1,22,-1
 194 556 l 1,23,-1
 200 540 l 1,24,-1
 200 477 l 1,25,-1
 205 462 l 1,26,-1
 220 457 l 1,27,-1
 304 457 l 1,28,-1
 320 451 l 1,29,-1
 326 435 l 1,30,-1
 320 420 l 1,31,-1
 304 415 l 1,0,-1
EndSplineSet
EndChar

StartChar: comma
Encoding: 44 44 15
Width: 169
VWidth: 1124
GlyphClass: 2
Flags: W
LayerCount: 2
Fore
SplineSet
115 -26 m 1,0,-1
 94 -26 l 1,1,-1
 79 -21 l 1,2,-1
 74 -6 l 1,3,-1
 79 10 l 1,4,-1
 89 21 l 1,5,-1
 95 36 l 1,6,-1
 89 52 l 1,7,-1
 73 58 l 1,8,-1
 52 58 l 1,9,-1
 37 63 l 1,10,-1
 32 78 l 1,11,-1
 32 120 l 1,12,-1
 37 136 l 1,13,-1
 52 142 l 1,14,-1
 94 142 l 1,15,-1
 110 136 l 1,16,-1
 121 126 l 1,17,-1
 131 115 l 1,18,-1
 137 99 l 1,19,-1
 137 -6 l 1,20,-1
 131 -21 l 1,21,-1
 115 -26 l 1,0,-1
EndSplineSet
EndChar

StartChar: hyphen
Encoding: 45 45 16
Width: 295
VWidth: 1124
GlyphClass: 2
Flags: W
LayerCount: 2
Fore
SplineSet
241 226 m 1,0,-1
 52 226 l 1,1,-1
 37 231 l 1,2,-1
 32 246 l 1,3,-1
 37 262 l 1,4,-1
 52 268 l 1,5,-1
 241 268 l 1,6,-1
 257 262 l 1,7,-1
 263 246 l 1,8,-1
 257 231 l 1,9,-1
 241 226 l 1,0,-1
EndSplineSet
EndChar

StartChar: period
Encoding: 46 46 17
Width: 148
VWidth: 1124
GlyphClass: 2
Flags: W
LayerCount: 2
Fore
SplineSet
100 73 m 1,0,-1
 89 63 l 1,1,-1
 73 58 l 1,2,-1
 52 58 l 1,3,-1
 37 63 l 1,4,-1
 32 78 l 1,5,-1
 32 120 l 1,6,-1
 37 136 l 1,7,-1
 52 142 l 1,8,-1
 73 142 l 1,9,-1
 89 136 l 1,10,-1
 100 126 l 1,11,-1
 110 115 l 1,12,-1
 116 99 l 1,13,-1
 110 84 l 1,14,-1
 100 73 l 1,0,-1
EndSplineSet
EndChar

StartChar: slash
Encoding: 47 47 18
Width: 295
VWidth: 1124
GlyphClass: 2
Flags: W
LayerCount: 2
Fore
SplineSet
247 556 m 1,0,-1
 242 540 l 1,1,-1
 236 525 l 1,2,-1
 226 514 l 1,3,-1
 221 498 l 1,4,-1
 221 456 l 1,5,-1
 215 441 l 1,6,-1
 205 430 l 1,7,-1
 200 414 l 1,8,-1
 200 393 l 1,9,-1
 194 378 l 1,10,-1
 184 367 l 1,11,-1
 179 351 l 1,12,-1
 173 336 l 1,13,-1
 163 325 l 1,14,-1
 158 309 l 1,15,-1
 158 288 l 1,16,-1
 152 273 l 1,17,-1
 142 262 l 1,18,-1
 137 246 l 1,19,-1
 131 231 l 1,20,-1
 121 220 l 1,21,-1
 116 204 l 1,22,-1
 116 183 l 1,23,-1
 110 168 l 1,24,-1
 100 157 l 1,25,-1
 95 141 l 1,26,-1
 89 126 l 1,27,-1
 79 115 l 1,28,-1
 74 99 l 1,29,-1
 68 84 l 1,30,-1
 52 79 l 1,31,-1
 37 84 l 1,32,-1
 32 99 l 1,33,-1
 32 120 l 1,34,-1
 37 136 l 1,35,-1
 47 147 l 1,36,-1
 53 162 l 1,37,-1
 58 178 l 1,38,-1
 68 189 l 1,39,-1
 74 204 l 1,40,-1
 74 225 l 1,41,-1
 79 241 l 1,42,-1
 89 252 l 1,43,-1
 95 267 l 1,44,-1
 100 283 l 1,45,-1
 110 294 l 1,46,-1
 116 309 l 1,47,-1
 116 330 l 1,48,-1
 121 346 l 1,49,-1
 131 357 l 1,50,-1
 137 372 l 1,51,-1
 142 388 l 1,52,-1
 152 399 l 1,53,-1
 158 414 l 1,54,-1
 158 435 l 1,55,-1
 163 451 l 1,56,-1
 173 462 l 1,57,-1
 179 477 l 1,58,-1
 179 519 l 1,59,-1
 184 535 l 1,60,-1
 194 546 l 1,61,-1
 200 561 l 1,62,-1
 200 582 l 1,63,-1
 205 598 l 1,64,-1
 215 609 l 1,65,-1
 221 624 l 1,66,-1
 226 640 l 1,67,-1
 241 646 l 1,68,-1
 257 640 l 1,69,-1
 263 624 l 1,70,-1
 263 582 l 1,71,-1
 257 567 l 1,72,-1
 247 556 l 1,0,-1
EndSplineSet
EndChar

StartChar: zero
Encoding: 48 48 19
Width: 442
VWidth: 1124
GlyphClass: 2
Flags: W
LayerCount: 2
Fore
SplineSet
326 414 m 1,0,-1
 320 430 l 1,1,-1
 304 436 l 1,2,-1
 262 436 l 1,3,-1
 247 441 l 1,4,-1
 236 451 l 1,5,-1
 220 457 l 1,6,-1
 199 457 l 1,7,-1
 184 451 l 1,8,-1
 173 441 l 1,9,-1
 163 430 l 1,10,-1
 152 420 l 1,11,-1
 142 409 l 1,12,-1
 137 393 l 1,13,-1
 131 378 l 1,14,-1
 121 367 l 1,15,-1
 110 357 l 1,16,-1
 100 346 l 1,17,-1
 95 330 l 1,18,-1
 95 288 l 1,19,-1
 89 273 l 1,20,-1
 79 262 l 1,21,-1
 74 246 l 1,22,-1
 79 231 l 1,23,-1
 89 220 l 1,24,-1
 95 204 l 1,25,-1
 100 189 l 1,26,-1
 115 184 l 1,27,-1
 131 189 l 1,28,-1
 142 199 l 1,29,-1
 152 210 l 1,30,-1
 163 220 l 1,31,-1
 173 231 l 1,32,-1
 184 241 l 1,33,-1
 199 247 l 1,34,-1
 215 252 l 1,35,-1
 226 262 l 1,36,-1
 236 273 l 1,37,-1
 242 288 l 1,38,-1
 247 304 l 1,39,-1
 257 315 l 1,40,-1
 268 325 l 1,41,-1
 278 336 l 1,42,-1
 284 351 l 1,43,-1
 289 367 l 1,44,-1
 299 378 l 1,45,-1
 310 388 l 1,46,-1
 320 399 l 1,47,-1
 326 414 l 1,0,-1
368 204 m 1,48,-1
 368 330 l 1,49,-1
 362 346 l 1,50,-1
 352 346 l 1,51,-1
 341 336 l 1,52,-1
 331 325 l 1,53,-1
 320 315 l 1,54,-1
 310 304 l 1,55,-1
 299 294 l 1,56,-1
 289 283 l 1,57,-1
 284 267 l 1,58,-1
 278 252 l 1,59,-1
 268 241 l 1,60,-1
 257 231 l 1,61,-1
 247 220 l 1,62,-1
 236 210 l 1,63,-1
 220 205 l 1,64,-1
 205 199 l 1,65,-1
 200 183 l 1,66,-1
 194 168 l 1,67,-1
 184 157 l 1,68,-1
 173 147 l 1,69,-1
 163 136 l 1,70,-1
 163 126 l 1,71,-1
 173 115 l 1,72,-1
 184 105 l 1,73,-1
 199 100 l 1,74,-1
 283 100 l 1,75,-1
 299 105 l 1,76,-1
 310 115 l 1,77,-1
 320 126 l 1,78,-1
 331 136 l 1,79,-1
 341 147 l 1,80,-1
 347 162 l 1,81,-1
 352 178 l 1,82,-1
 362 189 l 1,83,-1
 368 204 l 1,48,-1
394 157 m 1,84,-1
 389 141 l 1,85,-1
 383 126 l 1,86,-1
 373 115 l 1,87,-1
 362 105 l 1,88,-1
 352 94 l 1,89,-1
 341 84 l 1,90,-1
 331 73 l 1,91,-1
 320 63 l 1,92,-1
 304 58 l 1,93,-1
 178 58 l 1,94,-1
 163 63 l 1,95,-1
 152 73 l 1,96,-1
 136 79 l 1,97,-1
 121 84 l 1,98,-1
 110 94 l 1,99,-1
 100 105 l 1,100,-1
 89 115 l 1,101,-1
 79 126 l 1,102,-1
 74 141 l 1,103,-1
 68 157 l 1,104,-1
 58 168 l 1,105,-1
 47 178 l 1,106,-1
 37 189 l 1,107,-1
 32 204 l 1,108,-1
 32 288 l 1,109,-1
 37 304 l 1,110,-1
 47 315 l 1,111,-1
 53 330 l 1,112,-1
 53 351 l 1,113,-1
 58 367 l 1,114,-1
 68 378 l 1,115,-1
 74 393 l 1,116,-1
 79 409 l 1,117,-1
 89 420 l 1,118,-1
 100 430 l 1,119,-1
 110 441 l 1,120,-1
 121 451 l 1,121,-1
 131 462 l 1,122,-1
 142 472 l 1,123,-1
 152 483 l 1,124,-1
 163 493 l 1,125,-1
 178 499 l 1,126,-1
 304 499 l 1,127,-1
 320 493 l 1,128,-1
 331 483 l 1,129,-1
 341 472 l 1,130,-1
 352 462 l 1,131,-1
 362 451 l 1,132,-1
 373 441 l 1,133,-1
 383 430 l 1,134,-1
 389 414 l 1,135,-1
 394 399 l 1,136,-1
 404 388 l 1,137,-1
 410 372 l 1,138,-1
 410 183 l 1,139,-1
 404 168 l 1,140,-1
 394 157 l 1,84,-1
EndSplineSet
EndChar

StartChar: one
Encoding: 49 49 20
Width: 295
VWidth: 1124
GlyphClass: 2
Flags: W
LayerCount: 2
Fore
SplineSet
241 79 m 1,0,-1
 52 79 l 1,1,-1
 37 84 l 1,2,-1
 32 99 l 1,3,-1
 37 115 l 1,4,-1
 52 121 l 1,5,-1
 115 121 l 1,6,-1
 131 126 l 1,7,-1
 137 141 l 1,8,-1
 137 351 l 1,9,-1
 131 367 l 1,10,-1
 121 378 l 1,11,-1
 116 393 l 1,12,-1
 116 414 l 1,13,-1
 110 430 l 1,14,-1
 100 430 l 1,15,-1
 95 414 l 1,16,-1
 89 399 l 1,17,-1
 79 388 l 1,18,-1
 68 378 l 1,19,-1
 52 373 l 1,20,-1
 37 378 l 1,21,-1
 32 393 l 1,22,-1
 32 414 l 1,23,-1
 37 430 l 1,24,-1
 47 441 l 1,25,-1
 58 451 l 1,26,-1
 68 462 l 1,27,-1
 79 472 l 1,28,-1
 89 483 l 1,29,-1
 100 493 l 1,30,-1
 110 504 l 1,31,-1
 121 514 l 1,32,-1
 136 520 l 1,33,-1
 152 514 l 1,34,-1
 158 498 l 1,35,-1
 158 414 l 1,36,-1
 163 399 l 1,37,-1
 173 388 l 1,38,-1
 179 372 l 1,39,-1
 179 141 l 1,40,-1
 184 126 l 1,41,-1
 199 121 l 1,42,-1
 241 121 l 1,43,-1
 257 115 l 1,44,-1
 263 99 l 1,45,-1
 257 84 l 1,46,-1
 241 79 l 1,0,-1
EndSplineSet
EndChar

StartChar: two
Encoding: 50 50 21
Width: 379
VWidth: 1124
GlyphClass: 2
Flags: W
LayerCount: 2
Fore
SplineSet
325 58 m 1,0,-1
 52 58 l 1,1,-1
 37 63 l 1,2,-1
 32 78 l 1,3,-1
 37 94 l 1,4,-1
 47 105 l 1,5,-1
 58 115 l 1,6,-1
 68 126 l 1,7,-1
 79 136 l 1,8,-1
 94 142 l 1,9,-1
 110 147 l 1,10,-1
 116 162 l 1,11,-1
 121 178 l 1,12,-1
 136 184 l 1,13,-1
 152 189 l 1,14,-1
 163 199 l 1,15,-1
 173 210 l 1,16,-1
 184 220 l 1,17,-1
 194 231 l 1,18,-1
 205 241 l 1,19,-1
 215 252 l 1,20,-1
 221 267 l 1,21,-1
 226 283 l 1,22,-1
 236 294 l 1,23,-1
 247 304 l 1,24,-1
 257 315 l 1,25,-1
 263 330 l 1,26,-1
 268 346 l 1,27,-1
 278 357 l 1,28,-1
 284 372 l 1,29,-1
 284 393 l 1,30,-1
 278 409 l 1,31,-1
 268 420 l 1,32,-1
 263 435 l 1,33,-1
 257 451 l 1,34,-1
 241 457 l 1,35,-1
 226 462 l 1,36,-1
 215 472 l 1,37,-1
 199 478 l 1,38,-1
 178 478 l 1,39,-1
 163 472 l 1,40,-1
 152 462 l 1,41,-1
 136 457 l 1,42,-1
 121 451 l 1,43,-1
 110 441 l 1,44,-1
 100 430 l 1,45,-1
 95 414 l 1,46,-1
 89 399 l 1,47,-1
 73 394 l 1,48,-1
 58 399 l 1,49,-1
 53 414 l 1,50,-1
 53 435 l 1,51,-1
 58 451 l 1,52,-1
 68 462 l 1,53,-1
 74 477 l 1,54,-1
 79 493 l 1,55,-1
 94 499 l 1,56,-1
 115 499 l 1,57,-1
 131 504 l 1,58,-1
 142 514 l 1,59,-1
 157 520 l 1,60,-1
 241 520 l 1,61,-1
 257 514 l 1,62,-1
 268 504 l 1,63,-1
 283 499 l 1,64,-1
 299 493 l 1,65,-1
 305 477 l 1,66,-1
 310 462 l 1,67,-1
 320 451 l 1,68,-1
 326 435 l 1,69,-1
 326 351 l 1,70,-1
 320 336 l 1,71,-1
 310 325 l 1,72,-1
 305 309 l 1,73,-1
 299 294 l 1,74,-1
 289 283 l 1,75,-1
 278 273 l 1,76,-1
 268 262 l 1,77,-1
 263 246 l 1,78,-1
 257 231 l 1,79,-1
 247 220 l 1,80,-1
 236 210 l 1,81,-1
 226 199 l 1,82,-1
 215 189 l 1,83,-1
 205 178 l 1,84,-1
 194 168 l 1,85,-1
 184 157 l 1,86,-1
 173 147 l 1,87,-1
 163 136 l 1,88,-1
 152 126 l 1,89,-1
 142 115 l 1,90,-1
 142 105 l 1,91,-1
 157 100 l 1,92,-1
 325 100 l 1,93,-1
 341 94 l 1,94,-1
 347 78 l 1,95,-1
 341 63 l 1,96,-1
 325 58 l 1,0,-1
EndSplineSet
EndChar

StartChar: three
Encoding: 51 51 22
Width: 358
VWidth: 1124
GlyphClass: 2
Flags: W
LayerCount: 2
Fore
SplineSet
310 178 m 1,0,-1
 305 162 l 1,1,-1
 305 141 l 1,2,-1
 299 126 l 1,3,-1
 283 121 l 1,4,-1
 268 115 l 1,5,-1
 257 105 l 1,6,-1
 247 94 l 1,7,-1
 236 84 l 1,8,-1
 220 79 l 1,9,-1
 205 73 l 1,10,-1
 194 63 l 1,11,-1
 178 58 l 1,12,-1
 73 58 l 1,13,-1
 58 63 l 1,14,-1
 47 73 l 1,15,-1
 37 84 l 1,16,-1
 32 99 l 1,17,-1
 32 120 l 1,18,-1
 37 136 l 1,19,-1
 52 142 l 1,20,-1
 68 136 l 1,21,-1
 79 126 l 1,22,-1
 89 115 l 1,23,-1
 100 105 l 1,24,-1
 115 100 l 1,25,-1
 157 100 l 1,26,-1
 173 105 l 1,27,-1
 184 115 l 1,28,-1
 199 121 l 1,29,-1
 215 126 l 1,30,-1
 226 136 l 1,31,-1
 236 147 l 1,32,-1
 247 157 l 1,33,-1
 257 168 l 1,34,-1
 263 183 l 1,35,-1
 268 199 l 1,36,-1
 278 210 l 1,37,-1
 278 220 l 1,38,-1
 268 231 l 1,39,-1
 263 246 l 1,40,-1
 257 262 l 1,41,-1
 247 273 l 1,42,-1
 236 283 l 1,43,-1
 220 289 l 1,44,-1
 115 289 l 1,45,-1
 100 283 l 1,46,-1
 89 273 l 1,47,-1
 73 268 l 1,48,-1
 52 268 l 1,49,-1
 37 273 l 1,50,-1
 32 288 l 1,51,-1
 37 304 l 1,52,-1
 47 315 l 1,53,-1
 58 325 l 1,54,-1
 73 331 l 1,55,-1
 89 336 l 1,56,-1
 100 346 l 1,57,-1
 115 352 l 1,58,-1
 136 352 l 1,59,-1
 152 357 l 1,60,-1
 163 367 l 1,61,-1
 173 378 l 1,62,-1
 184 388 l 1,63,-1
 194 399 l 1,64,-1
 200 414 l 1,65,-1
 200 456 l 1,66,-1
 194 472 l 1,67,-1
 178 478 l 1,68,-1
 136 478 l 1,69,-1
 121 472 l 1,70,-1
 110 462 l 1,71,-1
 94 457 l 1,72,-1
 79 451 l 1,73,-1
 74 435 l 1,74,-1
 68 420 l 1,75,-1
 52 415 l 1,76,-1
 37 420 l 1,77,-1
 32 435 l 1,78,-1
 32 456 l 1,79,-1
 37 472 l 1,80,-1
 47 483 l 1,81,-1
 58 493 l 1,82,-1
 73 499 l 1,83,-1
 89 504 l 1,84,-1
 100 514 l 1,85,-1
 115 520 l 1,86,-1
 220 520 l 1,87,-1
 236 514 l 1,88,-1
 242 498 l 1,89,-1
 242 393 l 1,90,-1
 236 378 l 1,91,-1
 226 367 l 1,92,-1
 215 357 l 1,93,-1
 205 346 l 1,94,-1
 205 336 l 1,95,-1
 220 331 l 1,96,-1
 241 331 l 1,97,-1
 257 325 l 1,98,-1
 268 315 l 1,99,-1
 283 310 l 1,100,-1
 299 304 l 1,101,-1
 305 288 l 1,102,-1
 310 273 l 1,103,-1
 320 262 l 1,104,-1
 326 246 l 1,105,-1
 326 204 l 1,106,-1
 320 189 l 1,107,-1
 310 178 l 1,0,-1
EndSplineSet
EndChar

StartChar: four
Encoding: 52 52 23
Width: 442
VWidth: 1124
GlyphClass: 2
Flags: W
LayerCount: 2
Fore
SplineSet
242 246 m 1,0,-1
 242 414 l 1,1,-1
 236 430 l 1,2,-1
 226 430 l 1,3,-1
 215 420 l 1,4,-1
 205 409 l 1,5,-1
 200 393 l 1,6,-1
 194 378 l 1,7,-1
 184 367 l 1,8,-1
 173 357 l 1,9,-1
 163 346 l 1,10,-1
 158 330 l 1,11,-1
 152 315 l 1,12,-1
 142 304 l 1,13,-1
 131 294 l 1,14,-1
 121 283 l 1,15,-1
 116 267 l 1,16,-1
 110 252 l 1,17,-1
 100 241 l 1,18,-1
 100 231 l 1,19,-1
 115 226 l 1,20,-1
 220 226 l 1,21,-1
 236 231 l 1,22,-1
 242 246 l 1,0,-1
388 205 m 1,23,-1
 304 205 l 1,24,-1
 289 199 l 1,25,-1
 284 183 l 1,26,-1
 284 57 l 1,27,-1
 278 42 l 1,28,-1
 262 37 l 1,29,-1
 247 42 l 1,30,-1
 242 57 l 1,31,-1
 242 162 l 1,32,-1
 236 178 l 1,33,-1
 220 184 l 1,34,-1
 52 184 l 1,35,-1
 37 189 l 1,36,-1
 32 204 l 1,37,-1
 32 225 l 1,38,-1
 37 241 l 1,39,-1
 47 252 l 1,40,-1
 53 267 l 1,41,-1
 58 283 l 1,42,-1
 68 294 l 1,43,-1
 79 304 l 1,44,-1
 89 315 l 1,45,-1
 100 325 l 1,46,-1
 110 336 l 1,47,-1
 116 351 l 1,48,-1
 121 367 l 1,49,-1
 131 378 l 1,50,-1
 142 388 l 1,51,-1
 152 399 l 1,52,-1
 158 414 l 1,53,-1
 163 430 l 1,54,-1
 173 441 l 1,55,-1
 179 456 l 1,56,-1
 184 472 l 1,57,-1
 194 483 l 1,58,-1
 200 498 l 1,59,-1
 205 514 l 1,60,-1
 220 520 l 1,61,-1
 262 520 l 1,62,-1
 278 514 l 1,63,-1
 284 498 l 1,64,-1
 284 267 l 1,65,-1
 289 252 l 1,66,-1
 304 247 l 1,67,-1
 346 247 l 1,68,-1
 362 252 l 1,69,-1
 373 262 l 1,70,-1
 388 268 l 1,71,-1
 404 262 l 1,72,-1
 410 246 l 1,73,-1
 410 225 l 1,74,-1
 404 210 l 1,75,-1
 388 205 l 1,23,-1
EndSplineSet
EndChar

StartChar: five
Encoding: 53 53 24
Width: 400
VWidth: 1124
GlyphClass: 2
Flags: W
LayerCount: 2
Fore
SplineSet
352 115 m 1,0,-1
 341 105 l 1,1,-1
 325 100 l 1,2,-1
 310 94 l 1,3,-1
 299 84 l 1,4,-1
 283 79 l 1,5,-1
 268 73 l 1,6,-1
 257 63 l 1,7,-1
 241 58 l 1,8,-1
 52 58 l 1,9,-1
 37 63 l 1,10,-1
 32 78 l 1,11,-1
 32 99 l 1,12,-1
 37 115 l 1,13,-1
 52 121 l 1,14,-1
 68 115 l 1,15,-1
 79 105 l 1,16,-1
 94 100 l 1,17,-1
 220 100 l 1,18,-1
 236 105 l 1,19,-1
 247 115 l 1,20,-1
 262 121 l 1,21,-1
 278 126 l 1,22,-1
 289 136 l 1,23,-1
 299 147 l 1,24,-1
 310 157 l 1,25,-1
 320 168 l 1,26,-1
 326 183 l 1,27,-1
 326 246 l 1,28,-1
 320 262 l 1,29,-1
 310 273 l 1,30,-1
 299 283 l 1,31,-1
 289 294 l 1,32,-1
 278 304 l 1,33,-1
 262 310 l 1,34,-1
 157 310 l 1,35,-1
 142 304 l 1,36,-1
 131 294 l 1,37,-1
 121 283 l 1,38,-1
 110 273 l 1,39,-1
 94 268 l 1,40,-1
 73 268 l 1,41,-1
 58 273 l 1,42,-1
 53 288 l 1,43,-1
 53 498 l 1,44,-1
 58 514 l 1,45,-1
 73 520 l 1,46,-1
 220 520 l 1,47,-1
 236 525 l 1,48,-1
 247 535 l 1,49,-1
 262 541 l 1,50,-1
 304 541 l 1,51,-1
 320 535 l 1,52,-1
 326 519 l 1,53,-1
 320 504 l 1,54,-1
 304 499 l 1,55,-1
 283 499 l 1,56,-1
 268 493 l 1,57,-1
 257 483 l 1,58,-1
 241 478 l 1,59,-1
 115 478 l 1,60,-1
 100 472 l 1,61,-1
 95 456 l 1,62,-1
 95 351 l 1,63,-1
 100 336 l 1,64,-1
 110 336 l 1,65,-1
 121 346 l 1,66,-1
 136 352 l 1,67,-1
 304 352 l 1,68,-1
 320 346 l 1,69,-1
 326 330 l 1,70,-1
 331 315 l 1,71,-1
 346 310 l 1,72,-1
 362 304 l 1,73,-1
 368 288 l 1,74,-1
 368 141 l 1,75,-1
 362 126 l 1,76,-1
 352 115 l 1,0,-1
EndSplineSet
EndChar

StartChar: six
Encoding: 54 54 25
Width: 379
VWidth: 1124
GlyphClass: 2
Flags: W
LayerCount: 2
Fore
SplineSet
305 183 m 1,0,-1
 305 204 l 1,1,-1
 299 220 l 1,2,-1
 289 231 l 1,3,-1
 278 241 l 1,4,-1
 262 247 l 1,5,-1
 220 247 l 1,6,-1
 205 241 l 1,7,-1
 194 231 l 1,8,-1
 184 220 l 1,9,-1
 173 210 l 1,10,-1
 163 199 l 1,11,-1
 158 183 l 1,12,-1
 152 168 l 1,13,-1
 142 157 l 1,14,-1
 137 141 l 1,15,-1
 142 126 l 1,16,-1
 152 115 l 1,17,-1
 163 105 l 1,18,-1
 178 100 l 1,19,-1
 220 100 l 1,20,-1
 236 105 l 1,21,-1
 247 115 l 1,22,-1
 257 126 l 1,23,-1
 268 136 l 1,24,-1
 278 147 l 1,25,-1
 289 157 l 1,26,-1
 299 168 l 1,27,-1
 305 183 l 1,0,-1
331 136 m 1,28,-1
 326 120 l 1,29,-1
 320 105 l 1,30,-1
 310 94 l 1,31,-1
 299 84 l 1,32,-1
 289 73 l 1,33,-1
 278 63 l 1,34,-1
 262 58 l 1,35,-1
 136 58 l 1,36,-1
 121 63 l 1,37,-1
 110 73 l 1,38,-1
 94 79 l 1,39,-1
 79 84 l 1,40,-1
 68 94 l 1,41,-1
 58 105 l 1,42,-1
 53 120 l 1,43,-1
 47 136 l 1,44,-1
 37 147 l 1,45,-1
 32 162 l 1,46,-1
 32 309 l 1,47,-1
 37 325 l 1,48,-1
 47 336 l 1,49,-1
 53 351 l 1,50,-1
 53 372 l 1,51,-1
 58 388 l 1,52,-1
 68 399 l 1,53,-1
 79 409 l 1,54,-1
 89 420 l 1,55,-1
 95 435 l 1,56,-1
 100 451 l 1,57,-1
 110 462 l 1,58,-1
 121 472 l 1,59,-1
 131 483 l 1,60,-1
 137 498 l 1,61,-1
 142 514 l 1,62,-1
 152 525 l 1,63,-1
 163 535 l 1,64,-1
 173 546 l 1,65,-1
 184 556 l 1,66,-1
 199 562 l 1,67,-1
 220 562 l 1,68,-1
 236 556 l 1,69,-1
 247 546 l 1,70,-1
 257 535 l 1,71,-1
 263 519 l 1,72,-1
 257 504 l 1,73,-1
 241 499 l 1,74,-1
 220 499 l 1,75,-1
 205 493 l 1,76,-1
 194 483 l 1,77,-1
 184 472 l 1,78,-1
 173 462 l 1,79,-1
 163 451 l 1,80,-1
 152 441 l 1,81,-1
 142 430 l 1,82,-1
 137 414 l 1,83,-1
 131 399 l 1,84,-1
 121 388 l 1,85,-1
 116 372 l 1,86,-1
 110 357 l 1,87,-1
 100 346 l 1,88,-1
 95 330 l 1,89,-1
 89 315 l 1,90,-1
 79 304 l 1,91,-1
 74 288 l 1,92,-1
 74 183 l 1,93,-1
 79 168 l 1,94,-1
 89 168 l 1,95,-1
 100 178 l 1,96,-1
 110 189 l 1,97,-1
 116 204 l 1,98,-1
 121 220 l 1,99,-1
 131 231 l 1,100,-1
 137 246 l 1,101,-1
 142 262 l 1,102,-1
 157 268 l 1,103,-1
 173 273 l 1,104,-1
 184 283 l 1,105,-1
 199 289 l 1,106,-1
 283 289 l 1,107,-1
 299 283 l 1,108,-1
 310 273 l 1,109,-1
 320 262 l 1,110,-1
 331 252 l 1,111,-1
 341 241 l 1,112,-1
 347 225 l 1,113,-1
 347 162 l 1,114,-1
 341 147 l 1,115,-1
 331 136 l 1,28,-1
EndSplineSet
EndChar

StartChar: seven
Encoding: 55 55 26
Width: 337
VWidth: 1124
GlyphClass: 2
Flags: W
LayerCount: 2
Fore
SplineSet
289 451 m 1,0,-1
 284 435 l 1,1,-1
 278 420 l 1,2,-1
 268 409 l 1,3,-1
 263 393 l 1,4,-1
 263 372 l 1,5,-1
 257 357 l 1,6,-1
 247 346 l 1,7,-1
 242 330 l 1,8,-1
 242 288 l 1,9,-1
 236 273 l 1,10,-1
 226 262 l 1,11,-1
 221 246 l 1,12,-1
 221 204 l 1,13,-1
 215 189 l 1,14,-1
 205 178 l 1,15,-1
 200 162 l 1,16,-1
 200 78 l 1,17,-1
 194 63 l 1,18,-1
 178 58 l 1,19,-1
 163 63 l 1,20,-1
 158 78 l 1,21,-1
 158 183 l 1,22,-1
 163 199 l 1,23,-1
 173 210 l 1,24,-1
 179 225 l 1,25,-1
 179 267 l 1,26,-1
 184 283 l 1,27,-1
 194 294 l 1,28,-1
 200 309 l 1,29,-1
 200 351 l 1,30,-1
 205 367 l 1,31,-1
 215 378 l 1,32,-1
 221 393 l 1,33,-1
 221 414 l 1,34,-1
 226 430 l 1,35,-1
 236 441 l 1,36,-1
 242 456 l 1,37,-1
 236 472 l 1,38,-1
 220 478 l 1,39,-1
 94 478 l 1,40,-1
 79 472 l 1,41,-1
 74 456 l 1,42,-1
 74 393 l 1,43,-1
 68 378 l 1,44,-1
 52 373 l 1,45,-1
 37 378 l 1,46,-1
 32 393 l 1,47,-1
 32 498 l 1,48,-1
 37 514 l 1,49,-1
 52 520 l 1,50,-1
 283 520 l 1,51,-1
 299 514 l 1,52,-1
 305 498 l 1,53,-1
 305 477 l 1,54,-1
 299 462 l 1,55,-1
 289 451 l 1,0,-1
EndSplineSet
EndChar

StartChar: eight
Encoding: 56 56 27
Width: 442
VWidth: 1124
GlyphClass: 2
Flags: W
LayerCount: 2
Fore
SplineSet
305 435 m 1,0,-1
 299 451 l 1,1,-1
 289 462 l 1,2,-1
 278 472 l 1,3,-1
 262 478 l 1,4,-1
 247 483 l 1,5,-1
 236 493 l 1,6,-1
 220 499 l 1,7,-1
 178 499 l 1,8,-1
 163 493 l 1,9,-1
 152 483 l 1,10,-1
 142 472 l 1,11,-1
 131 462 l 1,12,-1
 121 451 l 1,13,-1
 116 435 l 1,14,-1
 116 393 l 1,15,-1
 121 378 l 1,16,-1
 136 373 l 1,17,-1
 152 367 l 1,18,-1
 163 357 l 1,19,-1
 178 352 l 1,20,-1
 199 352 l 1,21,-1
 215 357 l 1,22,-1
 226 367 l 1,23,-1
 241 373 l 1,24,-1
 257 378 l 1,25,-1
 268 388 l 1,26,-1
 278 399 l 1,27,-1
 289 409 l 1,28,-1
 299 420 l 1,29,-1
 305 435 l 1,0,-1
362 220 m 1,30,-1
 352 231 l 1,31,-1
 347 246 l 1,32,-1
 341 262 l 1,33,-1
 325 268 l 1,34,-1
 310 273 l 1,35,-1
 299 283 l 1,36,-1
 283 289 l 1,37,-1
 199 289 l 1,38,-1
 184 294 l 1,39,-1
 173 304 l 1,40,-1
 163 304 l 1,41,-1
 152 294 l 1,42,-1
 136 289 l 1,43,-1
 121 283 l 1,44,-1
 110 273 l 1,45,-1
 100 262 l 1,46,-1
 95 246 l 1,47,-1
 89 231 l 1,48,-1
 79 220 l 1,49,-1
 74 204 l 1,50,-1
 74 162 l 1,51,-1
 79 147 l 1,52,-1
 89 136 l 1,53,-1
 100 126 l 1,54,-1
 115 121 l 1,55,-1
 131 115 l 1,56,-1
 142 105 l 1,57,-1
 157 100 l 1,58,-1
 199 100 l 1,59,-1
 215 105 l 1,60,-1
 226 115 l 1,61,-1
 241 121 l 1,62,-1
 262 121 l 1,63,-1
 278 126 l 1,64,-1
 289 136 l 1,65,-1
 304 142 l 1,66,-1
 320 147 l 1,67,-1
 326 162 l 1,68,-1
 331 178 l 1,69,-1
 341 189 l 1,70,-1
 352 199 l 1,71,-1
 362 210 l 1,72,-1
 362 220 l 1,30,-1
394 178 m 1,73,-1
 389 162 l 1,74,-1
 383 147 l 1,75,-1
 373 136 l 1,76,-1
 362 126 l 1,77,-1
 352 115 l 1,78,-1
 341 105 l 1,79,-1
 325 100 l 1,80,-1
 310 94 l 1,81,-1
 299 84 l 1,82,-1
 283 79 l 1,83,-1
 262 79 l 1,84,-1
 247 73 l 1,85,-1
 236 63 l 1,86,-1
 220 58 l 1,87,-1
 136 58 l 1,88,-1
 121 63 l 1,89,-1
 110 73 l 1,90,-1
 94 79 l 1,91,-1
 73 79 l 1,92,-1
 58 84 l 1,93,-1
 53 99 l 1,94,-1
 47 115 l 1,95,-1
 37 126 l 1,96,-1
 32 141 l 1,97,-1
 32 225 l 1,98,-1
 37 241 l 1,99,-1
 47 252 l 1,100,-1
 53 267 l 1,101,-1
 58 283 l 1,102,-1
 68 294 l 1,103,-1
 79 304 l 1,104,-1
 89 315 l 1,105,-1
 95 330 l 1,106,-1
 89 346 l 1,107,-1
 79 357 l 1,108,-1
 68 367 l 1,109,-1
 58 378 l 1,110,-1
 53 393 l 1,111,-1
 53 414 l 1,112,-1
 58 430 l 1,113,-1
 68 441 l 1,114,-1
 74 456 l 1,115,-1
 74 477 l 1,116,-1
 79 493 l 1,117,-1
 89 504 l 1,118,-1
 100 514 l 1,119,-1
 110 525 l 1,120,-1
 121 535 l 1,121,-1
 136 541 l 1,122,-1
 283 541 l 1,123,-1
 299 535 l 1,124,-1
 310 525 l 1,125,-1
 320 514 l 1,126,-1
 331 504 l 1,127,-1
 341 493 l 1,128,-1
 347 477 l 1,129,-1
 347 414 l 1,130,-1
 341 399 l 1,131,-1
 331 388 l 1,132,-1
 326 372 l 1,133,-1
 320 357 l 1,134,-1
 304 352 l 1,135,-1
 289 346 l 1,136,-1
 289 336 l 1,137,-1
 304 331 l 1,138,-1
 320 325 l 1,139,-1
 331 315 l 1,140,-1
 346 310 l 1,141,-1
 362 304 l 1,142,-1
 373 294 l 1,143,-1
 383 283 l 1,144,-1
 394 273 l 1,145,-1
 404 262 l 1,146,-1
 410 246 l 1,147,-1
 410 204 l 1,148,-1
 404 189 l 1,149,-1
 394 178 l 1,73,-1
EndSplineSet
EndChar

StartChar: nine
Encoding: 57 57 28
Width: 358
VWidth: 1124
GlyphClass: 2
Flags: W
LayerCount: 2
Fore
SplineSet
284 393 m 1,0,-1
 284 456 l 1,1,-1
 278 472 l 1,2,-1
 262 478 l 1,3,-1
 220 478 l 1,4,-1
 205 483 l 1,5,-1
 194 493 l 1,6,-1
 178 499 l 1,7,-1
 163 493 l 1,8,-1
 152 483 l 1,9,-1
 136 478 l 1,10,-1
 121 472 l 1,11,-1
 110 462 l 1,12,-1
 100 451 l 1,13,-1
 95 435 l 1,14,-1
 89 420 l 1,15,-1
 79 409 l 1,16,-1
 74 393 l 1,17,-1
 74 351 l 1,18,-1
 79 336 l 1,19,-1
 89 325 l 1,20,-1
 100 315 l 1,21,-1
 110 304 l 1,22,-1
 121 294 l 1,23,-1
 136 289 l 1,24,-1
 178 289 l 1,25,-1
 194 294 l 1,26,-1
 205 304 l 1,27,-1
 220 310 l 1,28,-1
 236 315 l 1,29,-1
 247 325 l 1,30,-1
 257 336 l 1,31,-1
 263 351 l 1,32,-1
 268 367 l 1,33,-1
 278 378 l 1,34,-1
 284 393 l 1,0,-1
304 37 m 1,35,-1
 289 42 l 1,36,-1
 284 57 l 1,37,-1
 284 267 l 1,38,-1
 278 283 l 1,39,-1
 268 283 l 1,40,-1
 257 273 l 1,41,-1
 247 262 l 1,42,-1
 236 252 l 1,43,-1
 220 247 l 1,44,-1
 115 247 l 1,45,-1
 100 252 l 1,46,-1
 89 262 l 1,47,-1
 73 268 l 1,48,-1
 58 273 l 1,49,-1
 53 288 l 1,50,-1
 47 304 l 1,51,-1
 37 315 l 1,52,-1
 32 330 l 1,53,-1
 32 435 l 1,54,-1
 37 451 l 1,55,-1
 47 462 l 1,56,-1
 58 472 l 1,57,-1
 68 483 l 1,58,-1
 79 493 l 1,59,-1
 89 504 l 1,60,-1
 100 514 l 1,61,-1
 115 520 l 1,62,-1
 131 525 l 1,63,-1
 142 535 l 1,64,-1
 157 541 l 1,65,-1
 220 541 l 1,66,-1
 236 535 l 1,67,-1
 247 525 l 1,68,-1
 262 520 l 1,69,-1
 304 520 l 1,70,-1
 320 514 l 1,71,-1
 326 498 l 1,72,-1
 326 57 l 1,73,-1
 320 42 l 1,74,-1
 304 37 l 1,35,-1
EndSplineSet
EndChar

StartChar: colon
Encoding: 58 58 29
Width: 148
VWidth: 1124
GlyphClass: 2
Flags: W
LayerCount: 2
Fore
SplineSet
94 289 m 1,0,-1
 73 289 l 1,1,-1
 58 294 l 1,2,-1
 53 309 l 1,3,-1
 53 330 l 1,4,-1
 58 346 l 1,5,-1
 73 352 l 1,6,-1
 94 352 l 1,7,-1
 110 346 l 1,8,-1
 116 330 l 1,9,-1
 116 309 l 1,10,-1
 110 294 l 1,11,-1
 94 289 l 1,0,-1
94 121 m 1,12,-1
 52 121 l 1,13,-1
 37 126 l 1,14,-1
 32 141 l 1,15,-1
 37 157 l 1,16,-1
 47 168 l 1,17,-1
 58 178 l 1,18,-1
 73 184 l 1,19,-1
 89 178 l 1,20,-1
 100 168 l 1,21,-1
 110 157 l 1,22,-1
 116 141 l 1,23,-1
 110 126 l 1,24,-1
 94 121 l 1,12,-1
EndSplineSet
EndChar

StartChar: semicolon
Encoding: 59 59 30
Width: 148
VWidth: 1124
GlyphClass: 2
Flags: W
LayerCount: 2
Fore
SplineSet
73 247 m 1,0,-1
 52 247 l 1,1,-1
 37 252 l 1,2,-1
 32 267 l 1,3,-1
 32 288 l 1,4,-1
 37 304 l 1,5,-1
 52 310 l 1,6,-1
 68 304 l 1,7,-1
 79 294 l 1,8,-1
 89 283 l 1,9,-1
 95 267 l 1,10,-1
 89 252 l 1,11,-1
 73 247 l 1,0,-1
100 10 m 1,12,-1
 95 -6 l 1,13,-1
 89 -21 l 1,14,-1
 79 -32 l 1,15,-1
 68 -42 l 1,16,-1
 52 -47 l 1,17,-1
 37 -42 l 1,18,-1
 32 -27 l 1,19,-1
 32 -6 l 1,20,-1
 37 10 l 1,21,-1
 47 21 l 1,22,-1
 58 31 l 1,23,-1
 68 42 l 1,24,-1
 68 52 l 1,25,-1
 52 58 l 1,26,-1
 37 63 l 1,27,-1
 32 78 l 1,28,-1
 32 120 l 1,29,-1
 37 136 l 1,30,-1
 52 142 l 1,31,-1
 68 136 l 1,32,-1
 79 126 l 1,33,-1
 89 115 l 1,34,-1
 95 99 l 1,35,-1
 100 84 l 1,36,-1
 110 73 l 1,37,-1
 116 57 l 1,38,-1
 116 36 l 1,39,-1
 110 21 l 1,40,-1
 100 10 l 1,12,-1
EndSplineSet
EndChar

StartChar: less
Encoding: 60 60 31
Width: 295
VWidth: 1124
GlyphClass: 2
Flags: W
LayerCount: 2
Fore
SplineSet
241 247 m 1,0,-1
 226 252 l 1,1,-1
 215 262 l 1,2,-1
 199 268 l 1,3,-1
 184 273 l 1,4,-1
 173 283 l 1,5,-1
 163 294 l 1,6,-1
 152 304 l 1,7,-1
 136 310 l 1,8,-1
 121 315 l 1,9,-1
 110 325 l 1,10,-1
 100 336 l 1,11,-1
 89 346 l 1,12,-1
 79 357 l 1,13,-1
 68 367 l 1,14,-1
 58 378 l 1,15,-1
 47 388 l 1,16,-1
 37 399 l 1,17,-1
 32 414 l 1,18,-1
 32 456 l 1,19,-1
 37 472 l 1,20,-1
 47 483 l 1,21,-1
 58 493 l 1,22,-1
 73 499 l 1,23,-1
 89 504 l 1,24,-1
 100 514 l 1,25,-1
 110 525 l 1,26,-1
 116 540 l 1,27,-1
 121 556 l 1,28,-1
 131 567 l 1,29,-1
 142 577 l 1,30,-1
 152 588 l 1,31,-1
 163 598 l 1,32,-1
 173 609 l 1,33,-1
 184 619 l 1,34,-1
 199 625 l 1,35,-1
 220 625 l 1,36,-1
 236 619 l 1,37,-1
 242 603 l 1,38,-1
 236 588 l 1,39,-1
 226 577 l 1,40,-1
 215 567 l 1,41,-1
 205 556 l 1,42,-1
 194 546 l 1,43,-1
 184 535 l 1,44,-1
 173 525 l 1,45,-1
 163 514 l 1,46,-1
 152 504 l 1,47,-1
 142 493 l 1,48,-1
 131 483 l 1,49,-1
 121 472 l 1,50,-1
 110 462 l 1,51,-1
 100 451 l 1,52,-1
 89 441 l 1,53,-1
 79 430 l 1,54,-1
 79 420 l 1,55,-1
 89 409 l 1,56,-1
 100 399 l 1,57,-1
 110 388 l 1,58,-1
 121 378 l 1,59,-1
 131 367 l 1,60,-1
 142 357 l 1,61,-1
 157 352 l 1,62,-1
 173 346 l 1,63,-1
 184 336 l 1,64,-1
 199 331 l 1,65,-1
 215 325 l 1,66,-1
 226 315 l 1,67,-1
 236 304 l 1,68,-1
 247 294 l 1,69,-1
 257 283 l 1,70,-1
 263 267 l 1,71,-1
 257 252 l 1,72,-1
 241 247 l 1,0,-1
EndSplineSet
EndChar

StartChar: equal
Encoding: 61 61 32
Width: 379
VWidth: 1124
GlyphClass: 2
Flags: W
LayerCount: 2
Fore
SplineSet
325 499 m 1,0,-1
 157 499 l 1,1,-1
 142 493 l 1,2,-1
 131 483 l 1,3,-1
 115 478 l 1,4,-1
 73 478 l 1,5,-1
 58 483 l 1,6,-1
 53 498 l 1,7,-1
 58 514 l 1,8,-1
 73 520 l 1,9,-1
 89 525 l 1,10,-1
 100 535 l 1,11,-1
 115 541 l 1,12,-1
 325 541 l 1,13,-1
 341 535 l 1,14,-1
 347 519 l 1,15,-1
 341 504 l 1,16,-1
 325 499 l 1,0,-1
325 373 m 1,17,-1
 94 373 l 1,18,-1
 79 367 l 1,19,-1
 68 357 l 1,20,-1
 52 352 l 1,21,-1
 37 357 l 1,22,-1
 32 372 l 1,23,-1
 32 393 l 1,24,-1
 37 409 l 1,25,-1
 52 415 l 1,26,-1
 325 415 l 1,27,-1
 341 409 l 1,28,-1
 347 393 l 1,29,-1
 341 378 l 1,30,-1
 325 373 l 1,17,-1
EndSplineSet
EndChar

StartChar: greater
Encoding: 62 62 33
Width: 316
VWidth: 1124
GlyphClass: 2
Flags: W
LayerCount: 2
Fore
SplineSet
262 373 m 1,0,-1
 247 367 l 1,1,-1
 236 357 l 1,2,-1
 226 346 l 1,3,-1
 215 336 l 1,4,-1
 199 331 l 1,5,-1
 184 325 l 1,6,-1
 173 315 l 1,7,-1
 157 310 l 1,8,-1
 142 304 l 1,9,-1
 131 294 l 1,10,-1
 115 289 l 1,11,-1
 100 283 l 1,12,-1
 89 273 l 1,13,-1
 73 268 l 1,14,-1
 52 268 l 1,15,-1
 37 273 l 1,16,-1
 32 288 l 1,17,-1
 37 304 l 1,18,-1
 52 310 l 1,19,-1
 68 315 l 1,20,-1
 79 325 l 1,21,-1
 89 336 l 1,22,-1
 100 346 l 1,23,-1
 115 352 l 1,24,-1
 136 352 l 1,25,-1
 152 357 l 1,26,-1
 163 367 l 1,27,-1
 178 373 l 1,28,-1
 194 378 l 1,29,-1
 200 393 l 1,30,-1
 194 409 l 1,31,-1
 184 420 l 1,32,-1
 173 430 l 1,33,-1
 163 441 l 1,34,-1
 152 451 l 1,35,-1
 142 462 l 1,36,-1
 131 472 l 1,37,-1
 121 483 l 1,38,-1
 110 493 l 1,39,-1
 100 504 l 1,40,-1
 89 514 l 1,41,-1
 79 525 l 1,42,-1
 74 540 l 1,43,-1
 68 556 l 1,44,-1
 52 562 l 1,45,-1
 37 567 l 1,46,-1
 32 582 l 1,47,-1
 37 598 l 1,48,-1
 52 604 l 1,49,-1
 73 604 l 1,50,-1
 89 598 l 1,51,-1
 100 588 l 1,52,-1
 110 577 l 1,53,-1
 121 567 l 1,54,-1
 131 556 l 1,55,-1
 137 540 l 1,56,-1
 142 525 l 1,57,-1
 152 514 l 1,58,-1
 163 504 l 1,59,-1
 173 493 l 1,60,-1
 184 483 l 1,61,-1
 194 472 l 1,62,-1
 205 462 l 1,63,-1
 220 457 l 1,64,-1
 236 451 l 1,65,-1
 247 441 l 1,66,-1
 257 430 l 1,67,-1
 268 420 l 1,68,-1
 278 409 l 1,69,-1
 284 393 l 1,70,-1
 278 378 l 1,71,-1
 262 373 l 1,0,-1
EndSplineSet
EndChar

StartChar: question
Encoding: 63 63 34
Width: 379
VWidth: 1124
GlyphClass: 2
Flags: W
LayerCount: 2
Fore
SplineSet
163 94 m 1,0,-1
 152 84 l 1,1,-1
 136 79 l 1,2,-1
 121 84 l 1,3,-1
 116 99 l 1,4,-1
 116 141 l 1,5,-1
 121 157 l 1,6,-1
 136 163 l 1,7,-1
 157 163 l 1,8,-1
 173 157 l 1,9,-1
 179 141 l 1,10,-1
 179 120 l 1,11,-1
 173 105 l 1,12,-1
 163 94 l 1,0,-1
325 394 m 1,13,-1
 310 388 l 1,14,-1
 299 378 l 1,15,-1
 283 373 l 1,16,-1
 268 367 l 1,17,-1
 257 357 l 1,18,-1
 241 352 l 1,19,-1
 220 352 l 1,20,-1
 205 346 l 1,21,-1
 194 336 l 1,22,-1
 178 331 l 1,23,-1
 163 325 l 1,24,-1
 158 309 l 1,25,-1
 158 267 l 1,26,-1
 152 252 l 1,27,-1
 136 247 l 1,28,-1
 121 252 l 1,29,-1
 116 267 l 1,30,-1
 116 351 l 1,31,-1
 121 367 l 1,32,-1
 136 373 l 1,33,-1
 152 378 l 1,34,-1
 163 388 l 1,35,-1
 178 394 l 1,36,-1
 220 394 l 1,37,-1
 236 399 l 1,38,-1
 247 409 l 1,39,-1
 262 415 l 1,40,-1
 278 420 l 1,41,-1
 289 430 l 1,42,-1
 299 441 l 1,43,-1
 305 456 l 1,44,-1
 305 477 l 1,45,-1
 299 493 l 1,46,-1
 289 504 l 1,47,-1
 278 514 l 1,48,-1
 262 520 l 1,49,-1
 247 525 l 1,50,-1
 236 535 l 1,51,-1
 220 541 l 1,52,-1
 157 541 l 1,53,-1
 142 535 l 1,54,-1
 131 525 l 1,55,-1
 121 514 l 1,56,-1
 110 504 l 1,57,-1
 100 493 l 1,58,-1
 89 483 l 1,59,-1
 73 478 l 1,60,-1
 52 478 l 1,61,-1
 37 483 l 1,62,-1
 32 498 l 1,63,-1
 32 519 l 1,64,-1
 37 535 l 1,65,-1
 52 541 l 1,66,-1
 68 546 l 1,67,-1
 79 556 l 1,68,-1
 94 562 l 1,69,-1
 110 567 l 1,70,-1
 121 577 l 1,71,-1
 136 583 l 1,72,-1
 262 583 l 1,73,-1
 278 577 l 1,74,-1
 289 567 l 1,75,-1
 299 556 l 1,76,-1
 310 546 l 1,77,-1
 325 541 l 1,78,-1
 341 535 l 1,79,-1
 347 519 l 1,80,-1
 347 414 l 1,81,-1
 341 399 l 1,82,-1
 325 394 l 1,13,-1
EndSplineSet
EndChar

StartChar: at
Encoding: 64 64 35
Width: 610
VWidth: 1124
GlyphClass: 2
Flags: W
LayerCount: 2
Fore
SplineSet
389 393 m 1,0,-1
 389 435 l 1,1,-1
 383 451 l 1,2,-1
 373 462 l 1,3,-1
 362 472 l 1,4,-1
 352 483 l 1,5,-1
 341 493 l 1,6,-1
 325 499 l 1,7,-1
 283 499 l 1,8,-1
 268 493 l 1,9,-1
 257 483 l 1,10,-1
 241 478 l 1,11,-1
 226 472 l 1,12,-1
 221 456 l 1,13,-1
 215 441 l 1,14,-1
 205 430 l 1,15,-1
 200 414 l 1,16,-1
 200 351 l 1,17,-1
 205 336 l 1,18,-1
 215 325 l 1,19,-1
 221 309 l 1,20,-1
 226 294 l 1,21,-1
 241 289 l 1,22,-1
 262 289 l 1,23,-1
 278 283 l 1,24,-1
 289 273 l 1,25,-1
 299 273 l 1,26,-1
 310 283 l 1,27,-1
 325 289 l 1,28,-1
 341 294 l 1,29,-1
 352 304 l 1,30,-1
 362 315 l 1,31,-1
 368 330 l 1,32,-1
 368 351 l 1,33,-1
 373 367 l 1,34,-1
 383 378 l 1,35,-1
 389 393 l 1,0,-1
562 304 m 1,36,-1
 557 288 l 1,37,-1
 551 273 l 1,38,-1
 541 262 l 1,39,-1
 530 252 l 1,40,-1
 514 247 l 1,41,-1
 451 247 l 1,42,-1
 436 252 l 1,43,-1
 425 262 l 1,44,-1
 415 273 l 1,45,-1
 404 283 l 1,46,-1
 394 283 l 1,47,-1
 383 273 l 1,48,-1
 373 262 l 1,49,-1
 362 252 l 1,50,-1
 346 247 l 1,51,-1
 331 241 l 1,52,-1
 320 231 l 1,53,-1
 304 226 l 1,54,-1
 262 226 l 1,55,-1
 247 231 l 1,56,-1
 236 241 l 1,57,-1
 220 247 l 1,58,-1
 205 252 l 1,59,-1
 194 262 l 1,60,-1
 184 273 l 1,61,-1
 173 283 l 1,62,-1
 163 294 l 1,63,-1
 158 309 l 1,64,-1
 158 456 l 1,65,-1
 163 472 l 1,66,-1
 173 483 l 1,67,-1
 184 493 l 1,68,-1
 194 504 l 1,69,-1
 205 514 l 1,70,-1
 220 520 l 1,71,-1
 236 525 l 1,72,-1
 247 535 l 1,73,-1
 262 541 l 1,74,-1
 367 541 l 1,75,-1
 383 535 l 1,76,-1
 394 525 l 1,77,-1
 404 514 l 1,78,-1
 415 504 l 1,79,-1
 425 493 l 1,80,-1
 431 477 l 1,81,-1
 431 351 l 1,82,-1
 436 336 l 1,83,-1
 446 325 l 1,84,-1
 457 315 l 1,85,-1
 467 304 l 1,86,-1
 478 294 l 1,87,-1
 488 294 l 1,88,-1
 499 304 l 1,89,-1
 509 315 l 1,90,-1
 520 325 l 1,91,-1
 530 336 l 1,92,-1
 536 351 l 1,93,-1
 536 456 l 1,94,-1
 530 472 l 1,95,-1
 520 483 l 1,96,-1
 515 498 l 1,97,-1
 509 514 l 1,98,-1
 499 525 l 1,99,-1
 488 535 l 1,100,-1
 478 546 l 1,101,-1
 467 556 l 1,102,-1
 457 567 l 1,103,-1
 446 577 l 1,104,-1
 430 583 l 1,105,-1
 415 588 l 1,106,-1
 404 598 l 1,107,-1
 388 604 l 1,108,-1
 373 609 l 1,109,-1
 362 619 l 1,110,-1
 346 625 l 1,111,-1
 283 625 l 1,112,-1
 268 619 l 1,113,-1
 257 609 l 1,114,-1
 241 604 l 1,115,-1
 226 598 l 1,116,-1
 215 588 l 1,117,-1
 199 583 l 1,118,-1
 184 577 l 1,119,-1
 173 567 l 1,120,-1
 163 556 l 1,121,-1
 152 546 l 1,122,-1
 142 535 l 1,123,-1
 131 525 l 1,124,-1
 121 514 l 1,125,-1
 116 498 l 1,126,-1
 116 477 l 1,127,-1
 110 462 l 1,128,-1
 100 451 l 1,129,-1
 95 435 l 1,130,-1
 95 393 l 1,131,-1
 89 378 l 1,132,-1
 79 367 l 1,133,-1
 74 351 l 1,134,-1
 74 309 l 1,135,-1
 79 294 l 1,136,-1
 89 283 l 1,137,-1
 95 267 l 1,138,-1
 100 252 l 1,139,-1
 110 241 l 1,140,-1
 121 231 l 1,141,-1
 131 220 l 1,142,-1
 142 210 l 1,143,-1
 152 199 l 1,144,-1
 163 189 l 1,145,-1
 178 184 l 1,146,-1
 194 178 l 1,147,-1
 205 168 l 1,148,-1
 220 163 l 1,149,-1
 241 163 l 1,150,-1
 257 157 l 1,151,-1
 268 147 l 1,152,-1
 283 142 l 1,153,-1
 346 142 l 1,154,-1
 362 147 l 1,155,-1
 373 157 l 1,156,-1
 388 163 l 1,157,-1
 430 163 l 1,158,-1
 446 157 l 1,159,-1
 452 141 l 1,160,-1
 446 126 l 1,161,-1
 430 121 l 1,162,-1
 415 115 l 1,163,-1
 404 105 l 1,164,-1
 388 100 l 1,165,-1
 262 100 l 1,166,-1
 247 105 l 1,167,-1
 236 115 l 1,168,-1
 220 121 l 1,169,-1
 178 121 l 1,170,-1
 163 126 l 1,171,-1
 152 136 l 1,172,-1
 136 142 l 1,173,-1
 121 147 l 1,174,-1
 110 157 l 1,175,-1
 100 168 l 1,176,-1
 89 178 l 1,177,-1
 79 189 l 1,178,-1
 74 204 l 1,179,-1
 68 220 l 1,180,-1
 58 231 l 1,181,-1
 47 241 l 1,182,-1
 37 252 l 1,183,-1
 32 267 l 1,184,-1
 32 372 l 1,185,-1
 37 388 l 1,186,-1
 47 399 l 1,187,-1
 53 414 l 1,188,-1
 53 477 l 1,189,-1
 58 493 l 1,190,-1
 68 504 l 1,191,-1
 74 519 l 1,192,-1
 79 535 l 1,193,-1
 89 546 l 1,194,-1
 95 561 l 1,195,-1
 100 577 l 1,196,-1
 110 588 l 1,197,-1
 121 598 l 1,198,-1
 136 604 l 1,199,-1
 152 609 l 1,200,-1
 163 619 l 1,201,-1
 178 625 l 1,202,-1
 194 630 l 1,203,-1
 205 640 l 1,204,-1
 220 646 l 1,205,-1
 236 651 l 1,206,-1
 247 661 l 1,207,-1
 262 667 l 1,208,-1
 388 667 l 1,209,-1
 404 661 l 1,210,-1
 415 651 l 1,211,-1
 425 640 l 1,212,-1
 436 630 l 1,213,-1
 451 625 l 1,214,-1
 472 625 l 1,215,-1
 488 619 l 1,216,-1
 499 609 l 1,217,-1
 509 598 l 1,218,-1
 520 588 l 1,219,-1
 530 577 l 1,220,-1
 536 561 l 1,221,-1
 541 546 l 1,222,-1
 551 535 l 1,223,-1
 557 519 l 1,224,-1
 562 504 l 1,225,-1
 572 493 l 1,226,-1
 578 477 l 1,227,-1
 578 330 l 1,228,-1
 572 315 l 1,229,-1
 562 304 l 1,36,-1
EndSplineSet
EndChar

StartChar: A
Encoding: 65 65 36
Width: 463
VWidth: 1124
GlyphClass: 2
Flags: W
LayerCount: 2
Fore
SplineSet
320 262 m 1,0,-1
 310 273 l 1,1,-1
 305 288 l 1,2,-1
 305 330 l 1,3,-1
 299 346 l 1,4,-1
 289 357 l 1,5,-1
 284 372 l 1,6,-1
 278 388 l 1,7,-1
 268 399 l 1,8,-1
 263 414 l 1,9,-1
 263 435 l 1,10,-1
 257 451 l 1,11,-1
 247 462 l 1,12,-1
 236 472 l 1,13,-1
 226 472 l 1,14,-1
 221 456 l 1,15,-1
 215 441 l 1,16,-1
 205 430 l 1,17,-1
 194 420 l 1,18,-1
 184 409 l 1,19,-1
 179 393 l 1,20,-1
 179 351 l 1,21,-1
 173 336 l 1,22,-1
 163 325 l 1,23,-1
 158 309 l 1,24,-1
 158 288 l 1,25,-1
 163 273 l 1,26,-1
 173 262 l 1,27,-1
 184 252 l 1,28,-1
 199 247 l 1,29,-1
 304 247 l 1,30,-1
 320 252 l 1,31,-1
 320 262 l 1,0,-1
409 79 m 1,32,-1
 394 84 l 1,33,-1
 383 94 l 1,34,-1
 373 105 l 1,35,-1
 368 120 l 1,36,-1
 368 141 l 1,37,-1
 362 157 l 1,38,-1
 352 168 l 1,39,-1
 347 183 l 1,40,-1
 341 199 l 1,41,-1
 325 205 l 1,42,-1
 178 205 l 1,43,-1
 163 210 l 1,44,-1
 152 220 l 1,45,-1
 136 226 l 1,46,-1
 121 220 l 1,47,-1
 116 204 l 1,48,-1
 110 189 l 1,49,-1
 100 178 l 1,50,-1
 95 162 l 1,51,-1
 95 141 l 1,52,-1
 89 126 l 1,53,-1
 79 115 l 1,54,-1
 74 99 l 1,55,-1
 74 78 l 1,56,-1
 68 63 l 1,57,-1
 52 58 l 1,58,-1
 37 63 l 1,59,-1
 32 78 l 1,60,-1
 32 120 l 1,61,-1
 37 136 l 1,62,-1
 47 147 l 1,63,-1
 53 162 l 1,64,-1
 53 183 l 1,65,-1
 58 199 l 1,66,-1
 68 210 l 1,67,-1
 74 225 l 1,68,-1
 74 246 l 1,69,-1
 79 262 l 1,70,-1
 89 273 l 1,71,-1
 100 283 l 1,72,-1
 110 294 l 1,73,-1
 116 309 l 1,74,-1
 116 330 l 1,75,-1
 121 346 l 1,76,-1
 131 357 l 1,77,-1
 137 372 l 1,78,-1
 137 414 l 1,79,-1
 142 430 l 1,80,-1
 152 441 l 1,81,-1
 163 451 l 1,82,-1
 173 462 l 1,83,-1
 179 477 l 1,84,-1
 179 498 l 1,85,-1
 184 514 l 1,86,-1
 194 525 l 1,87,-1
 205 535 l 1,88,-1
 220 541 l 1,89,-1
 241 541 l 1,90,-1
 257 535 l 1,91,-1
 268 525 l 1,92,-1
 278 514 l 1,93,-1
 284 498 l 1,94,-1
 289 483 l 1,95,-1
 299 472 l 1,96,-1
 305 456 l 1,97,-1
 305 435 l 1,98,-1
 310 420 l 1,99,-1
 320 409 l 1,100,-1
 326 393 l 1,101,-1
 331 378 l 1,102,-1
 341 367 l 1,103,-1
 347 351 l 1,104,-1
 347 309 l 1,105,-1
 352 294 l 1,106,-1
 362 283 l 1,107,-1
 368 267 l 1,108,-1
 373 252 l 1,109,-1
 383 241 l 1,110,-1
 389 225 l 1,111,-1
 389 204 l 1,112,-1
 394 189 l 1,113,-1
 404 178 l 1,114,-1
 410 162 l 1,115,-1
 410 141 l 1,116,-1
 415 126 l 1,117,-1
 425 115 l 1,118,-1
 431 99 l 1,119,-1
 425 84 l 1,120,-1
 409 79 l 1,32,-1
EndSplineSet
EndChar

StartChar: B
Encoding: 66 66 37
Width: 463
VWidth: 1124
GlyphClass: 2
Flags: W
LayerCount: 2
Fore
SplineSet
263 414 m 1,0,-1
 263 435 l 1,1,-1
 257 451 l 1,2,-1
 247 462 l 1,3,-1
 236 472 l 1,4,-1
 220 478 l 1,5,-1
 205 472 l 1,6,-1
 194 462 l 1,7,-1
 178 457 l 1,8,-1
 136 457 l 1,9,-1
 121 451 l 1,10,-1
 116 435 l 1,11,-1
 116 351 l 1,12,-1
 121 336 l 1,13,-1
 131 336 l 1,14,-1
 142 346 l 1,15,-1
 157 352 l 1,16,-1
 178 352 l 1,17,-1
 194 357 l 1,18,-1
 205 367 l 1,19,-1
 220 373 l 1,20,-1
 236 378 l 1,21,-1
 247 388 l 1,22,-1
 257 399 l 1,23,-1
 263 414 l 1,0,-1
389 183 m 1,24,-1
 383 199 l 1,25,-1
 373 210 l 1,26,-1
 362 220 l 1,27,-1
 352 231 l 1,28,-1
 341 241 l 1,29,-1
 331 252 l 1,30,-1
 320 262 l 1,31,-1
 304 268 l 1,32,-1
 289 273 l 1,33,-1
 278 283 l 1,34,-1
 262 289 l 1,35,-1
 136 289 l 1,36,-1
 121 283 l 1,37,-1
 116 267 l 1,38,-1
 116 162 l 1,39,-1
 121 147 l 1,40,-1
 131 136 l 1,41,-1
 142 126 l 1,42,-1
 157 121 l 1,43,-1
 283 121 l 1,44,-1
 299 126 l 1,45,-1
 310 136 l 1,46,-1
 325 142 l 1,47,-1
 346 142 l 1,48,-1
 362 147 l 1,49,-1
 373 157 l 1,50,-1
 383 168 l 1,51,-1
 389 183 l 1,24,-1
415 136 m 1,52,-1
 404 126 l 1,53,-1
 394 115 l 1,54,-1
 383 105 l 1,55,-1
 367 100 l 1,56,-1
 346 100 l 1,57,-1
 331 94 l 1,58,-1
 320 84 l 1,59,-1
 304 79 l 1,60,-1
 136 79 l 1,61,-1
 121 73 l 1,62,-1
 110 63 l 1,63,-1
 94 58 l 1,64,-1
 79 63 l 1,65,-1
 74 78 l 1,66,-1
 74 267 l 1,67,-1
 68 283 l 1,68,-1
 52 289 l 1,69,-1
 37 294 l 1,70,-1
 32 309 l 1,71,-1
 37 325 l 1,72,-1
 52 331 l 1,73,-1
 68 336 l 1,74,-1
 74 351 l 1,75,-1
 74 456 l 1,76,-1
 79 472 l 1,77,-1
 89 483 l 1,78,-1
 100 493 l 1,79,-1
 115 499 l 1,80,-1
 157 499 l 1,81,-1
 173 504 l 1,82,-1
 184 514 l 1,83,-1
 199 520 l 1,84,-1
 241 520 l 1,85,-1
 257 514 l 1,86,-1
 268 504 l 1,87,-1
 283 499 l 1,88,-1
 299 493 l 1,89,-1
 305 477 l 1,90,-1
 305 372 l 1,91,-1
 299 357 l 1,92,-1
 289 346 l 1,93,-1
 289 336 l 1,94,-1
 299 325 l 1,95,-1
 310 315 l 1,96,-1
 325 310 l 1,97,-1
 346 310 l 1,98,-1
 362 304 l 1,99,-1
 373 294 l 1,100,-1
 383 283 l 1,101,-1
 394 273 l 1,102,-1
 404 262 l 1,103,-1
 410 246 l 1,104,-1
 415 231 l 1,105,-1
 425 220 l 1,106,-1
 431 204 l 1,107,-1
 431 162 l 1,108,-1
 425 147 l 1,109,-1
 415 136 l 1,52,-1
EndSplineSet
EndChar

StartChar: C
Encoding: 67 67 38
Width: 442
VWidth: 1124
GlyphClass: 2
Flags: W
LayerCount: 2
Fore
SplineSet
388 58 m 1,0,-1
 373 52 l 1,1,-1
 362 42 l 1,2,-1
 346 37 l 1,3,-1
 157 37 l 1,4,-1
 142 42 l 1,5,-1
 131 52 l 1,6,-1
 115 58 l 1,7,-1
 100 63 l 1,8,-1
 89 73 l 1,9,-1
 79 84 l 1,10,-1
 68 94 l 1,11,-1
 58 105 l 1,12,-1
 47 115 l 1,13,-1
 37 126 l 1,14,-1
 32 141 l 1,15,-1
 32 288 l 1,16,-1
 37 304 l 1,17,-1
 47 315 l 1,18,-1
 53 330 l 1,19,-1
 53 351 l 1,20,-1
 58 367 l 1,21,-1
 68 378 l 1,22,-1
 79 388 l 1,23,-1
 89 399 l 1,24,-1
 100 409 l 1,25,-1
 110 420 l 1,26,-1
 121 430 l 1,27,-1
 136 436 l 1,28,-1
 262 436 l 1,29,-1
 278 430 l 1,30,-1
 289 420 l 1,31,-1
 304 415 l 1,32,-1
 320 409 l 1,33,-1
 331 399 l 1,34,-1
 341 388 l 1,35,-1
 352 378 l 1,36,-1
 362 367 l 1,37,-1
 368 351 l 1,38,-1
 373 336 l 1,39,-1
 383 325 l 1,40,-1
 394 315 l 1,41,-1
 404 304 l 1,42,-1
 410 288 l 1,43,-1
 410 267 l 1,44,-1
 404 252 l 1,45,-1
 388 247 l 1,46,-1
 373 252 l 1,47,-1
 368 267 l 1,48,-1
 362 283 l 1,49,-1
 352 294 l 1,50,-1
 341 304 l 1,51,-1
 331 315 l 1,52,-1
 326 330 l 1,53,-1
 320 346 l 1,54,-1
 310 357 l 1,55,-1
 299 367 l 1,56,-1
 283 373 l 1,57,-1
 268 378 l 1,58,-1
 257 388 l 1,59,-1
 241 394 l 1,60,-1
 178 394 l 1,61,-1
 163 388 l 1,62,-1
 152 378 l 1,63,-1
 136 373 l 1,64,-1
 121 367 l 1,65,-1
 116 351 l 1,66,-1
 110 336 l 1,67,-1
 100 325 l 1,68,-1
 95 309 l 1,69,-1
 89 294 l 1,70,-1
 79 283 l 1,71,-1
 74 267 l 1,72,-1
 74 183 l 1,73,-1
 79 168 l 1,74,-1
 89 157 l 1,75,-1
 95 141 l 1,76,-1
 100 126 l 1,77,-1
 110 115 l 1,78,-1
 121 105 l 1,79,-1
 136 100 l 1,80,-1
 152 94 l 1,81,-1
 163 84 l 1,82,-1
 178 79 l 1,83,-1
 304 79 l 1,84,-1
 320 84 l 1,85,-1
 331 94 l 1,86,-1
 346 100 l 1,87,-1
 362 105 l 1,88,-1
 373 115 l 1,89,-1
 388 121 l 1,90,-1
 404 115 l 1,91,-1
 410 99 l 1,92,-1
 410 78 l 1,93,-1
 404 63 l 1,94,-1
 388 58 l 1,0,-1
EndSplineSet
EndChar

StartChar: D
Encoding: 68 68 39
Width: 421
VWidth: 1124
GlyphClass: 2
Flags: W
LayerCount: 2
Fore
SplineSet
347 204 m 1,0,-1
 347 246 l 1,1,-1
 341 262 l 1,2,-1
 331 273 l 1,3,-1
 326 288 l 1,4,-1
 326 309 l 1,5,-1
 320 325 l 1,6,-1
 310 336 l 1,7,-1
 305 351 l 1,8,-1
 299 367 l 1,9,-1
 289 378 l 1,10,-1
 278 388 l 1,11,-1
 262 394 l 1,12,-1
 247 399 l 1,13,-1
 236 409 l 1,14,-1
 220 415 l 1,15,-1
 205 420 l 1,16,-1
 194 430 l 1,17,-1
 178 436 l 1,18,-1
 115 436 l 1,19,-1
 100 430 l 1,20,-1
 95 414 l 1,21,-1
 95 204 l 1,22,-1
 89 189 l 1,23,-1
 79 178 l 1,24,-1
 74 162 l 1,25,-1
 74 78 l 1,26,-1
 79 63 l 1,27,-1
 94 58 l 1,28,-1
 115 58 l 1,29,-1
 131 63 l 1,30,-1
 142 73 l 1,31,-1
 157 79 l 1,32,-1
 178 79 l 1,33,-1
 194 84 l 1,34,-1
 205 94 l 1,35,-1
 220 100 l 1,36,-1
 241 100 l 1,37,-1
 257 105 l 1,38,-1
 268 115 l 1,39,-1
 278 126 l 1,40,-1
 289 136 l 1,41,-1
 299 147 l 1,42,-1
 310 157 l 1,43,-1
 320 168 l 1,44,-1
 331 178 l 1,45,-1
 341 189 l 1,46,-1
 347 204 l 1,0,-1
373 157 m 1,47,-1
 368 141 l 1,48,-1
 362 126 l 1,49,-1
 352 115 l 1,50,-1
 341 105 l 1,51,-1
 325 100 l 1,52,-1
 310 94 l 1,53,-1
 299 84 l 1,54,-1
 289 73 l 1,55,-1
 278 63 l 1,56,-1
 262 58 l 1,57,-1
 247 52 l 1,58,-1
 236 42 l 1,59,-1
 220 37 l 1,60,-1
 199 37 l 1,61,-1
 184 31 l 1,62,-1
 173 21 l 1,63,-1
 157 16 l 1,64,-1
 73 16 l 1,65,-1
 58 21 l 1,66,-1
 47 31 l 1,67,-1
 37 42 l 1,68,-1
 32 57 l 1,69,-1
 32 183 l 1,70,-1
 37 199 l 1,71,-1
 47 210 l 1,72,-1
 53 225 l 1,73,-1
 53 456 l 1,74,-1
 58 472 l 1,75,-1
 73 478 l 1,76,-1
 199 478 l 1,77,-1
 215 472 l 1,78,-1
 226 462 l 1,79,-1
 241 457 l 1,80,-1
 262 457 l 1,81,-1
 278 451 l 1,82,-1
 289 441 l 1,83,-1
 299 430 l 1,84,-1
 310 420 l 1,85,-1
 325 415 l 1,86,-1
 341 409 l 1,87,-1
 347 393 l 1,88,-1
 352 378 l 1,89,-1
 362 367 l 1,90,-1
 368 351 l 1,91,-1
 368 309 l 1,92,-1
 373 294 l 1,93,-1
 383 283 l 1,94,-1
 389 267 l 1,95,-1
 389 183 l 1,96,-1
 383 168 l 1,97,-1
 373 157 l 1,47,-1
EndSplineSet
EndChar

StartChar: E
Encoding: 69 69 40
Width: 379
VWidth: 1124
GlyphClass: 2
Flags: W
LayerCount: 2
Fore
SplineSet
325 58 m 1,0,-1
 52 58 l 1,1,-1
 37 63 l 1,2,-1
 32 78 l 1,3,-1
 32 456 l 1,4,-1
 37 472 l 1,5,-1
 52 478 l 1,6,-1
 304 478 l 1,7,-1
 320 472 l 1,8,-1
 326 456 l 1,9,-1
 320 441 l 1,10,-1
 304 436 l 1,11,-1
 94 436 l 1,12,-1
 79 430 l 1,13,-1
 74 414 l 1,14,-1
 74 330 l 1,15,-1
 79 315 l 1,16,-1
 94 310 l 1,17,-1
 241 310 l 1,18,-1
 257 304 l 1,19,-1
 263 288 l 1,20,-1
 257 273 l 1,21,-1
 241 268 l 1,22,-1
 136 268 l 1,23,-1
 121 262 l 1,24,-1
 110 252 l 1,25,-1
 94 247 l 1,26,-1
 79 241 l 1,27,-1
 74 225 l 1,28,-1
 74 120 l 1,29,-1
 79 105 l 1,30,-1
 94 100 l 1,31,-1
 325 100 l 1,32,-1
 341 94 l 1,33,-1
 347 78 l 1,34,-1
 341 63 l 1,35,-1
 325 58 l 1,0,-1
EndSplineSet
EndChar

StartChar: F
Encoding: 70 70 41
Width: 337
VWidth: 1124
GlyphClass: 2
Flags: W
LayerCount: 2
Fore
SplineSet
283 226 m 1,0,-1
 199 226 l 1,1,-1
 184 231 l 1,2,-1
 173 241 l 1,3,-1
 157 247 l 1,4,-1
 94 247 l 1,5,-1
 79 241 l 1,6,-1
 74 225 l 1,7,-1
 74 78 l 1,8,-1
 68 63 l 1,9,-1
 52 58 l 1,10,-1
 37 63 l 1,11,-1
 32 78 l 1,12,-1
 32 456 l 1,13,-1
 37 472 l 1,14,-1
 52 478 l 1,15,-1
 283 478 l 1,16,-1
 299 472 l 1,17,-1
 305 456 l 1,18,-1
 299 441 l 1,19,-1
 283 436 l 1,20,-1
 94 436 l 1,21,-1
 79 430 l 1,22,-1
 74 414 l 1,23,-1
 74 309 l 1,24,-1
 79 294 l 1,25,-1
 94 289 l 1,26,-1
 178 289 l 1,27,-1
 194 283 l 1,28,-1
 205 273 l 1,29,-1
 220 268 l 1,30,-1
 283 268 l 1,31,-1
 299 262 l 1,32,-1
 305 246 l 1,33,-1
 299 231 l 1,34,-1
 283 226 l 1,0,-1
EndSplineSet
EndChar

StartChar: G
Encoding: 71 71 42
Width: 463
VWidth: 1124
GlyphClass: 2
Flags: W
LayerCount: 2
Fore
SplineSet
415 73 m 1,0,-1
 404 63 l 1,1,-1
 394 52 l 1,2,-1
 383 42 l 1,3,-1
 367 37 l 1,4,-1
 325 37 l 1,5,-1
 310 31 l 1,6,-1
 299 21 l 1,7,-1
 283 16 l 1,8,-1
 220 16 l 1,9,-1
 205 21 l 1,10,-1
 194 31 l 1,11,-1
 178 37 l 1,12,-1
 157 37 l 1,13,-1
 142 42 l 1,14,-1
 131 52 l 1,15,-1
 115 58 l 1,16,-1
 100 63 l 1,17,-1
 89 73 l 1,18,-1
 73 79 l 1,19,-1
 58 84 l 1,20,-1
 53 99 l 1,21,-1
 47 115 l 1,22,-1
 37 126 l 1,23,-1
 32 141 l 1,24,-1
 32 351 l 1,25,-1
 37 367 l 1,26,-1
 47 378 l 1,27,-1
 53 393 l 1,28,-1
 53 435 l 1,29,-1
 58 451 l 1,30,-1
 68 462 l 1,31,-1
 79 472 l 1,32,-1
 89 483 l 1,33,-1
 100 493 l 1,34,-1
 115 499 l 1,35,-1
 325 499 l 1,36,-1
 341 493 l 1,37,-1
 352 483 l 1,38,-1
 367 478 l 1,39,-1
 383 472 l 1,40,-1
 394 462 l 1,41,-1
 404 451 l 1,42,-1
 415 441 l 1,43,-1
 425 430 l 1,44,-1
 431 414 l 1,45,-1
 431 393 l 1,46,-1
 425 378 l 1,47,-1
 409 373 l 1,48,-1
 394 378 l 1,49,-1
 383 388 l 1,50,-1
 373 399 l 1,51,-1
 362 409 l 1,52,-1
 352 420 l 1,53,-1
 341 430 l 1,54,-1
 331 441 l 1,55,-1
 320 451 l 1,56,-1
 304 457 l 1,57,-1
 157 457 l 1,58,-1
 142 451 l 1,59,-1
 131 441 l 1,60,-1
 121 430 l 1,61,-1
 110 420 l 1,62,-1
 100 409 l 1,63,-1
 95 393 l 1,64,-1
 95 372 l 1,65,-1
 89 357 l 1,66,-1
 79 346 l 1,67,-1
 74 330 l 1,68,-1
 74 162 l 1,69,-1
 79 147 l 1,70,-1
 89 136 l 1,71,-1
 100 126 l 1,72,-1
 110 115 l 1,73,-1
 121 105 l 1,74,-1
 136 100 l 1,75,-1
 157 100 l 1,76,-1
 173 94 l 1,77,-1
 184 84 l 1,78,-1
 199 79 l 1,79,-1
 220 79 l 1,80,-1
 236 73 l 1,81,-1
 247 63 l 1,82,-1
 262 58 l 1,83,-1
 278 63 l 1,84,-1
 289 73 l 1,85,-1
 304 79 l 1,86,-1
 325 79 l 1,87,-1
 341 84 l 1,88,-1
 352 94 l 1,89,-1
 362 105 l 1,90,-1
 373 115 l 1,91,-1
 383 126 l 1,92,-1
 389 141 l 1,93,-1
 389 204 l 1,94,-1
 383 220 l 1,95,-1
 373 231 l 1,96,-1
 362 241 l 1,97,-1
 346 247 l 1,98,-1
 331 241 l 1,99,-1
 320 231 l 1,100,-1
 304 226 l 1,101,-1
 199 226 l 1,102,-1
 184 231 l 1,103,-1
 179 246 l 1,104,-1
 184 262 l 1,105,-1
 199 268 l 1,106,-1
 283 268 l 1,107,-1
 299 273 l 1,108,-1
 310 283 l 1,109,-1
 325 289 l 1,110,-1
 388 289 l 1,111,-1
 404 283 l 1,112,-1
 415 273 l 1,113,-1
 425 262 l 1,114,-1
 431 246 l 1,115,-1
 431 99 l 1,116,-1
 425 84 l 1,117,-1
 415 73 l 1,0,-1
EndSplineSet
EndChar

StartChar: H
Encoding: 72 72 43
Width: 442
VWidth: 1124
GlyphClass: 2
Flags: W
LayerCount: 2
Fore
SplineSet
388 37 m 1,0,-1
 373 42 l 1,1,-1
 368 57 l 1,2,-1
 368 183 l 1,3,-1
 362 199 l 1,4,-1
 352 210 l 1,5,-1
 341 220 l 1,6,-1
 325 226 l 1,7,-1
 94 226 l 1,8,-1
 79 220 l 1,9,-1
 74 204 l 1,10,-1
 74 120 l 1,11,-1
 79 105 l 1,12,-1
 89 94 l 1,13,-1
 95 78 l 1,14,-1
 95 57 l 1,15,-1
 89 42 l 1,16,-1
 73 37 l 1,17,-1
 52 37 l 1,18,-1
 37 42 l 1,19,-1
 32 57 l 1,20,-1
 32 414 l 1,21,-1
 37 430 l 1,22,-1
 47 441 l 1,23,-1
 58 451 l 1,24,-1
 73 457 l 1,25,-1
 89 451 l 1,26,-1
 95 435 l 1,27,-1
 95 414 l 1,28,-1
 89 399 l 1,29,-1
 79 388 l 1,30,-1
 74 372 l 1,31,-1
 74 288 l 1,32,-1
 79 273 l 1,33,-1
 94 268 l 1,34,-1
 304 268 l 1,35,-1
 320 273 l 1,36,-1
 331 283 l 1,37,-1
 341 294 l 1,38,-1
 347 309 l 1,39,-1
 347 435 l 1,40,-1
 352 451 l 1,41,-1
 362 462 l 1,42,-1
 373 472 l 1,43,-1
 388 478 l 1,44,-1
 404 472 l 1,45,-1
 410 456 l 1,46,-1
 404 441 l 1,47,-1
 394 430 l 1,48,-1
 389 414 l 1,49,-1
 389 246 l 1,50,-1
 394 231 l 1,51,-1
 404 220 l 1,52,-1
 410 204 l 1,53,-1
 410 57 l 1,54,-1
 404 42 l 1,55,-1
 388 37 l 1,0,-1
EndSplineSet
EndChar

StartChar: I
Encoding: 73 73 44
Width: 253
VWidth: 1124
GlyphClass: 2
Flags: W
LayerCount: 2
Fore
SplineSet
199 58 m 1,0,-1
 52 58 l 1,1,-1
 37 63 l 1,2,-1
 32 78 l 1,3,-1
 37 94 l 1,4,-1
 52 100 l 1,5,-1
 73 100 l 1,6,-1
 89 105 l 1,7,-1
 95 120 l 1,8,-1
 95 141 l 1,9,-1
 100 157 l 1,10,-1
 110 168 l 1,11,-1
 116 183 l 1,12,-1
 116 372 l 1,13,-1
 110 388 l 1,14,-1
 94 394 l 1,15,-1
 52 394 l 1,16,-1
 37 399 l 1,17,-1
 32 414 l 1,18,-1
 37 430 l 1,19,-1
 52 436 l 1,20,-1
 68 441 l 1,21,-1
 79 451 l 1,22,-1
 94 457 l 1,23,-1
 199 457 l 1,24,-1
 215 451 l 1,25,-1
 221 435 l 1,26,-1
 215 420 l 1,27,-1
 199 415 l 1,28,-1
 178 415 l 1,29,-1
 163 409 l 1,30,-1
 158 393 l 1,31,-1
 158 162 l 1,32,-1
 152 147 l 1,33,-1
 142 136 l 1,34,-1
 137 120 l 1,35,-1
 142 105 l 1,36,-1
 157 100 l 1,37,-1
 199 100 l 1,38,-1
 215 94 l 1,39,-1
 221 78 l 1,40,-1
 215 63 l 1,41,-1
 199 58 l 1,0,-1
EndSplineSet
EndChar

StartChar: J
Encoding: 74 74 45
Width: 400
VWidth: 1124
GlyphClass: 2
Flags: W
LayerCount: 2
Fore
SplineSet
346 436 m 1,0,-1
 262 436 l 1,1,-1
 247 430 l 1,2,-1
 242 414 l 1,3,-1
 247 399 l 1,4,-1
 257 388 l 1,5,-1
 263 372 l 1,6,-1
 268 357 l 1,7,-1
 278 346 l 1,8,-1
 284 330 l 1,9,-1
 284 309 l 1,10,-1
 289 294 l 1,11,-1
 299 283 l 1,12,-1
 305 267 l 1,13,-1
 305 141 l 1,14,-1
 299 126 l 1,15,-1
 289 115 l 1,16,-1
 278 105 l 1,17,-1
 262 100 l 1,18,-1
 247 94 l 1,19,-1
 236 84 l 1,20,-1
 226 73 l 1,21,-1
 215 63 l 1,22,-1
 199 58 l 1,23,-1
 115 58 l 1,24,-1
 100 63 l 1,25,-1
 89 73 l 1,26,-1
 79 84 l 1,27,-1
 74 99 l 1,28,-1
 74 141 l 1,29,-1
 79 157 l 1,30,-1
 94 163 l 1,31,-1
 110 157 l 1,32,-1
 116 141 l 1,33,-1
 116 120 l 1,34,-1
 121 105 l 1,35,-1
 136 100 l 1,36,-1
 157 100 l 1,37,-1
 173 105 l 1,38,-1
 184 115 l 1,39,-1
 199 121 l 1,40,-1
 215 126 l 1,41,-1
 226 136 l 1,42,-1
 236 147 l 1,43,-1
 247 157 l 1,44,-1
 257 168 l 1,45,-1
 263 183 l 1,46,-1
 263 246 l 1,47,-1
 257 262 l 1,48,-1
 247 273 l 1,49,-1
 242 288 l 1,50,-1
 242 309 l 1,51,-1
 236 325 l 1,52,-1
 226 336 l 1,53,-1
 221 351 l 1,54,-1
 215 367 l 1,55,-1
 205 378 l 1,56,-1
 200 393 l 1,57,-1
 194 409 l 1,58,-1
 178 415 l 1,59,-1
 52 415 l 1,60,-1
 37 420 l 1,61,-1
 32 435 l 1,62,-1
 37 451 l 1,63,-1
 52 457 l 1,64,-1
 157 457 l 1,65,-1
 173 462 l 1,66,-1
 184 472 l 1,67,-1
 199 478 l 1,68,-1
 346 478 l 1,69,-1
 362 472 l 1,70,-1
 368 456 l 1,71,-1
 362 441 l 1,72,-1
 346 436 l 1,0,-1
EndSplineSet
EndChar

StartChar: K
Encoding: 75 75 46
Width: 400
VWidth: 1124
GlyphClass: 2
Flags: W
LayerCount: 2
Fore
SplineSet
346 58 m 1,0,-1
 325 58 l 1,1,-1
 310 63 l 1,2,-1
 299 73 l 1,3,-1
 289 84 l 1,4,-1
 278 94 l 1,5,-1
 268 105 l 1,6,-1
 257 115 l 1,7,-1
 241 121 l 1,8,-1
 226 126 l 1,9,-1
 215 136 l 1,10,-1
 205 147 l 1,11,-1
 194 157 l 1,12,-1
 184 168 l 1,13,-1
 173 178 l 1,14,-1
 163 189 l 1,15,-1
 152 199 l 1,16,-1
 136 205 l 1,17,-1
 121 210 l 1,18,-1
 110 220 l 1,19,-1
 100 220 l 1,20,-1
 95 204 l 1,21,-1
 95 36 l 1,22,-1
 89 21 l 1,23,-1
 73 16 l 1,24,-1
 58 21 l 1,25,-1
 53 36 l 1,26,-1
 53 204 l 1,27,-1
 47 220 l 1,28,-1
 37 231 l 1,29,-1
 32 246 l 1,30,-1
 32 435 l 1,31,-1
 37 451 l 1,32,-1
 52 457 l 1,33,-1
 73 457 l 1,34,-1
 89 451 l 1,35,-1
 95 435 l 1,36,-1
 89 420 l 1,37,-1
 79 409 l 1,38,-1
 74 393 l 1,39,-1
 74 309 l 1,40,-1
 79 294 l 1,41,-1
 89 294 l 1,42,-1
 100 304 l 1,43,-1
 115 310 l 1,44,-1
 131 315 l 1,45,-1
 142 325 l 1,46,-1
 152 336 l 1,47,-1
 163 346 l 1,48,-1
 178 352 l 1,49,-1
 194 357 l 1,50,-1
 205 367 l 1,51,-1
 215 378 l 1,52,-1
 226 388 l 1,53,-1
 236 399 l 1,54,-1
 247 409 l 1,55,-1
 257 420 l 1,56,-1
 268 430 l 1,57,-1
 278 441 l 1,58,-1
 289 451 l 1,59,-1
 304 457 l 1,60,-1
 320 451 l 1,61,-1
 326 435 l 1,62,-1
 320 420 l 1,63,-1
 310 409 l 1,64,-1
 299 399 l 1,65,-1
 289 388 l 1,66,-1
 278 378 l 1,67,-1
 268 367 l 1,68,-1
 257 357 l 1,69,-1
 247 346 l 1,70,-1
 236 336 l 1,71,-1
 226 325 l 1,72,-1
 215 315 l 1,73,-1
 199 310 l 1,74,-1
 184 304 l 1,75,-1
 173 294 l 1,76,-1
 163 283 l 1,77,-1
 152 273 l 1,78,-1
 142 262 l 1,79,-1
 142 252 l 1,80,-1
 157 247 l 1,81,-1
 173 241 l 1,82,-1
 184 231 l 1,83,-1
 194 220 l 1,84,-1
 205 210 l 1,85,-1
 215 199 l 1,86,-1
 226 189 l 1,87,-1
 241 184 l 1,88,-1
 257 178 l 1,89,-1
 268 168 l 1,90,-1
 278 157 l 1,91,-1
 289 147 l 1,92,-1
 304 142 l 1,93,-1
 320 136 l 1,94,-1
 331 126 l 1,95,-1
 341 115 l 1,96,-1
 352 105 l 1,97,-1
 362 94 l 1,98,-1
 368 78 l 1,99,-1
 362 63 l 1,100,-1
 346 58 l 1,0,-1
EndSplineSet
EndChar

StartChar: L
Encoding: 76 76 47
Width: 379
VWidth: 1124
GlyphClass: 2
Flags: W
LayerCount: 2
Fore
SplineSet
325 100 m 1,0,-1
 220 100 l 1,1,-1
 205 94 l 1,2,-1
 194 84 l 1,3,-1
 178 79 l 1,4,-1
 52 79 l 1,5,-1
 37 84 l 1,6,-1
 32 99 l 1,7,-1
 32 519 l 1,8,-1
 37 535 l 1,9,-1
 52 541 l 1,10,-1
 68 535 l 1,11,-1
 74 519 l 1,12,-1
 74 141 l 1,13,-1
 79 126 l 1,14,-1
 94 121 l 1,15,-1
 157 121 l 1,16,-1
 173 126 l 1,17,-1
 184 136 l 1,18,-1
 199 142 l 1,19,-1
 325 142 l 1,20,-1
 341 136 l 1,21,-1
 347 120 l 1,22,-1
 341 105 l 1,23,-1
 325 100 l 1,0,-1
EndSplineSet
EndChar

StartChar: M
Encoding: 77 77 48
Width: 505
VWidth: 1124
GlyphClass: 2
Flags: W
LayerCount: 2
Fore
SplineSet
451 58 m 1,0,-1
 436 63 l 1,1,-1
 431 78 l 1,2,-1
 431 330 l 1,3,-1
 425 346 l 1,4,-1
 415 346 l 1,5,-1
 404 336 l 1,6,-1
 394 325 l 1,7,-1
 383 315 l 1,8,-1
 373 304 l 1,9,-1
 362 294 l 1,10,-1
 352 283 l 1,11,-1
 347 267 l 1,12,-1
 341 252 l 1,13,-1
 331 241 l 1,14,-1
 320 231 l 1,15,-1
 310 220 l 1,16,-1
 299 210 l 1,17,-1
 289 199 l 1,18,-1
 278 189 l 1,19,-1
 262 184 l 1,20,-1
 220 184 l 1,21,-1
 205 189 l 1,22,-1
 200 204 l 1,23,-1
 194 220 l 1,24,-1
 184 231 l 1,25,-1
 173 241 l 1,26,-1
 163 252 l 1,27,-1
 152 262 l 1,28,-1
 142 273 l 1,29,-1
 137 288 l 1,30,-1
 131 304 l 1,31,-1
 121 315 l 1,32,-1
 116 330 l 1,33,-1
 110 346 l 1,34,-1
 100 346 l 1,35,-1
 95 330 l 1,36,-1
 95 162 l 1,37,-1
 89 147 l 1,38,-1
 79 136 l 1,39,-1
 74 120 l 1,40,-1
 74 57 l 1,41,-1
 68 42 l 1,42,-1
 52 37 l 1,43,-1
 37 42 l 1,44,-1
 32 57 l 1,45,-1
 32 141 l 1,46,-1
 37 157 l 1,47,-1
 47 168 l 1,48,-1
 53 183 l 1,49,-1
 53 351 l 1,50,-1
 47 367 l 1,51,-1
 37 378 l 1,52,-1
 32 393 l 1,53,-1
 32 477 l 1,54,-1
 37 493 l 1,55,-1
 52 499 l 1,56,-1
 68 493 l 1,57,-1
 79 483 l 1,58,-1
 89 472 l 1,59,-1
 95 456 l 1,60,-1
 100 441 l 1,61,-1
 110 430 l 1,62,-1
 116 414 l 1,63,-1
 121 399 l 1,64,-1
 131 388 l 1,65,-1
 142 378 l 1,66,-1
 152 367 l 1,67,-1
 158 351 l 1,68,-1
 163 336 l 1,69,-1
 173 325 l 1,70,-1
 179 309 l 1,71,-1
 184 294 l 1,72,-1
 194 283 l 1,73,-1
 205 273 l 1,74,-1
 215 262 l 1,75,-1
 226 252 l 1,76,-1
 241 247 l 1,77,-1
 257 252 l 1,78,-1
 268 262 l 1,79,-1
 278 273 l 1,80,-1
 289 283 l 1,81,-1
 299 294 l 1,82,-1
 310 304 l 1,83,-1
 320 315 l 1,84,-1
 331 325 l 1,85,-1
 341 336 l 1,86,-1
 352 346 l 1,87,-1
 362 357 l 1,88,-1
 368 372 l 1,89,-1
 373 388 l 1,90,-1
 383 399 l 1,91,-1
 394 409 l 1,92,-1
 404 420 l 1,93,-1
 410 435 l 1,94,-1
 415 451 l 1,95,-1
 430 457 l 1,96,-1
 451 457 l 1,97,-1
 467 451 l 1,98,-1
 473 435 l 1,99,-1
 473 78 l 1,100,-1
 467 63 l 1,101,-1
 451 58 l 1,0,-1
EndSplineSet
EndChar

StartChar: N
Encoding: 78 78 49
Width: 421
VWidth: 1124
GlyphClass: 2
Flags: W
LayerCount: 2
Fore
SplineSet
367 58 m 1,0,-1
 346 58 l 1,1,-1
 331 63 l 1,2,-1
 320 73 l 1,3,-1
 310 84 l 1,4,-1
 305 99 l 1,5,-1
 299 115 l 1,6,-1
 289 126 l 1,7,-1
 284 141 l 1,8,-1
 278 157 l 1,9,-1
 268 168 l 1,10,-1
 257 178 l 1,11,-1
 247 189 l 1,12,-1
 236 199 l 1,13,-1
 226 210 l 1,14,-1
 221 225 l 1,15,-1
 215 241 l 1,16,-1
 205 252 l 1,17,-1
 194 262 l 1,18,-1
 184 273 l 1,19,-1
 173 283 l 1,20,-1
 163 294 l 1,21,-1
 158 309 l 1,22,-1
 152 325 l 1,23,-1
 142 336 l 1,24,-1
 131 346 l 1,25,-1
 121 357 l 1,26,-1
 110 367 l 1,27,-1
 100 367 l 1,28,-1
 95 351 l 1,29,-1
 95 162 l 1,30,-1
 89 147 l 1,31,-1
 79 136 l 1,32,-1
 74 120 l 1,33,-1
 74 78 l 1,34,-1
 68 63 l 1,35,-1
 52 58 l 1,36,-1
 37 63 l 1,37,-1
 32 78 l 1,38,-1
 32 141 l 1,39,-1
 37 157 l 1,40,-1
 47 168 l 1,41,-1
 53 183 l 1,42,-1
 53 456 l 1,43,-1
 58 472 l 1,44,-1
 73 478 l 1,45,-1
 94 478 l 1,46,-1
 110 472 l 1,47,-1
 116 456 l 1,48,-1
 121 441 l 1,49,-1
 131 430 l 1,50,-1
 142 420 l 1,51,-1
 152 409 l 1,52,-1
 158 393 l 1,53,-1
 163 378 l 1,54,-1
 173 367 l 1,55,-1
 184 357 l 1,56,-1
 194 346 l 1,57,-1
 200 330 l 1,58,-1
 205 315 l 1,59,-1
 220 310 l 1,60,-1
 236 304 l 1,61,-1
 242 288 l 1,62,-1
 247 273 l 1,63,-1
 257 262 l 1,64,-1
 268 252 l 1,65,-1
 278 241 l 1,66,-1
 284 225 l 1,67,-1
 289 210 l 1,68,-1
 299 199 l 1,69,-1
 310 189 l 1,70,-1
 320 178 l 1,71,-1
 326 162 l 1,72,-1
 331 147 l 1,73,-1
 341 147 l 1,74,-1
 347 162 l 1,75,-1
 347 456 l 1,76,-1
 352 472 l 1,77,-1
 367 478 l 1,78,-1
 383 472 l 1,79,-1
 389 456 l 1,80,-1
 389 78 l 1,81,-1
 383 63 l 1,82,-1
 367 58 l 1,0,-1
EndSplineSet
EndChar

StartChar: O
Encoding: 79 79 50
Width: 421
VWidth: 1124
GlyphClass: 2
Flags: W
LayerCount: 2
Fore
SplineSet
347 225 m 1,0,-1
 347 309 l 1,1,-1
 341 325 l 1,2,-1
 331 336 l 1,3,-1
 326 351 l 1,4,-1
 320 367 l 1,5,-1
 310 378 l 1,6,-1
 305 393 l 1,7,-1
 299 409 l 1,8,-1
 283 415 l 1,9,-1
 268 420 l 1,10,-1
 257 430 l 1,11,-1
 241 436 l 1,12,-1
 178 436 l 1,13,-1
 163 430 l 1,14,-1
 152 420 l 1,15,-1
 142 409 l 1,16,-1
 131 399 l 1,17,-1
 121 388 l 1,18,-1
 110 378 l 1,19,-1
 100 367 l 1,20,-1
 95 351 l 1,21,-1
 95 330 l 1,22,-1
 89 315 l 1,23,-1
 79 304 l 1,24,-1
 74 288 l 1,25,-1
 74 225 l 1,26,-1
 79 210 l 1,27,-1
 89 199 l 1,28,-1
 95 183 l 1,29,-1
 100 168 l 1,30,-1
 110 157 l 1,31,-1
 121 147 l 1,32,-1
 131 136 l 1,33,-1
 142 126 l 1,34,-1
 152 115 l 1,35,-1
 163 105 l 1,36,-1
 178 100 l 1,37,-1
 241 100 l 1,38,-1
 257 105 l 1,39,-1
 268 115 l 1,40,-1
 283 121 l 1,41,-1
 299 126 l 1,42,-1
 305 141 l 1,43,-1
 310 157 l 1,44,-1
 320 168 l 1,45,-1
 326 183 l 1,46,-1
 331 199 l 1,47,-1
 341 210 l 1,48,-1
 347 225 l 1,0,-1
373 178 m 1,49,-1
 368 162 l 1,50,-1
 368 141 l 1,51,-1
 362 126 l 1,52,-1
 352 115 l 1,53,-1
 341 105 l 1,54,-1
 331 94 l 1,55,-1
 320 84 l 1,56,-1
 310 73 l 1,57,-1
 299 63 l 1,58,-1
 283 58 l 1,59,-1
 136 58 l 1,60,-1
 121 63 l 1,61,-1
 110 73 l 1,62,-1
 100 84 l 1,63,-1
 89 94 l 1,64,-1
 79 105 l 1,65,-1
 74 120 l 1,66,-1
 68 136 l 1,67,-1
 58 147 l 1,68,-1
 53 162 l 1,69,-1
 47 178 l 1,70,-1
 37 189 l 1,71,-1
 32 204 l 1,72,-1
 32 330 l 1,73,-1
 37 346 l 1,74,-1
 47 357 l 1,75,-1
 53 372 l 1,76,-1
 58 388 l 1,77,-1
 68 399 l 1,78,-1
 74 414 l 1,79,-1
 79 430 l 1,80,-1
 89 441 l 1,81,-1
 100 451 l 1,82,-1
 115 457 l 1,83,-1
 131 462 l 1,84,-1
 142 472 l 1,85,-1
 157 478 l 1,86,-1
 283 478 l 1,87,-1
 299 472 l 1,88,-1
 310 462 l 1,89,-1
 325 457 l 1,90,-1
 341 451 l 1,91,-1
 347 435 l 1,92,-1
 352 420 l 1,93,-1
 362 409 l 1,94,-1
 368 393 l 1,95,-1
 373 378 l 1,96,-1
 383 367 l 1,97,-1
 389 351 l 1,98,-1
 389 204 l 1,99,-1
 383 189 l 1,100,-1
 373 178 l 1,49,-1
EndSplineSet
EndChar

StartChar: P
Encoding: 80 80 51
Width: 358
VWidth: 1124
GlyphClass: 2
Flags: W
LayerCount: 2
Fore
SplineSet
284 351 m 1,0,-1
 284 393 l 1,1,-1
 278 409 l 1,2,-1
 268 420 l 1,3,-1
 257 430 l 1,4,-1
 241 436 l 1,5,-1
 94 436 l 1,6,-1
 79 430 l 1,7,-1
 74 414 l 1,8,-1
 74 309 l 1,9,-1
 79 294 l 1,10,-1
 94 289 l 1,11,-1
 178 289 l 1,12,-1
 194 294 l 1,13,-1
 205 304 l 1,14,-1
 220 310 l 1,15,-1
 241 310 l 1,16,-1
 257 315 l 1,17,-1
 268 325 l 1,18,-1
 278 336 l 1,19,-1
 284 351 l 1,0,-1
310 304 m 1,20,-1
 299 294 l 1,21,-1
 289 283 l 1,22,-1
 278 273 l 1,23,-1
 262 268 l 1,24,-1
 247 262 l 1,25,-1
 236 252 l 1,26,-1
 220 247 l 1,27,-1
 94 247 l 1,28,-1
 79 241 l 1,29,-1
 74 225 l 1,30,-1
 79 210 l 1,31,-1
 89 199 l 1,32,-1
 95 183 l 1,33,-1
 95 57 l 1,34,-1
 89 42 l 1,35,-1
 73 37 l 1,36,-1
 58 42 l 1,37,-1
 53 57 l 1,38,-1
 53 162 l 1,39,-1
 47 178 l 1,40,-1
 37 189 l 1,41,-1
 32 204 l 1,42,-1
 32 456 l 1,43,-1
 37 472 l 1,44,-1
 52 478 l 1,45,-1
 283 478 l 1,46,-1
 299 472 l 1,47,-1
 310 462 l 1,48,-1
 320 451 l 1,49,-1
 326 435 l 1,50,-1
 326 330 l 1,51,-1
 320 315 l 1,52,-1
 310 304 l 1,20,-1
EndSplineSet
EndChar

StartChar: Q
Encoding: 81 81 52
Width: 526
VWidth: 1124
GlyphClass: 2
Flags: W
LayerCount: 2
Fore
SplineSet
431 330 m 1,0,-1
 425 346 l 1,1,-1
 415 357 l 1,2,-1
 404 367 l 1,3,-1
 394 378 l 1,4,-1
 383 388 l 1,5,-1
 373 399 l 1,6,-1
 362 409 l 1,7,-1
 352 420 l 1,8,-1
 341 430 l 1,9,-1
 325 436 l 1,10,-1
 310 441 l 1,11,-1
 299 451 l 1,12,-1
 289 462 l 1,13,-1
 278 472 l 1,14,-1
 262 478 l 1,15,-1
 220 478 l 1,16,-1
 205 472 l 1,17,-1
 194 462 l 1,18,-1
 184 451 l 1,19,-1
 173 441 l 1,20,-1
 157 436 l 1,21,-1
 142 430 l 1,22,-1
 137 414 l 1,23,-1
 131 399 l 1,24,-1
 121 388 l 1,25,-1
 110 378 l 1,26,-1
 100 367 l 1,27,-1
 89 357 l 1,28,-1
 79 346 l 1,29,-1
 74 330 l 1,30,-1
 74 204 l 1,31,-1
 79 189 l 1,32,-1
 89 178 l 1,33,-1
 95 162 l 1,34,-1
 100 147 l 1,35,-1
 110 136 l 1,36,-1
 121 126 l 1,37,-1
 131 115 l 1,38,-1
 142 105 l 1,39,-1
 157 100 l 1,40,-1
 173 94 l 1,41,-1
 184 84 l 1,42,-1
 199 79 l 1,43,-1
 241 79 l 1,44,-1
 257 84 l 1,45,-1
 268 94 l 1,46,-1
 278 105 l 1,47,-1
 289 115 l 1,48,-1
 304 121 l 1,49,-1
 320 126 l 1,50,-1
 326 141 l 1,51,-1
 320 157 l 1,52,-1
 304 163 l 1,53,-1
 289 168 l 1,54,-1
 278 178 l 1,55,-1
 268 189 l 1,56,-1
 263 204 l 1,57,-1
 268 220 l 1,58,-1
 283 226 l 1,59,-1
 304 226 l 1,60,-1
 320 220 l 1,61,-1
 331 210 l 1,62,-1
 341 199 l 1,63,-1
 352 189 l 1,64,-1
 367 184 l 1,65,-1
 383 189 l 1,66,-1
 394 199 l 1,67,-1
 404 210 l 1,68,-1
 410 225 l 1,69,-1
 410 288 l 1,70,-1
 415 304 l 1,71,-1
 425 315 l 1,72,-1
 431 330 l 1,0,-1
472 58 m 1,73,-1
 451 58 l 1,74,-1
 436 63 l 1,75,-1
 425 73 l 1,76,-1
 415 84 l 1,77,-1
 404 94 l 1,78,-1
 394 105 l 1,79,-1
 383 115 l 1,80,-1
 373 115 l 1,81,-1
 362 105 l 1,82,-1
 352 94 l 1,83,-1
 341 84 l 1,84,-1
 325 79 l 1,85,-1
 310 73 l 1,86,-1
 299 63 l 1,87,-1
 289 52 l 1,88,-1
 278 42 l 1,89,-1
 262 37 l 1,90,-1
 157 37 l 1,91,-1
 142 42 l 1,92,-1
 131 52 l 1,93,-1
 115 58 l 1,94,-1
 100 63 l 1,95,-1
 89 73 l 1,96,-1
 79 84 l 1,97,-1
 74 99 l 1,98,-1
 68 115 l 1,99,-1
 58 126 l 1,100,-1
 53 141 l 1,101,-1
 47 157 l 1,102,-1
 37 168 l 1,103,-1
 32 183 l 1,104,-1
 32 351 l 1,105,-1
 37 367 l 1,106,-1
 47 378 l 1,107,-1
 53 393 l 1,108,-1
 58 409 l 1,109,-1
 68 420 l 1,110,-1
 79 430 l 1,111,-1
 89 441 l 1,112,-1
 100 451 l 1,113,-1
 110 462 l 1,114,-1
 121 472 l 1,115,-1
 131 483 l 1,116,-1
 142 493 l 1,117,-1
 157 499 l 1,118,-1
 173 504 l 1,119,-1
 184 514 l 1,120,-1
 199 520 l 1,121,-1
 304 520 l 1,122,-1
 320 514 l 1,123,-1
 331 504 l 1,124,-1
 341 493 l 1,125,-1
 352 483 l 1,126,-1
 367 478 l 1,127,-1
 383 472 l 1,128,-1
 394 462 l 1,129,-1
 404 451 l 1,130,-1
 415 441 l 1,131,-1
 425 430 l 1,132,-1
 436 420 l 1,133,-1
 446 409 l 1,134,-1
 452 393 l 1,135,-1
 457 378 l 1,136,-1
 467 367 l 1,137,-1
 473 351 l 1,138,-1
 473 288 l 1,139,-1
 467 273 l 1,140,-1
 457 262 l 1,141,-1
 452 246 l 1,142,-1
 452 204 l 1,143,-1
 446 189 l 1,144,-1
 436 178 l 1,145,-1
 431 162 l 1,146,-1
 431 141 l 1,147,-1
 436 126 l 1,148,-1
 451 121 l 1,149,-1
 467 115 l 1,150,-1
 478 105 l 1,151,-1
 488 94 l 1,152,-1
 494 78 l 1,153,-1
 488 63 l 1,154,-1
 472 58 l 1,73,-1
EndSplineSet
EndChar

StartChar: R
Encoding: 82 82 53
Width: 484
VWidth: 1124
GlyphClass: 2
Flags: W
LayerCount: 2
Fore
SplineSet
347 456 m 1,0,-1
 341 472 l 1,1,-1
 331 483 l 1,2,-1
 320 493 l 1,3,-1
 304 499 l 1,4,-1
 289 504 l 1,5,-1
 278 514 l 1,6,-1
 262 520 l 1,7,-1
 94 520 l 1,8,-1
 79 514 l 1,9,-1
 74 498 l 1,10,-1
 74 414 l 1,11,-1
 79 399 l 1,12,-1
 89 388 l 1,13,-1
 95 372 l 1,14,-1
 95 351 l 1,15,-1
 100 336 l 1,16,-1
 115 331 l 1,17,-1
 136 331 l 1,18,-1
 152 336 l 1,19,-1
 163 346 l 1,20,-1
 178 352 l 1,21,-1
 220 352 l 1,22,-1
 236 357 l 1,23,-1
 247 367 l 1,24,-1
 262 373 l 1,25,-1
 278 378 l 1,26,-1
 289 388 l 1,27,-1
 299 399 l 1,28,-1
 310 409 l 1,29,-1
 320 420 l 1,30,-1
 331 430 l 1,31,-1
 341 441 l 1,32,-1
 347 456 l 1,0,-1
430 100 m 1,33,-1
 415 105 l 1,34,-1
 404 115 l 1,35,-1
 394 126 l 1,36,-1
 389 141 l 1,37,-1
 383 157 l 1,38,-1
 373 168 l 1,39,-1
 368 183 l 1,40,-1
 362 199 l 1,41,-1
 352 210 l 1,42,-1
 341 220 l 1,43,-1
 325 226 l 1,44,-1
 310 231 l 1,45,-1
 299 241 l 1,46,-1
 289 252 l 1,47,-1
 278 262 l 1,48,-1
 262 268 l 1,49,-1
 199 268 l 1,50,-1
 184 273 l 1,51,-1
 173 283 l 1,52,-1
 157 289 l 1,53,-1
 115 289 l 1,54,-1
 100 283 l 1,55,-1
 95 267 l 1,56,-1
 100 252 l 1,57,-1
 110 241 l 1,58,-1
 116 225 l 1,59,-1
 116 99 l 1,60,-1
 110 84 l 1,61,-1
 94 79 l 1,62,-1
 79 84 l 1,63,-1
 74 99 l 1,64,-1
 74 204 l 1,65,-1
 68 220 l 1,66,-1
 58 231 l 1,67,-1
 53 246 l 1,68,-1
 53 351 l 1,69,-1
 47 367 l 1,70,-1
 37 378 l 1,71,-1
 32 393 l 1,72,-1
 32 540 l 1,73,-1
 37 556 l 1,74,-1
 52 562 l 1,75,-1
 304 562 l 1,76,-1
 320 556 l 1,77,-1
 331 546 l 1,78,-1
 341 535 l 1,79,-1
 352 525 l 1,80,-1
 362 514 l 1,81,-1
 373 504 l 1,82,-1
 383 493 l 1,83,-1
 389 477 l 1,84,-1
 389 435 l 1,85,-1
 383 420 l 1,86,-1
 373 409 l 1,87,-1
 362 399 l 1,88,-1
 352 388 l 1,89,-1
 341 378 l 1,90,-1
 331 367 l 1,91,-1
 320 357 l 1,92,-1
 310 346 l 1,93,-1
 299 336 l 1,94,-1
 283 331 l 1,95,-1
 268 325 l 1,96,-1
 268 315 l 1,97,-1
 283 310 l 1,98,-1
 299 304 l 1,99,-1
 310 294 l 1,100,-1
 325 289 l 1,101,-1
 341 283 l 1,102,-1
 352 273 l 1,103,-1
 362 262 l 1,104,-1
 373 252 l 1,105,-1
 383 241 l 1,106,-1
 394 231 l 1,107,-1
 404 220 l 1,108,-1
 415 210 l 1,109,-1
 425 199 l 1,110,-1
 431 183 l 1,111,-1
 436 168 l 1,112,-1
 446 157 l 1,113,-1
 452 141 l 1,114,-1
 452 120 l 1,115,-1
 446 105 l 1,116,-1
 430 100 l 1,33,-1
EndSplineSet
EndChar

StartChar: S
Encoding: 83 83 54
Width: 421
VWidth: 1124
GlyphClass: 2
Flags: W
LayerCount: 2
Fore
SplineSet
373 136 m 1,0,-1
 362 126 l 1,1,-1
 352 115 l 1,2,-1
 341 105 l 1,3,-1
 331 94 l 1,4,-1
 320 84 l 1,5,-1
 304 79 l 1,6,-1
 262 79 l 1,7,-1
 247 73 l 1,8,-1
 236 63 l 1,9,-1
 220 58 l 1,10,-1
 136 58 l 1,11,-1
 121 63 l 1,12,-1
 110 73 l 1,13,-1
 94 79 l 1,14,-1
 79 84 l 1,15,-1
 68 94 l 1,16,-1
 58 105 l 1,17,-1
 53 120 l 1,18,-1
 58 136 l 1,19,-1
 73 142 l 1,20,-1
 94 142 l 1,21,-1
 110 136 l 1,22,-1
 121 126 l 1,23,-1
 131 115 l 1,24,-1
 142 105 l 1,25,-1
 157 100 l 1,26,-1
 199 100 l 1,27,-1
 215 105 l 1,28,-1
 226 115 l 1,29,-1
 241 121 l 1,30,-1
 262 121 l 1,31,-1
 278 126 l 1,32,-1
 289 136 l 1,33,-1
 304 142 l 1,34,-1
 320 147 l 1,35,-1
 331 157 l 1,36,-1
 341 168 l 1,37,-1
 347 183 l 1,38,-1
 341 199 l 1,39,-1
 331 210 l 1,40,-1
 320 220 l 1,41,-1
 310 231 l 1,42,-1
 299 241 l 1,43,-1
 283 247 l 1,44,-1
 241 247 l 1,45,-1
 226 252 l 1,46,-1
 215 262 l 1,47,-1
 199 268 l 1,48,-1
 157 268 l 1,49,-1
 142 273 l 1,50,-1
 131 283 l 1,51,-1
 115 289 l 1,52,-1
 100 294 l 1,53,-1
 89 304 l 1,54,-1
 73 310 l 1,55,-1
 58 315 l 1,56,-1
 47 325 l 1,57,-1
 37 336 l 1,58,-1
 32 351 l 1,59,-1
 32 414 l 1,60,-1
 37 430 l 1,61,-1
 47 441 l 1,62,-1
 53 456 l 1,63,-1
 58 472 l 1,64,-1
 73 478 l 1,65,-1
 89 483 l 1,66,-1
 100 493 l 1,67,-1
 115 499 l 1,68,-1
 283 499 l 1,69,-1
 299 493 l 1,70,-1
 310 483 l 1,71,-1
 320 472 l 1,72,-1
 326 456 l 1,73,-1
 326 435 l 1,74,-1
 320 420 l 1,75,-1
 304 415 l 1,76,-1
 289 420 l 1,77,-1
 278 430 l 1,78,-1
 268 441 l 1,79,-1
 257 451 l 1,80,-1
 241 457 l 1,81,-1
 136 457 l 1,82,-1
 121 451 l 1,83,-1
 110 441 l 1,84,-1
 100 430 l 1,85,-1
 89 420 l 1,86,-1
 79 409 l 1,87,-1
 74 393 l 1,88,-1
 79 378 l 1,89,-1
 89 367 l 1,90,-1
 100 357 l 1,91,-1
 110 346 l 1,92,-1
 121 336 l 1,93,-1
 136 331 l 1,94,-1
 157 331 l 1,95,-1
 173 325 l 1,96,-1
 184 315 l 1,97,-1
 199 310 l 1,98,-1
 220 310 l 1,99,-1
 236 304 l 1,100,-1
 247 294 l 1,101,-1
 262 289 l 1,102,-1
 304 289 l 1,103,-1
 320 283 l 1,104,-1
 331 273 l 1,105,-1
 346 268 l 1,106,-1
 362 262 l 1,107,-1
 373 252 l 1,108,-1
 383 241 l 1,109,-1
 389 225 l 1,110,-1
 389 162 l 1,111,-1
 383 147 l 1,112,-1
 373 136 l 1,0,-1
EndSplineSet
EndChar

StartChar: T
Encoding: 84 84 55
Width: 505
VWidth: 1124
GlyphClass: 2
Flags: W
LayerCount: 2
Fore
SplineSet
451 478 m 1,0,-1
 283 478 l 1,1,-1
 268 472 l 1,2,-1
 263 456 l 1,3,-1
 263 99 l 1,4,-1
 257 84 l 1,5,-1
 241 79 l 1,6,-1
 226 84 l 1,7,-1
 221 99 l 1,8,-1
 221 456 l 1,9,-1
 215 472 l 1,10,-1
 199 478 l 1,11,-1
 94 478 l 1,12,-1
 79 472 l 1,13,-1
 68 462 l 1,14,-1
 52 457 l 1,15,-1
 37 462 l 1,16,-1
 32 477 l 1,17,-1
 32 498 l 1,18,-1
 37 514 l 1,19,-1
 52 520 l 1,20,-1
 451 520 l 1,21,-1
 467 514 l 1,22,-1
 473 498 l 1,23,-1
 467 483 l 1,24,-1
 451 478 l 1,0,-1
EndSplineSet
EndChar

StartChar: U
Encoding: 85 85 56
Width: 421
VWidth: 1124
GlyphClass: 2
Flags: W
LayerCount: 2
Fore
SplineSet
373 283 m 1,0,-1
 368 267 l 1,1,-1
 368 204 l 1,2,-1
 362 189 l 1,3,-1
 352 178 l 1,4,-1
 347 162 l 1,5,-1
 347 141 l 1,6,-1
 341 126 l 1,7,-1
 331 115 l 1,8,-1
 320 105 l 1,9,-1
 310 94 l 1,10,-1
 299 84 l 1,11,-1
 289 73 l 1,12,-1
 278 63 l 1,13,-1
 268 52 l 1,14,-1
 257 42 l 1,15,-1
 241 37 l 1,16,-1
 157 37 l 1,17,-1
 142 42 l 1,18,-1
 131 52 l 1,19,-1
 115 58 l 1,20,-1
 100 63 l 1,21,-1
 89 73 l 1,22,-1
 79 84 l 1,23,-1
 74 99 l 1,24,-1
 68 115 l 1,25,-1
 58 126 l 1,26,-1
 47 136 l 1,27,-1
 37 147 l 1,28,-1
 32 162 l 1,29,-1
 32 477 l 1,30,-1
 37 493 l 1,31,-1
 52 499 l 1,32,-1
 68 493 l 1,33,-1
 74 477 l 1,34,-1
 74 204 l 1,35,-1
 79 189 l 1,36,-1
 89 178 l 1,37,-1
 95 162 l 1,38,-1
 100 147 l 1,39,-1
 110 136 l 1,40,-1
 121 126 l 1,41,-1
 131 115 l 1,42,-1
 142 105 l 1,43,-1
 157 100 l 1,44,-1
 173 94 l 1,45,-1
 184 84 l 1,46,-1
 199 79 l 1,47,-1
 215 84 l 1,48,-1
 226 94 l 1,49,-1
 241 100 l 1,50,-1
 257 105 l 1,51,-1
 268 115 l 1,52,-1
 278 126 l 1,53,-1
 284 141 l 1,54,-1
 289 157 l 1,55,-1
 299 168 l 1,56,-1
 305 183 l 1,57,-1
 310 199 l 1,58,-1
 320 210 l 1,59,-1
 326 225 l 1,60,-1
 326 288 l 1,61,-1
 331 304 l 1,62,-1
 341 315 l 1,63,-1
 347 330 l 1,64,-1
 341 346 l 1,65,-1
 331 357 l 1,66,-1
 326 372 l 1,67,-1
 326 393 l 1,68,-1
 320 409 l 1,69,-1
 310 420 l 1,70,-1
 305 435 l 1,71,-1
 305 456 l 1,72,-1
 310 472 l 1,73,-1
 325 478 l 1,74,-1
 341 472 l 1,75,-1
 347 456 l 1,76,-1
 352 441 l 1,77,-1
 362 430 l 1,78,-1
 368 414 l 1,79,-1
 368 393 l 1,80,-1
 373 378 l 1,81,-1
 383 367 l 1,82,-1
 389 351 l 1,83,-1
 389 309 l 1,84,-1
 383 294 l 1,85,-1
 373 283 l 1,0,-1
EndSplineSet
EndChar

StartChar: V
Encoding: 86 86 57
Width: 484
VWidth: 1124
GlyphClass: 2
Flags: W
LayerCount: 2
Fore
SplineSet
436 388 m 1,0,-1
 425 378 l 1,1,-1
 415 367 l 1,2,-1
 410 351 l 1,3,-1
 410 330 l 1,4,-1
 404 315 l 1,5,-1
 394 304 l 1,6,-1
 389 288 l 1,7,-1
 389 267 l 1,8,-1
 383 252 l 1,9,-1
 373 241 l 1,10,-1
 368 225 l 1,11,-1
 362 210 l 1,12,-1
 352 199 l 1,13,-1
 341 189 l 1,14,-1
 331 178 l 1,15,-1
 326 162 l 1,16,-1
 320 147 l 1,17,-1
 310 136 l 1,18,-1
 305 120 l 1,19,-1
 299 105 l 1,20,-1
 289 94 l 1,21,-1
 278 84 l 1,22,-1
 268 73 l 1,23,-1
 257 63 l 1,24,-1
 241 58 l 1,25,-1
 220 58 l 1,26,-1
 205 63 l 1,27,-1
 194 73 l 1,28,-1
 184 84 l 1,29,-1
 173 94 l 1,30,-1
 163 105 l 1,31,-1
 158 120 l 1,32,-1
 152 136 l 1,33,-1
 142 147 l 1,34,-1
 137 162 l 1,35,-1
 137 204 l 1,36,-1
 131 220 l 1,37,-1
 121 231 l 1,38,-1
 116 246 l 1,39,-1
 116 267 l 1,40,-1
 110 283 l 1,41,-1
 100 294 l 1,42,-1
 95 309 l 1,43,-1
 95 330 l 1,44,-1
 89 346 l 1,45,-1
 79 357 l 1,46,-1
 74 372 l 1,47,-1
 74 393 l 1,48,-1
 68 409 l 1,49,-1
 58 420 l 1,50,-1
 47 430 l 1,51,-1
 37 441 l 1,52,-1
 32 456 l 1,53,-1
 32 477 l 1,54,-1
 37 493 l 1,55,-1
 52 499 l 1,56,-1
 68 493 l 1,57,-1
 74 477 l 1,58,-1
 79 462 l 1,59,-1
 89 451 l 1,60,-1
 100 441 l 1,61,-1
 110 430 l 1,62,-1
 116 414 l 1,63,-1
 116 393 l 1,64,-1
 121 378 l 1,65,-1
 131 367 l 1,66,-1
 137 351 l 1,67,-1
 137 330 l 1,68,-1
 142 315 l 1,69,-1
 152 304 l 1,70,-1
 158 288 l 1,71,-1
 158 267 l 1,72,-1
 163 252 l 1,73,-1
 173 241 l 1,74,-1
 179 225 l 1,75,-1
 179 183 l 1,76,-1
 184 168 l 1,77,-1
 194 157 l 1,78,-1
 205 147 l 1,79,-1
 215 136 l 1,80,-1
 221 120 l 1,81,-1
 226 105 l 1,82,-1
 236 105 l 1,83,-1
 242 120 l 1,84,-1
 247 136 l 1,85,-1
 257 147 l 1,86,-1
 268 157 l 1,87,-1
 278 168 l 1,88,-1
 284 183 l 1,89,-1
 289 199 l 1,90,-1
 299 210 l 1,91,-1
 310 220 l 1,92,-1
 320 231 l 1,93,-1
 326 246 l 1,94,-1
 331 262 l 1,95,-1
 341 273 l 1,96,-1
 347 288 l 1,97,-1
 347 309 l 1,98,-1
 352 325 l 1,99,-1
 362 336 l 1,100,-1
 368 351 l 1,101,-1
 368 372 l 1,102,-1
 373 388 l 1,103,-1
 383 399 l 1,104,-1
 389 414 l 1,105,-1
 394 430 l 1,106,-1
 404 441 l 1,107,-1
 410 456 l 1,108,-1
 415 472 l 1,109,-1
 430 478 l 1,110,-1
 446 472 l 1,111,-1
 452 456 l 1,112,-1
 452 414 l 1,113,-1
 446 399 l 1,114,-1
 436 388 l 1,0,-1
EndSplineSet
EndChar

StartChar: W
Encoding: 87 87 58
Width: 610
VWidth: 1124
GlyphClass: 2
Flags: W
LayerCount: 2
Fore
SplineSet
562 472 m 1,0,-1
 557 456 l 1,1,-1
 557 372 l 1,2,-1
 551 357 l 1,3,-1
 541 346 l 1,4,-1
 536 330 l 1,5,-1
 536 225 l 1,6,-1
 530 210 l 1,7,-1
 520 199 l 1,8,-1
 515 183 l 1,9,-1
 515 141 l 1,10,-1
 509 126 l 1,11,-1
 499 115 l 1,12,-1
 494 99 l 1,13,-1
 488 84 l 1,14,-1
 472 79 l 1,15,-1
 430 79 l 1,16,-1
 415 84 l 1,17,-1
 410 99 l 1,18,-1
 404 115 l 1,19,-1
 394 126 l 1,20,-1
 383 136 l 1,21,-1
 373 147 l 1,22,-1
 368 162 l 1,23,-1
 362 178 l 1,24,-1
 352 189 l 1,25,-1
 341 199 l 1,26,-1
 331 210 l 1,27,-1
 326 225 l 1,28,-1
 320 241 l 1,29,-1
 310 252 l 1,30,-1
 299 262 l 1,31,-1
 289 273 l 1,32,-1
 278 283 l 1,33,-1
 268 283 l 1,34,-1
 263 267 l 1,35,-1
 257 252 l 1,36,-1
 247 241 l 1,37,-1
 236 231 l 1,38,-1
 226 220 l 1,39,-1
 221 204 l 1,40,-1
 215 189 l 1,41,-1
 205 178 l 1,42,-1
 194 168 l 1,43,-1
 184 157 l 1,44,-1
 173 147 l 1,45,-1
 163 136 l 1,46,-1
 152 126 l 1,47,-1
 142 115 l 1,48,-1
 131 105 l 1,49,-1
 121 94 l 1,50,-1
 110 84 l 1,51,-1
 94 79 l 1,52,-1
 79 84 l 1,53,-1
 74 99 l 1,54,-1
 74 141 l 1,55,-1
 68 157 l 1,56,-1
 58 168 l 1,57,-1
 53 183 l 1,58,-1
 53 393 l 1,59,-1
 47 409 l 1,60,-1
 37 420 l 1,61,-1
 32 435 l 1,62,-1
 32 519 l 1,63,-1
 37 535 l 1,64,-1
 52 541 l 1,65,-1
 73 541 l 1,66,-1
 89 535 l 1,67,-1
 95 519 l 1,68,-1
 89 504 l 1,69,-1
 79 493 l 1,70,-1
 74 477 l 1,71,-1
 74 456 l 1,72,-1
 79 441 l 1,73,-1
 89 430 l 1,74,-1
 95 414 l 1,75,-1
 95 204 l 1,76,-1
 100 189 l 1,77,-1
 115 184 l 1,78,-1
 131 189 l 1,79,-1
 142 199 l 1,80,-1
 152 210 l 1,81,-1
 163 220 l 1,82,-1
 173 231 l 1,83,-1
 184 241 l 1,84,-1
 194 252 l 1,85,-1
 200 267 l 1,86,-1
 205 283 l 1,87,-1
 215 294 l 1,88,-1
 226 304 l 1,89,-1
 236 315 l 1,90,-1
 242 330 l 1,91,-1
 247 346 l 1,92,-1
 262 352 l 1,93,-1
 283 352 l 1,94,-1
 299 346 l 1,95,-1
 310 336 l 1,96,-1
 320 325 l 1,97,-1
 331 315 l 1,98,-1
 341 304 l 1,99,-1
 347 288 l 1,100,-1
 352 273 l 1,101,-1
 362 262 l 1,102,-1
 368 246 l 1,103,-1
 373 231 l 1,104,-1
 383 220 l 1,105,-1
 394 210 l 1,106,-1
 404 199 l 1,107,-1
 410 183 l 1,108,-1
 415 168 l 1,109,-1
 425 157 l 1,110,-1
 436 147 l 1,111,-1
 446 147 l 1,112,-1
 457 157 l 1,113,-1
 467 168 l 1,114,-1
 473 183 l 1,115,-1
 473 204 l 1,116,-1
 478 220 l 1,117,-1
 488 231 l 1,118,-1
 494 246 l 1,119,-1
 494 351 l 1,120,-1
 499 367 l 1,121,-1
 509 378 l 1,122,-1
 515 393 l 1,123,-1
 515 477 l 1,124,-1
 520 493 l 1,125,-1
 530 504 l 1,126,-1
 536 519 l 1,127,-1
 541 535 l 1,128,-1
 556 541 l 1,129,-1
 572 535 l 1,130,-1
 578 519 l 1,131,-1
 578 498 l 1,132,-1
 572 483 l 1,133,-1
 562 472 l 1,0,-1
EndSplineSet
EndChar

StartChar: X
Encoding: 88 88 59
Width: 463
VWidth: 1124
GlyphClass: 2
Flags: W
LayerCount: 2
Fore
SplineSet
415 577 m 1,0,-1
 404 567 l 1,1,-1
 394 556 l 1,2,-1
 383 546 l 1,3,-1
 373 535 l 1,4,-1
 368 519 l 1,5,-1
 362 504 l 1,6,-1
 352 493 l 1,7,-1
 347 477 l 1,8,-1
 341 462 l 1,9,-1
 331 451 l 1,10,-1
 320 441 l 1,11,-1
 310 430 l 1,12,-1
 305 414 l 1,13,-1
 299 399 l 1,14,-1
 289 388 l 1,15,-1
 278 378 l 1,16,-1
 268 367 l 1,17,-1
 263 351 l 1,18,-1
 268 336 l 1,19,-1
 278 325 l 1,20,-1
 284 309 l 1,21,-1
 284 288 l 1,22,-1
 289 273 l 1,23,-1
 299 262 l 1,24,-1
 310 252 l 1,25,-1
 320 241 l 1,26,-1
 326 225 l 1,27,-1
 331 210 l 1,28,-1
 341 199 l 1,29,-1
 347 183 l 1,30,-1
 352 168 l 1,31,-1
 362 157 l 1,32,-1
 373 147 l 1,33,-1
 388 142 l 1,34,-1
 404 136 l 1,35,-1
 410 120 l 1,36,-1
 404 105 l 1,37,-1
 388 100 l 1,38,-1
 367 100 l 1,39,-1
 352 105 l 1,40,-1
 341 115 l 1,41,-1
 331 126 l 1,42,-1
 320 136 l 1,43,-1
 310 147 l 1,44,-1
 305 162 l 1,45,-1
 299 178 l 1,46,-1
 289 189 l 1,47,-1
 284 204 l 1,48,-1
 278 220 l 1,49,-1
 268 231 l 1,50,-1
 257 241 l 1,51,-1
 247 252 l 1,52,-1
 242 267 l 1,53,-1
 236 283 l 1,54,-1
 226 283 l 1,55,-1
 215 273 l 1,56,-1
 205 262 l 1,57,-1
 200 246 l 1,58,-1
 194 231 l 1,59,-1
 184 220 l 1,60,-1
 173 210 l 1,61,-1
 163 199 l 1,62,-1
 152 189 l 1,63,-1
 136 184 l 1,64,-1
 121 178 l 1,65,-1
 116 162 l 1,66,-1
 110 147 l 1,67,-1
 100 136 l 1,68,-1
 89 126 l 1,69,-1
 79 115 l 1,70,-1
 68 105 l 1,71,-1
 52 100 l 1,72,-1
 37 105 l 1,73,-1
 32 120 l 1,74,-1
 32 141 l 1,75,-1
 37 157 l 1,76,-1
 52 163 l 1,77,-1
 68 168 l 1,78,-1
 74 183 l 1,79,-1
 79 199 l 1,80,-1
 89 210 l 1,81,-1
 100 220 l 1,82,-1
 115 226 l 1,83,-1
 131 231 l 1,84,-1
 142 241 l 1,85,-1
 152 252 l 1,86,-1
 158 267 l 1,87,-1
 163 283 l 1,88,-1
 173 294 l 1,89,-1
 184 304 l 1,90,-1
 194 315 l 1,91,-1
 194 325 l 1,92,-1
 184 336 l 1,93,-1
 179 351 l 1,94,-1
 173 367 l 1,95,-1
 163 378 l 1,96,-1
 152 388 l 1,97,-1
 142 399 l 1,98,-1
 137 414 l 1,99,-1
 131 430 l 1,100,-1
 121 441 l 1,101,-1
 110 451 l 1,102,-1
 100 462 l 1,103,-1
 89 472 l 1,104,-1
 79 483 l 1,105,-1
 68 493 l 1,106,-1
 58 504 l 1,107,-1
 53 519 l 1,108,-1
 58 535 l 1,109,-1
 73 541 l 1,110,-1
 94 541 l 1,111,-1
 110 535 l 1,112,-1
 121 525 l 1,113,-1
 131 514 l 1,114,-1
 137 498 l 1,115,-1
 142 483 l 1,116,-1
 152 472 l 1,117,-1
 163 462 l 1,118,-1
 173 451 l 1,119,-1
 179 435 l 1,120,-1
 184 420 l 1,121,-1
 194 409 l 1,122,-1
 205 399 l 1,123,-1
 220 394 l 1,124,-1
 236 399 l 1,125,-1
 247 409 l 1,126,-1
 257 420 l 1,127,-1
 263 435 l 1,128,-1
 268 451 l 1,129,-1
 278 462 l 1,130,-1
 289 472 l 1,131,-1
 299 483 l 1,132,-1
 305 498 l 1,133,-1
 310 514 l 1,134,-1
 320 525 l 1,135,-1
 326 540 l 1,136,-1
 331 556 l 1,137,-1
 341 567 l 1,138,-1
 352 577 l 1,139,-1
 362 588 l 1,140,-1
 373 598 l 1,141,-1
 383 609 l 1,142,-1
 394 619 l 1,143,-1
 409 625 l 1,144,-1
 425 619 l 1,145,-1
 431 603 l 1,146,-1
 425 588 l 1,147,-1
 415 577 l 1,0,-1
EndSplineSet
EndChar

StartChar: Y
Encoding: 89 89 60
Width: 484
VWidth: 1124
GlyphClass: 2
Flags: W
LayerCount: 2
Fore
SplineSet
436 493 m 1,0,-1
 425 483 l 1,1,-1
 415 472 l 1,2,-1
 404 462 l 1,3,-1
 394 451 l 1,4,-1
 383 441 l 1,5,-1
 373 430 l 1,6,-1
 362 420 l 1,7,-1
 352 409 l 1,8,-1
 341 399 l 1,9,-1
 331 388 l 1,10,-1
 320 378 l 1,11,-1
 310 367 l 1,12,-1
 299 357 l 1,13,-1
 289 346 l 1,14,-1
 284 330 l 1,15,-1
 284 120 l 1,16,-1
 278 105 l 1,17,-1
 262 100 l 1,18,-1
 247 105 l 1,19,-1
 242 120 l 1,20,-1
 242 309 l 1,21,-1
 236 325 l 1,22,-1
 226 336 l 1,23,-1
 215 346 l 1,24,-1
 205 357 l 1,25,-1
 194 367 l 1,26,-1
 184 378 l 1,27,-1
 179 393 l 1,28,-1
 173 409 l 1,29,-1
 163 420 l 1,30,-1
 152 430 l 1,31,-1
 142 441 l 1,32,-1
 131 451 l 1,33,-1
 121 462 l 1,34,-1
 110 472 l 1,35,-1
 100 483 l 1,36,-1
 89 493 l 1,37,-1
 79 504 l 1,38,-1
 68 514 l 1,39,-1
 52 520 l 1,40,-1
 37 525 l 1,41,-1
 32 540 l 1,42,-1
 37 556 l 1,43,-1
 52 562 l 1,44,-1
 94 562 l 1,45,-1
 110 556 l 1,46,-1
 116 540 l 1,47,-1
 121 525 l 1,48,-1
 131 514 l 1,49,-1
 142 504 l 1,50,-1
 152 493 l 1,51,-1
 163 483 l 1,52,-1
 173 472 l 1,53,-1
 184 462 l 1,54,-1
 194 451 l 1,55,-1
 205 441 l 1,56,-1
 215 430 l 1,57,-1
 226 420 l 1,58,-1
 236 409 l 1,59,-1
 247 399 l 1,60,-1
 257 399 l 1,61,-1
 268 409 l 1,62,-1
 278 420 l 1,63,-1
 289 430 l 1,64,-1
 304 436 l 1,65,-1
 320 441 l 1,66,-1
 331 451 l 1,67,-1
 341 462 l 1,68,-1
 347 477 l 1,69,-1
 352 493 l 1,70,-1
 367 499 l 1,71,-1
 383 504 l 1,72,-1
 389 519 l 1,73,-1
 394 535 l 1,74,-1
 409 541 l 1,75,-1
 430 541 l 1,76,-1
 446 535 l 1,77,-1
 452 519 l 1,78,-1
 446 504 l 1,79,-1
 436 493 l 1,0,-1
EndSplineSet
EndChar

StartChar: Z
Encoding: 90 90 61
Width: 505
VWidth: 1124
GlyphClass: 2
Flags: W
LayerCount: 2
Fore
SplineSet
451 79 m 1,0,-1
 220 79 l 1,1,-1
 205 73 l 1,2,-1
 194 63 l 1,3,-1
 178 58 l 1,4,-1
 115 58 l 1,5,-1
 100 52 l 1,6,-1
 89 42 l 1,7,-1
 73 37 l 1,8,-1
 52 37 l 1,9,-1
 37 42 l 1,10,-1
 32 57 l 1,11,-1
 32 78 l 1,12,-1
 37 94 l 1,13,-1
 47 105 l 1,14,-1
 58 115 l 1,15,-1
 68 126 l 1,16,-1
 79 136 l 1,17,-1
 89 147 l 1,18,-1
 100 157 l 1,19,-1
 110 168 l 1,20,-1
 121 178 l 1,21,-1
 136 184 l 1,22,-1
 152 189 l 1,23,-1
 163 199 l 1,24,-1
 173 210 l 1,25,-1
 184 220 l 1,26,-1
 194 231 l 1,27,-1
 205 241 l 1,28,-1
 215 252 l 1,29,-1
 226 262 l 1,30,-1
 236 273 l 1,31,-1
 247 283 l 1,32,-1
 257 294 l 1,33,-1
 268 304 l 1,34,-1
 278 315 l 1,35,-1
 289 325 l 1,36,-1
 299 336 l 1,37,-1
 310 346 l 1,38,-1
 320 357 l 1,39,-1
 331 367 l 1,40,-1
 341 378 l 1,41,-1
 347 393 l 1,42,-1
 341 409 l 1,43,-1
 325 415 l 1,44,-1
 94 415 l 1,45,-1
 79 409 l 1,46,-1
 68 399 l 1,47,-1
 52 394 l 1,48,-1
 37 399 l 1,49,-1
 32 414 l 1,50,-1
 32 435 l 1,51,-1
 37 451 l 1,52,-1
 52 457 l 1,53,-1
 409 457 l 1,54,-1
 425 451 l 1,55,-1
 431 435 l 1,56,-1
 431 414 l 1,57,-1
 425 399 l 1,58,-1
 415 388 l 1,59,-1
 404 378 l 1,60,-1
 394 367 l 1,61,-1
 383 357 l 1,62,-1
 373 346 l 1,63,-1
 362 336 l 1,64,-1
 352 325 l 1,65,-1
 347 309 l 1,66,-1
 341 294 l 1,67,-1
 325 289 l 1,68,-1
 310 283 l 1,69,-1
 299 273 l 1,70,-1
 289 262 l 1,71,-1
 284 246 l 1,72,-1
 278 231 l 1,73,-1
 262 226 l 1,74,-1
 247 220 l 1,75,-1
 236 210 l 1,76,-1
 226 199 l 1,77,-1
 215 189 l 1,78,-1
 205 178 l 1,79,-1
 194 168 l 1,80,-1
 184 157 l 1,81,-1
 173 147 l 1,82,-1
 163 136 l 1,83,-1
 152 126 l 1,84,-1
 142 115 l 1,85,-1
 142 105 l 1,86,-1
 157 100 l 1,87,-1
 173 105 l 1,88,-1
 184 115 l 1,89,-1
 199 121 l 1,90,-1
 451 121 l 1,91,-1
 467 115 l 1,92,-1
 473 99 l 1,93,-1
 467 84 l 1,94,-1
 451 79 l 1,0,-1
EndSplineSet
EndChar

StartChar: bracketleft
Encoding: 91 91 62
Width: 232
VWidth: 1124
GlyphClass: 2
Flags: W
LayerCount: 2
Fore
SplineSet
178 58 m 1,0,-1
 73 58 l 1,1,-1
 58 63 l 1,2,-1
 53 78 l 1,3,-1
 53 477 l 1,4,-1
 47 493 l 1,5,-1
 37 504 l 1,6,-1
 32 519 l 1,7,-1
 32 708 l 1,8,-1
 37 724 l 1,9,-1
 52 730 l 1,10,-1
 157 730 l 1,11,-1
 173 724 l 1,12,-1
 179 708 l 1,13,-1
 173 693 l 1,14,-1
 157 688 l 1,15,-1
 94 688 l 1,16,-1
 79 682 l 1,17,-1
 74 666 l 1,18,-1
 74 540 l 1,19,-1
 79 525 l 1,20,-1
 89 514 l 1,21,-1
 95 498 l 1,22,-1
 95 120 l 1,23,-1
 100 105 l 1,24,-1
 115 100 l 1,25,-1
 178 100 l 1,26,-1
 194 94 l 1,27,-1
 200 78 l 1,28,-1
 194 63 l 1,29,-1
 178 58 l 1,0,-1
EndSplineSet
EndChar

StartChar: backslash
Encoding: 92 92 63
Width: 337
VWidth: 1124
GlyphClass: 2
Flags: W
LayerCount: 2
Fore
SplineSet
283 100 m 1,0,-1
 268 105 l 1,1,-1
 257 115 l 1,2,-1
 247 126 l 1,3,-1
 236 136 l 1,4,-1
 226 147 l 1,5,-1
 221 162 l 1,6,-1
 215 178 l 1,7,-1
 205 189 l 1,8,-1
 200 204 l 1,9,-1
 200 246 l 1,10,-1
 194 262 l 1,11,-1
 184 273 l 1,12,-1
 179 288 l 1,13,-1
 173 304 l 1,14,-1
 163 315 l 1,15,-1
 158 330 l 1,16,-1
 158 351 l 1,17,-1
 152 367 l 1,18,-1
 142 378 l 1,19,-1
 137 393 l 1,20,-1
 137 414 l 1,21,-1
 131 430 l 1,22,-1
 121 441 l 1,23,-1
 116 456 l 1,24,-1
 110 472 l 1,25,-1
 100 483 l 1,26,-1
 95 498 l 1,27,-1
 89 514 l 1,28,-1
 79 525 l 1,29,-1
 74 540 l 1,30,-1
 68 556 l 1,31,-1
 58 567 l 1,32,-1
 47 577 l 1,33,-1
 37 588 l 1,34,-1
 32 603 l 1,35,-1
 32 624 l 1,36,-1
 37 640 l 1,37,-1
 52 646 l 1,38,-1
 68 640 l 1,39,-1
 79 630 l 1,40,-1
 89 619 l 1,41,-1
 95 603 l 1,42,-1
 100 588 l 1,43,-1
 110 577 l 1,44,-1
 116 561 l 1,45,-1
 121 546 l 1,46,-1
 131 535 l 1,47,-1
 137 519 l 1,48,-1
 142 504 l 1,49,-1
 152 493 l 1,50,-1
 158 477 l 1,51,-1
 163 462 l 1,52,-1
 173 451 l 1,53,-1
 179 435 l 1,54,-1
 179 414 l 1,55,-1
 184 399 l 1,56,-1
 194 388 l 1,57,-1
 200 372 l 1,58,-1
 200 351 l 1,59,-1
 205 336 l 1,60,-1
 215 325 l 1,61,-1
 221 309 l 1,62,-1
 226 294 l 1,63,-1
 236 283 l 1,64,-1
 242 267 l 1,65,-1
 242 225 l 1,66,-1
 247 210 l 1,67,-1
 257 199 l 1,68,-1
 263 183 l 1,69,-1
 268 168 l 1,70,-1
 278 157 l 1,71,-1
 289 147 l 1,72,-1
 299 136 l 1,73,-1
 305 120 l 1,74,-1
 299 105 l 1,75,-1
 283 100 l 1,0,-1
EndSplineSet
EndChar

StartChar: bracketright
Encoding: 93 93 64
Width: 253
VWidth: 1124
GlyphClass: 2
Flags: W
LayerCount: 2
Fore
SplineSet
205 94 m 1,0,-1
 194 84 l 1,1,-1
 178 79 l 1,2,-1
 52 79 l 1,3,-1
 37 84 l 1,4,-1
 32 99 l 1,5,-1
 37 115 l 1,6,-1
 52 121 l 1,7,-1
 136 121 l 1,8,-1
 152 126 l 1,9,-1
 158 141 l 1,10,-1
 158 708 l 1,11,-1
 152 724 l 1,12,-1
 136 730 l 1,13,-1
 52 730 l 1,14,-1
 37 735 l 1,15,-1
 32 750 l 1,16,-1
 37 766 l 1,17,-1
 52 772 l 1,18,-1
 178 772 l 1,19,-1
 194 766 l 1,20,-1
 200 750 l 1,21,-1
 200 204 l 1,22,-1
 205 189 l 1,23,-1
 215 178 l 1,24,-1
 221 162 l 1,25,-1
 221 120 l 1,26,-1
 215 105 l 1,27,-1
 205 94 l 1,0,-1
EndSplineSet
EndChar

StartChar: asciicircum
Encoding: 94 94 65
Width: 295
VWidth: 1124
GlyphClass: 2
Flags: W
LayerCount: 2
Fore
SplineSet
241 625 m 1,0,-1
 220 625 l 1,1,-1
 205 630 l 1,2,-1
 194 640 l 1,3,-1
 184 651 l 1,4,-1
 179 666 l 1,5,-1
 179 687 l 1,6,-1
 173 703 l 1,7,-1
 163 714 l 1,8,-1
 152 724 l 1,9,-1
 142 724 l 1,10,-1
 137 708 l 1,11,-1
 131 693 l 1,12,-1
 121 682 l 1,13,-1
 116 666 l 1,14,-1
 110 651 l 1,15,-1
 100 640 l 1,16,-1
 89 630 l 1,17,-1
 73 625 l 1,18,-1
 52 625 l 1,19,-1
 37 630 l 1,20,-1
 32 645 l 1,21,-1
 37 661 l 1,22,-1
 47 672 l 1,23,-1
 58 682 l 1,24,-1
 68 693 l 1,25,-1
 74 708 l 1,26,-1
 79 724 l 1,27,-1
 89 735 l 1,28,-1
 100 745 l 1,29,-1
 110 756 l 1,30,-1
 116 771 l 1,31,-1
 121 787 l 1,32,-1
 136 793 l 1,33,-1
 157 793 l 1,34,-1
 173 787 l 1,35,-1
 184 777 l 1,36,-1
 194 766 l 1,37,-1
 200 750 l 1,38,-1
 205 735 l 1,39,-1
 215 724 l 1,40,-1
 221 708 l 1,41,-1
 226 693 l 1,42,-1
 236 682 l 1,43,-1
 242 666 l 1,44,-1
 247 651 l 1,45,-1
 257 640 l 1,46,-1
 257 630 l 1,47,-1
 241 625 l 1,0,-1
EndSplineSet
EndChar

StartChar: underscore
Encoding: 95 95 66
Width: 358
VWidth: 1124
GlyphClass: 2
Flags: W
LayerCount: 2
Fore
SplineSet
304 58 m 1,0,-1
 52 58 l 1,1,-1
 37 63 l 1,2,-1
 32 78 l 1,3,-1
 37 94 l 1,4,-1
 52 100 l 1,5,-1
 304 100 l 1,6,-1
 320 94 l 1,7,-1
 326 78 l 1,8,-1
 320 63 l 1,9,-1
 304 58 l 1,0,-1
EndSplineSet
EndChar

StartChar: grave
Encoding: 96 96 67
Width: 190
VWidth: 1124
GlyphClass: 2
Flags: W
LayerCount: 2
Fore
SplineSet
136 583 m 1,0,-1
 115 583 l 1,1,-1
 100 588 l 1,2,-1
 95 603 l 1,3,-1
 89 619 l 1,4,-1
 79 630 l 1,5,-1
 68 640 l 1,6,-1
 58 651 l 1,7,-1
 47 661 l 1,8,-1
 37 672 l 1,9,-1
 32 687 l 1,10,-1
 37 703 l 1,11,-1
 52 709 l 1,12,-1
 73 709 l 1,13,-1
 89 703 l 1,14,-1
 95 687 l 1,15,-1
 100 672 l 1,16,-1
 110 661 l 1,17,-1
 121 651 l 1,18,-1
 131 640 l 1,19,-1
 142 630 l 1,20,-1
 152 619 l 1,21,-1
 158 603 l 1,22,-1
 152 588 l 1,23,-1
 136 583 l 1,0,-1
EndSplineSet
EndChar

StartChar: a
Encoding: 97 97 68
Width: 421
VWidth: 1124
GlyphClass: 2
Flags: W
LayerCount: 2
Fore
SplineSet
320 178 m 1,0,-1
 310 189 l 1,1,-1
 299 199 l 1,2,-1
 283 205 l 1,3,-1
 268 210 l 1,4,-1
 257 220 l 1,5,-1
 241 226 l 1,6,-1
 136 226 l 1,7,-1
 121 220 l 1,8,-1
 110 210 l 1,9,-1
 100 199 l 1,10,-1
 95 183 l 1,11,-1
 95 162 l 1,12,-1
 100 147 l 1,13,-1
 115 142 l 1,14,-1
 262 142 l 1,15,-1
 278 147 l 1,16,-1
 289 157 l 1,17,-1
 304 163 l 1,18,-1
 320 168 l 1,19,-1
 320 178 l 1,0,-1
373 136 m 1,20,-1
 368 120 l 1,21,-1
 362 105 l 1,22,-1
 346 100 l 1,23,-1
 73 100 l 1,24,-1
 58 105 l 1,25,-1
 47 115 l 1,26,-1
 37 126 l 1,27,-1
 32 141 l 1,28,-1
 32 162 l 1,29,-1
 37 178 l 1,30,-1
 47 189 l 1,31,-1
 53 204 l 1,32,-1
 53 225 l 1,33,-1
 58 241 l 1,34,-1
 68 252 l 1,35,-1
 79 262 l 1,36,-1
 94 268 l 1,37,-1
 283 268 l 1,38,-1
 299 262 l 1,39,-1
 310 252 l 1,40,-1
 320 252 l 1,41,-1
 326 267 l 1,42,-1
 326 309 l 1,43,-1
 320 325 l 1,44,-1
 310 336 l 1,45,-1
 305 351 l 1,46,-1
 299 367 l 1,47,-1
 289 378 l 1,48,-1
 278 388 l 1,49,-1
 262 394 l 1,50,-1
 178 394 l 1,51,-1
 163 388 l 1,52,-1
 152 378 l 1,53,-1
 142 367 l 1,54,-1
 131 357 l 1,55,-1
 121 346 l 1,56,-1
 110 336 l 1,57,-1
 94 331 l 1,58,-1
 79 336 l 1,59,-1
 74 351 l 1,60,-1
 74 372 l 1,61,-1
 79 388 l 1,62,-1
 89 399 l 1,63,-1
 100 409 l 1,64,-1
 115 415 l 1,65,-1
 131 420 l 1,66,-1
 142 430 l 1,67,-1
 157 436 l 1,68,-1
 283 436 l 1,69,-1
 299 430 l 1,70,-1
 310 420 l 1,71,-1
 320 409 l 1,72,-1
 331 399 l 1,73,-1
 341 388 l 1,74,-1
 352 378 l 1,75,-1
 362 367 l 1,76,-1
 368 351 l 1,77,-1
 368 204 l 1,78,-1
 373 189 l 1,79,-1
 383 178 l 1,80,-1
 389 162 l 1,81,-1
 383 147 l 1,82,-1
 373 136 l 1,20,-1
EndSplineSet
EndChar

StartChar: b
Encoding: 98 98 69
Width: 379
VWidth: 1124
GlyphClass: 2
Flags: W
LayerCount: 2
Fore
SplineSet
305 204 m 1,0,-1
 305 225 l 1,1,-1
 299 241 l 1,2,-1
 289 252 l 1,3,-1
 284 267 l 1,4,-1
 278 283 l 1,5,-1
 262 289 l 1,6,-1
 247 294 l 1,7,-1
 236 304 l 1,8,-1
 220 310 l 1,9,-1
 178 310 l 1,10,-1
 163 304 l 1,11,-1
 152 294 l 1,12,-1
 136 289 l 1,13,-1
 121 283 l 1,14,-1
 116 267 l 1,15,-1
 110 252 l 1,16,-1
 100 241 l 1,17,-1
 95 225 l 1,18,-1
 95 183 l 1,19,-1
 100 168 l 1,20,-1
 110 157 l 1,21,-1
 116 141 l 1,22,-1
 121 126 l 1,23,-1
 136 121 l 1,24,-1
 157 121 l 1,25,-1
 173 126 l 1,26,-1
 184 136 l 1,27,-1
 199 142 l 1,28,-1
 241 142 l 1,29,-1
 257 147 l 1,30,-1
 268 157 l 1,31,-1
 278 168 l 1,32,-1
 289 178 l 1,33,-1
 299 189 l 1,34,-1
 305 204 l 1,0,-1
331 157 m 1,35,-1
 320 147 l 1,36,-1
 310 136 l 1,37,-1
 299 126 l 1,38,-1
 289 115 l 1,39,-1
 278 105 l 1,40,-1
 262 100 l 1,41,-1
 220 100 l 1,42,-1
 205 94 l 1,43,-1
 194 84 l 1,44,-1
 178 79 l 1,45,-1
 52 79 l 1,46,-1
 37 84 l 1,47,-1
 32 99 l 1,48,-1
 32 561 l 1,49,-1
 37 577 l 1,50,-1
 52 583 l 1,51,-1
 68 577 l 1,52,-1
 74 561 l 1,53,-1
 74 330 l 1,54,-1
 79 315 l 1,55,-1
 89 315 l 1,56,-1
 100 325 l 1,57,-1
 115 331 l 1,58,-1
 131 336 l 1,59,-1
 142 346 l 1,60,-1
 157 352 l 1,61,-1
 262 352 l 1,62,-1
 278 346 l 1,63,-1
 289 336 l 1,64,-1
 299 325 l 1,65,-1
 310 315 l 1,66,-1
 320 304 l 1,67,-1
 326 288 l 1,68,-1
 331 273 l 1,69,-1
 341 262 l 1,70,-1
 347 246 l 1,71,-1
 347 183 l 1,72,-1
 341 168 l 1,73,-1
 331 157 l 1,35,-1
EndSplineSet
EndChar

StartChar: c
Encoding: 99 99 70
Width: 358
VWidth: 1124
GlyphClass: 2
Flags: W
LayerCount: 2
Fore
SplineSet
304 121 m 1,0,-1
 289 115 l 1,1,-1
 278 105 l 1,2,-1
 262 100 l 1,3,-1
 94 100 l 1,4,-1
 79 105 l 1,5,-1
 68 115 l 1,6,-1
 58 126 l 1,7,-1
 53 141 l 1,8,-1
 47 157 l 1,9,-1
 37 168 l 1,10,-1
 32 183 l 1,11,-1
 32 288 l 1,12,-1
 37 304 l 1,13,-1
 47 315 l 1,14,-1
 53 330 l 1,15,-1
 58 346 l 1,16,-1
 68 357 l 1,17,-1
 79 367 l 1,18,-1
 89 378 l 1,19,-1
 100 388 l 1,20,-1
 115 394 l 1,21,-1
 131 399 l 1,22,-1
 142 409 l 1,23,-1
 157 415 l 1,24,-1
 199 415 l 1,25,-1
 215 409 l 1,26,-1
 226 399 l 1,27,-1
 241 394 l 1,28,-1
 257 388 l 1,29,-1
 268 378 l 1,30,-1
 278 367 l 1,31,-1
 284 351 l 1,32,-1
 278 336 l 1,33,-1
 262 331 l 1,34,-1
 241 331 l 1,35,-1
 226 336 l 1,36,-1
 215 346 l 1,37,-1
 199 352 l 1,38,-1
 184 357 l 1,39,-1
 173 367 l 1,40,-1
 163 367 l 1,41,-1
 152 357 l 1,42,-1
 136 352 l 1,43,-1
 121 346 l 1,44,-1
 110 336 l 1,45,-1
 100 325 l 1,46,-1
 95 309 l 1,47,-1
 89 294 l 1,48,-1
 79 283 l 1,49,-1
 74 267 l 1,50,-1
 74 204 l 1,51,-1
 79 189 l 1,52,-1
 89 178 l 1,53,-1
 100 168 l 1,54,-1
 110 157 l 1,55,-1
 121 147 l 1,56,-1
 136 142 l 1,57,-1
 241 142 l 1,58,-1
 257 147 l 1,59,-1
 268 157 l 1,60,-1
 283 163 l 1,61,-1
 304 163 l 1,62,-1
 320 157 l 1,63,-1
 326 141 l 1,64,-1
 320 126 l 1,65,-1
 304 121 l 1,0,-1
EndSplineSet
EndChar

StartChar: d
Encoding: 100 100 71
Width: 442
VWidth: 1124
GlyphClass: 2
Flags: W
LayerCount: 2
Fore
SplineSet
320 304 m 1,0,-1
 310 315 l 1,1,-1
 299 325 l 1,2,-1
 289 336 l 1,3,-1
 278 346 l 1,4,-1
 262 352 l 1,5,-1
 199 352 l 1,6,-1
 184 346 l 1,7,-1
 173 336 l 1,8,-1
 157 331 l 1,9,-1
 142 325 l 1,10,-1
 131 315 l 1,11,-1
 121 304 l 1,12,-1
 110 294 l 1,13,-1
 100 283 l 1,14,-1
 95 267 l 1,15,-1
 89 252 l 1,16,-1
 79 241 l 1,17,-1
 79 231 l 1,18,-1
 89 220 l 1,19,-1
 100 210 l 1,20,-1
 110 199 l 1,21,-1
 121 189 l 1,22,-1
 136 184 l 1,23,-1
 152 178 l 1,24,-1
 163 168 l 1,25,-1
 178 163 l 1,26,-1
 241 163 l 1,27,-1
 257 168 l 1,28,-1
 263 183 l 1,29,-1
 268 199 l 1,30,-1
 278 210 l 1,31,-1
 289 220 l 1,32,-1
 299 231 l 1,33,-1
 305 246 l 1,34,-1
 305 267 l 1,35,-1
 310 283 l 1,36,-1
 320 294 l 1,37,-1
 320 304 l 1,0,-1
388 58 m 1,38,-1
 373 63 l 1,39,-1
 362 73 l 1,40,-1
 352 84 l 1,41,-1
 347 99 l 1,42,-1
 347 183 l 1,43,-1
 341 199 l 1,44,-1
 331 199 l 1,45,-1
 326 183 l 1,46,-1
 320 168 l 1,47,-1
 310 157 l 1,48,-1
 299 147 l 1,49,-1
 289 136 l 1,50,-1
 278 126 l 1,51,-1
 262 121 l 1,52,-1
 157 121 l 1,53,-1
 142 126 l 1,54,-1
 131 136 l 1,55,-1
 115 142 l 1,56,-1
 100 147 l 1,57,-1
 89 157 l 1,58,-1
 73 163 l 1,59,-1
 58 168 l 1,60,-1
 47 178 l 1,61,-1
 37 189 l 1,62,-1
 32 204 l 1,63,-1
 32 267 l 1,64,-1
 37 283 l 1,65,-1
 47 294 l 1,66,-1
 58 304 l 1,67,-1
 68 315 l 1,68,-1
 79 325 l 1,69,-1
 89 336 l 1,70,-1
 95 351 l 1,71,-1
 100 367 l 1,72,-1
 115 373 l 1,73,-1
 131 378 l 1,74,-1
 142 388 l 1,75,-1
 157 394 l 1,76,-1
 283 394 l 1,77,-1
 299 388 l 1,78,-1
 310 378 l 1,79,-1
 320 378 l 1,80,-1
 326 393 l 1,81,-1
 326 435 l 1,82,-1
 320 451 l 1,83,-1
 310 462 l 1,84,-1
 305 477 l 1,85,-1
 305 582 l 1,86,-1
 310 598 l 1,87,-1
 325 604 l 1,88,-1
 341 598 l 1,89,-1
 347 582 l 1,90,-1
 352 567 l 1,91,-1
 362 556 l 1,92,-1
 368 540 l 1,93,-1
 368 477 l 1,94,-1
 373 462 l 1,95,-1
 383 451 l 1,96,-1
 389 435 l 1,97,-1
 389 141 l 1,98,-1
 394 126 l 1,99,-1
 404 115 l 1,100,-1
 410 99 l 1,101,-1
 410 78 l 1,102,-1
 404 63 l 1,103,-1
 388 58 l 1,38,-1
EndSplineSet
EndChar

StartChar: e
Encoding: 101 101 72
Width: 379
VWidth: 1124
GlyphClass: 2
Flags: W
LayerCount: 2
Fore
SplineSet
257 325 m 1,0,-1
 247 336 l 1,1,-1
 236 346 l 1,2,-1
 220 352 l 1,3,-1
 205 357 l 1,4,-1
 194 367 l 1,5,-1
 178 373 l 1,6,-1
 163 367 l 1,7,-1
 152 357 l 1,8,-1
 136 352 l 1,9,-1
 121 346 l 1,10,-1
 110 336 l 1,11,-1
 100 325 l 1,12,-1
 100 315 l 1,13,-1
 115 310 l 1,14,-1
 241 310 l 1,15,-1
 257 315 l 1,16,-1
 257 325 l 1,0,-1
325 121 m 1,17,-1
 304 121 l 1,18,-1
 289 115 l 1,19,-1
 278 105 l 1,20,-1
 262 100 l 1,21,-1
 115 100 l 1,22,-1
 100 105 l 1,23,-1
 89 115 l 1,24,-1
 73 121 l 1,25,-1
 58 126 l 1,26,-1
 47 136 l 1,27,-1
 37 147 l 1,28,-1
 32 162 l 1,29,-1
 32 288 l 1,30,-1
 37 304 l 1,31,-1
 47 315 l 1,32,-1
 53 330 l 1,33,-1
 58 346 l 1,34,-1
 68 357 l 1,35,-1
 79 367 l 1,36,-1
 89 378 l 1,37,-1
 100 388 l 1,38,-1
 115 394 l 1,39,-1
 131 399 l 1,40,-1
 142 409 l 1,41,-1
 157 415 l 1,42,-1
 220 415 l 1,43,-1
 236 409 l 1,44,-1
 247 399 l 1,45,-1
 262 394 l 1,46,-1
 278 388 l 1,47,-1
 289 378 l 1,48,-1
 299 367 l 1,49,-1
 310 357 l 1,50,-1
 320 346 l 1,51,-1
 326 330 l 1,52,-1
 326 288 l 1,53,-1
 320 273 l 1,54,-1
 304 268 l 1,55,-1
 157 268 l 1,56,-1
 142 262 l 1,57,-1
 131 252 l 1,58,-1
 115 247 l 1,59,-1
 94 247 l 1,60,-1
 79 241 l 1,61,-1
 74 225 l 1,62,-1
 74 204 l 1,63,-1
 79 189 l 1,64,-1
 89 178 l 1,65,-1
 100 168 l 1,66,-1
 110 157 l 1,67,-1
 121 147 l 1,68,-1
 136 142 l 1,69,-1
 220 142 l 1,70,-1
 236 147 l 1,71,-1
 247 157 l 1,72,-1
 262 163 l 1,73,-1
 283 163 l 1,74,-1
 299 168 l 1,75,-1
 310 178 l 1,76,-1
 325 184 l 1,77,-1
 341 178 l 1,78,-1
 347 162 l 1,79,-1
 347 141 l 1,80,-1
 341 126 l 1,81,-1
 325 121 l 1,17,-1
EndSplineSet
EndChar

StartChar: f
Encoding: 102 102 73
Width: 400
VWidth: 1124
GlyphClass: 2
Flags: W
LayerCount: 2
Fore
SplineSet
346 457 m 1,0,-1
 331 462 l 1,1,-1
 320 472 l 1,2,-1
 310 483 l 1,3,-1
 299 493 l 1,4,-1
 289 504 l 1,5,-1
 278 514 l 1,6,-1
 268 525 l 1,7,-1
 257 535 l 1,8,-1
 241 541 l 1,9,-1
 226 535 l 1,10,-1
 215 525 l 1,11,-1
 205 514 l 1,12,-1
 200 498 l 1,13,-1
 194 483 l 1,14,-1
 184 472 l 1,15,-1
 179 456 l 1,16,-1
 179 330 l 1,17,-1
 184 315 l 1,18,-1
 199 310 l 1,19,-1
 325 310 l 1,20,-1
 341 304 l 1,21,-1
 347 288 l 1,22,-1
 341 273 l 1,23,-1
 325 268 l 1,24,-1
 199 268 l 1,25,-1
 184 262 l 1,26,-1
 179 246 l 1,27,-1
 179 204 l 1,28,-1
 184 189 l 1,29,-1
 194 178 l 1,30,-1
 200 162 l 1,31,-1
 200 99 l 1,32,-1
 194 84 l 1,33,-1
 178 79 l 1,34,-1
 163 84 l 1,35,-1
 158 99 l 1,36,-1
 158 141 l 1,37,-1
 152 157 l 1,38,-1
 142 168 l 1,39,-1
 137 183 l 1,40,-1
 137 246 l 1,41,-1
 131 262 l 1,42,-1
 115 268 l 1,43,-1
 94 268 l 1,44,-1
 79 262 l 1,45,-1
 68 252 l 1,46,-1
 52 247 l 1,47,-1
 37 252 l 1,48,-1
 32 267 l 1,49,-1
 37 283 l 1,50,-1
 47 294 l 1,51,-1
 58 304 l 1,52,-1
 73 310 l 1,53,-1
 115 310 l 1,54,-1
 131 315 l 1,55,-1
 137 330 l 1,56,-1
 137 477 l 1,57,-1
 142 493 l 1,58,-1
 152 504 l 1,59,-1
 158 519 l 1,60,-1
 158 540 l 1,61,-1
 163 556 l 1,62,-1
 173 567 l 1,63,-1
 184 577 l 1,64,-1
 199 583 l 1,65,-1
 262 583 l 1,66,-1
 278 577 l 1,67,-1
 289 567 l 1,68,-1
 304 562 l 1,69,-1
 320 556 l 1,70,-1
 331 546 l 1,71,-1
 341 535 l 1,72,-1
 352 525 l 1,73,-1
 362 514 l 1,74,-1
 368 498 l 1,75,-1
 368 477 l 1,76,-1
 362 462 l 1,77,-1
 346 457 l 1,0,-1
EndSplineSet
EndChar

StartChar: g
Encoding: 103 103 74
Width: 400
VWidth: 1124
GlyphClass: 2
Flags: W
LayerCount: 2
Fore
SplineSet
284 267 m 1,0,-1
 284 309 l 1,1,-1
 278 325 l 1,2,-1
 268 336 l 1,3,-1
 257 346 l 1,4,-1
 247 357 l 1,5,-1
 236 367 l 1,6,-1
 220 373 l 1,7,-1
 157 373 l 1,8,-1
 142 367 l 1,9,-1
 131 357 l 1,10,-1
 121 346 l 1,11,-1
 110 336 l 1,12,-1
 100 325 l 1,13,-1
 95 309 l 1,14,-1
 89 294 l 1,15,-1
 79 283 l 1,16,-1
 74 267 l 1,17,-1
 74 225 l 1,18,-1
 79 210 l 1,19,-1
 89 199 l 1,20,-1
 100 189 l 1,21,-1
 115 184 l 1,22,-1
 199 184 l 1,23,-1
 215 189 l 1,24,-1
 226 199 l 1,25,-1
 241 205 l 1,26,-1
 257 210 l 1,27,-1
 263 225 l 1,28,-1
 268 241 l 1,29,-1
 278 252 l 1,30,-1
 284 267 l 1,0,-1
352 -32 m 1,31,-1
 347 -48 l 1,32,-1
 341 -63 l 1,33,-1
 331 -74 l 1,34,-1
 320 -84 l 1,35,-1
 304 -89 l 1,36,-1
 289 -95 l 1,37,-1
 278 -105 l 1,38,-1
 262 -110 l 1,39,-1
 136 -110 l 1,40,-1
 121 -105 l 1,41,-1
 110 -95 l 1,42,-1
 100 -84 l 1,43,-1
 89 -74 l 1,44,-1
 79 -63 l 1,45,-1
 68 -53 l 1,46,-1
 58 -42 l 1,47,-1
 53 -27 l 1,48,-1
 58 -11 l 1,49,-1
 68 0 l 1,50,-1
 79 10 l 1,51,-1
 94 16 l 1,52,-1
 110 10 l 1,53,-1
 116 -6 l 1,54,-1
 116 -27 l 1,55,-1
 121 -42 l 1,56,-1
 131 -53 l 1,57,-1
 142 -63 l 1,58,-1
 157 -68 l 1,59,-1
 220 -68 l 1,60,-1
 236 -63 l 1,61,-1
 247 -53 l 1,62,-1
 262 -47 l 1,63,-1
 278 -42 l 1,64,-1
 289 -32 l 1,65,-1
 299 -21 l 1,66,-1
 310 -11 l 1,67,-1
 320 0 l 1,68,-1
 326 15 l 1,69,-1
 326 183 l 1,70,-1
 320 199 l 1,71,-1
 310 199 l 1,72,-1
 299 189 l 1,73,-1
 289 178 l 1,74,-1
 278 168 l 1,75,-1
 268 157 l 1,76,-1
 257 147 l 1,77,-1
 241 142 l 1,78,-1
 94 142 l 1,79,-1
 79 147 l 1,80,-1
 68 157 l 1,81,-1
 52 163 l 1,82,-1
 37 168 l 1,83,-1
 32 183 l 1,84,-1
 32 309 l 1,85,-1
 37 325 l 1,86,-1
 47 336 l 1,87,-1
 53 351 l 1,88,-1
 58 367 l 1,89,-1
 68 378 l 1,90,-1
 79 388 l 1,91,-1
 89 399 l 1,92,-1
 100 409 l 1,93,-1
 115 415 l 1,94,-1
 262 415 l 1,95,-1
 278 409 l 1,96,-1
 289 399 l 1,97,-1
 299 388 l 1,98,-1
 305 372 l 1,99,-1
 310 357 l 1,100,-1
 320 346 l 1,101,-1
 326 330 l 1,102,-1
 326 309 l 1,103,-1
 331 294 l 1,104,-1
 341 283 l 1,105,-1
 347 267 l 1,106,-1
 347 246 l 1,107,-1
 352 231 l 1,108,-1
 362 220 l 1,109,-1
 368 204 l 1,110,-1
 368 -6 l 1,111,-1
 362 -21 l 1,112,-1
 352 -32 l 1,31,-1
EndSplineSet
EndChar

StartChar: h
Encoding: 104 104 75
Width: 337
VWidth: 1124
GlyphClass: 2
Flags: W
LayerCount: 2
Fore
SplineSet
283 100 m 1,0,-1
 268 105 l 1,1,-1
 263 120 l 1,2,-1
 263 267 l 1,3,-1
 257 283 l 1,4,-1
 247 294 l 1,5,-1
 242 309 l 1,6,-1
 236 325 l 1,7,-1
 220 331 l 1,8,-1
 157 331 l 1,9,-1
 142 325 l 1,10,-1
 131 315 l 1,11,-1
 121 304 l 1,12,-1
 110 294 l 1,13,-1
 100 283 l 1,14,-1
 95 267 l 1,15,-1
 89 252 l 1,16,-1
 79 241 l 1,17,-1
 74 225 l 1,18,-1
 74 141 l 1,19,-1
 68 126 l 1,20,-1
 52 121 l 1,21,-1
 37 126 l 1,22,-1
 32 141 l 1,23,-1
 32 582 l 1,24,-1
 37 598 l 1,25,-1
 52 604 l 1,26,-1
 68 598 l 1,27,-1
 74 582 l 1,28,-1
 74 372 l 1,29,-1
 79 357 l 1,30,-1
 94 352 l 1,31,-1
 110 357 l 1,32,-1
 121 367 l 1,33,-1
 136 373 l 1,34,-1
 241 373 l 1,35,-1
 257 367 l 1,36,-1
 268 357 l 1,37,-1
 278 346 l 1,38,-1
 284 330 l 1,39,-1
 289 315 l 1,40,-1
 299 304 l 1,41,-1
 305 288 l 1,42,-1
 305 120 l 1,43,-1
 299 105 l 1,44,-1
 283 100 l 1,0,-1
EndSplineSet
EndChar

StartChar: i
Encoding: 105 105 76
Width: 148
VWidth: 1124
GlyphClass: 2
Flags: W
LayerCount: 2
Fore
SplineSet
52 436 m 1,0,-1
 37 441 l 1,1,-1
 32 456 l 1,2,-1
 37 472 l 1,3,-1
 52 478 l 1,4,-1
 68 472 l 1,5,-1
 74 456 l 1,6,-1
 68 441 l 1,7,-1
 52 436 l 1,0,-1
100 283 m 1,8,-1
 95 267 l 1,9,-1
 95 99 l 1,10,-1
 89 84 l 1,11,-1
 73 79 l 1,12,-1
 58 84 l 1,13,-1
 53 99 l 1,14,-1
 53 309 l 1,15,-1
 58 325 l 1,16,-1
 68 336 l 1,17,-1
 79 346 l 1,18,-1
 94 352 l 1,19,-1
 110 346 l 1,20,-1
 116 330 l 1,21,-1
 116 309 l 1,22,-1
 110 294 l 1,23,-1
 100 283 l 1,8,-1
EndSplineSet
EndChar

StartChar: j
Encoding: 106 106 77
Width: 253
VWidth: 1124
GlyphClass: 2
Flags: W
LayerCount: 2
Fore
SplineSet
115 499 m 1,0,-1
 94 499 l 1,1,-1
 79 504 l 1,2,-1
 74 519 l 1,3,-1
 74 540 l 1,4,-1
 79 556 l 1,5,-1
 94 562 l 1,6,-1
 115 562 l 1,7,-1
 131 556 l 1,8,-1
 137 540 l 1,9,-1
 137 519 l 1,10,-1
 131 504 l 1,11,-1
 115 499 l 1,0,-1
199 -89 m 1,12,-1
 94 -89 l 1,13,-1
 79 -84 l 1,14,-1
 68 -74 l 1,15,-1
 58 -63 l 1,16,-1
 53 -48 l 1,17,-1
 47 -32 l 1,18,-1
 37 -21 l 1,19,-1
 32 -6 l 1,20,-1
 32 36 l 1,21,-1
 37 52 l 1,22,-1
 52 58 l 1,23,-1
 68 52 l 1,24,-1
 74 36 l 1,25,-1
 79 21 l 1,26,-1
 89 10 l 1,27,-1
 95 -6 l 1,28,-1
 100 -21 l 1,29,-1
 110 -32 l 1,30,-1
 121 -42 l 1,31,-1
 136 -47 l 1,32,-1
 157 -47 l 1,33,-1
 173 -42 l 1,34,-1
 179 -27 l 1,35,-1
 179 99 l 1,36,-1
 173 115 l 1,37,-1
 163 126 l 1,38,-1
 158 141 l 1,39,-1
 158 204 l 1,40,-1
 152 220 l 1,41,-1
 142 231 l 1,42,-1
 137 246 l 1,43,-1
 137 288 l 1,44,-1
 131 304 l 1,45,-1
 121 315 l 1,46,-1
 116 330 l 1,47,-1
 116 393 l 1,48,-1
 121 409 l 1,49,-1
 136 415 l 1,50,-1
 152 409 l 1,51,-1
 158 393 l 1,52,-1
 158 351 l 1,53,-1
 163 336 l 1,54,-1
 173 325 l 1,55,-1
 179 309 l 1,56,-1
 179 267 l 1,57,-1
 184 252 l 1,58,-1
 194 241 l 1,59,-1
 200 225 l 1,60,-1
 200 162 l 1,61,-1
 205 147 l 1,62,-1
 215 136 l 1,63,-1
 221 120 l 1,64,-1
 221 -69 l 1,65,-1
 215 -84 l 1,66,-1
 199 -89 l 1,12,-1
EndSplineSet
EndChar

StartChar: k
Encoding: 107 107 78
Width: 379
VWidth: 1124
GlyphClass: 2
Flags: W
LayerCount: 2
Fore
SplineSet
325 121 m 1,0,-1
 310 126 l 1,1,-1
 299 136 l 1,2,-1
 289 147 l 1,3,-1
 278 157 l 1,4,-1
 262 163 l 1,5,-1
 247 168 l 1,6,-1
 236 178 l 1,7,-1
 220 184 l 1,8,-1
 205 189 l 1,9,-1
 194 199 l 1,10,-1
 178 205 l 1,11,-1
 157 205 l 1,12,-1
 142 210 l 1,13,-1
 131 220 l 1,14,-1
 115 226 l 1,15,-1
 94 226 l 1,16,-1
 79 220 l 1,17,-1
 74 204 l 1,18,-1
 74 120 l 1,19,-1
 68 105 l 1,20,-1
 52 100 l 1,21,-1
 37 105 l 1,22,-1
 32 120 l 1,23,-1
 32 561 l 1,24,-1
 37 577 l 1,25,-1
 52 583 l 1,26,-1
 68 577 l 1,27,-1
 74 561 l 1,28,-1
 74 330 l 1,29,-1
 79 315 l 1,30,-1
 89 315 l 1,31,-1
 100 325 l 1,32,-1
 115 331 l 1,33,-1
 131 336 l 1,34,-1
 142 346 l 1,35,-1
 157 352 l 1,36,-1
 173 357 l 1,37,-1
 184 367 l 1,38,-1
 194 378 l 1,39,-1
 205 388 l 1,40,-1
 215 399 l 1,41,-1
 226 409 l 1,42,-1
 236 420 l 1,43,-1
 247 430 l 1,44,-1
 262 436 l 1,45,-1
 278 430 l 1,46,-1
 284 414 l 1,47,-1
 284 393 l 1,48,-1
 278 378 l 1,49,-1
 268 367 l 1,50,-1
 257 357 l 1,51,-1
 241 352 l 1,52,-1
 226 346 l 1,53,-1
 215 336 l 1,54,-1
 205 325 l 1,55,-1
 194 315 l 1,56,-1
 178 310 l 1,57,-1
 163 304 l 1,58,-1
 152 294 l 1,59,-1
 142 283 l 1,60,-1
 142 273 l 1,61,-1
 152 262 l 1,62,-1
 163 252 l 1,63,-1
 178 247 l 1,64,-1
 199 247 l 1,65,-1
 215 241 l 1,66,-1
 226 231 l 1,67,-1
 241 226 l 1,68,-1
 257 220 l 1,69,-1
 268 210 l 1,70,-1
 283 205 l 1,71,-1
 299 199 l 1,72,-1
 310 189 l 1,73,-1
 325 184 l 1,74,-1
 341 178 l 1,75,-1
 347 162 l 1,76,-1
 347 141 l 1,77,-1
 341 126 l 1,78,-1
 325 121 l 1,0,-1
EndSplineSet
EndChar

StartChar: l
Encoding: 108 108 79
Width: 127
VWidth: 1124
GlyphClass: 2
Flags: W
LayerCount: 2
Fore
SplineSet
79 367 m 1,0,-1
 74 351 l 1,1,-1
 74 162 l 1,2,-1
 68 147 l 1,3,-1
 52 142 l 1,4,-1
 37 147 l 1,5,-1
 32 162 l 1,6,-1
 32 372 l 1,7,-1
 37 388 l 1,8,-1
 47 399 l 1,9,-1
 53 414 l 1,10,-1
 53 603 l 1,11,-1
 58 619 l 1,12,-1
 73 625 l 1,13,-1
 89 619 l 1,14,-1
 95 603 l 1,15,-1
 95 393 l 1,16,-1
 89 378 l 1,17,-1
 79 367 l 1,0,-1
EndSplineSet
EndChar

StartChar: m
Encoding: 109 109 80
Width: 505
VWidth: 1124
GlyphClass: 2
Flags: W
LayerCount: 2
Fore
SplineSet
451 100 m 1,0,-1
 430 100 l 1,1,-1
 415 105 l 1,2,-1
 410 120 l 1,3,-1
 410 267 l 1,4,-1
 404 283 l 1,5,-1
 394 294 l 1,6,-1
 383 304 l 1,7,-1
 373 315 l 1,8,-1
 362 325 l 1,9,-1
 352 325 l 1,10,-1
 341 315 l 1,11,-1
 325 310 l 1,12,-1
 310 304 l 1,13,-1
 299 294 l 1,14,-1
 289 283 l 1,15,-1
 278 273 l 1,16,-1
 268 262 l 1,17,-1
 263 246 l 1,18,-1
 263 141 l 1,19,-1
 257 126 l 1,20,-1
 241 121 l 1,21,-1
 226 126 l 1,22,-1
 221 141 l 1,23,-1
 221 288 l 1,24,-1
 215 304 l 1,25,-1
 205 315 l 1,26,-1
 194 325 l 1,27,-1
 178 331 l 1,28,-1
 157 331 l 1,29,-1
 142 325 l 1,30,-1
 131 315 l 1,31,-1
 121 304 l 1,32,-1
 110 294 l 1,33,-1
 100 283 l 1,34,-1
 89 273 l 1,35,-1
 79 262 l 1,36,-1
 74 246 l 1,37,-1
 74 141 l 1,38,-1
 68 126 l 1,39,-1
 52 121 l 1,40,-1
 37 126 l 1,41,-1
 32 141 l 1,42,-1
 32 372 l 1,43,-1
 37 388 l 1,44,-1
 52 394 l 1,45,-1
 68 388 l 1,46,-1
 74 372 l 1,47,-1
 79 357 l 1,48,-1
 94 352 l 1,49,-1
 110 357 l 1,50,-1
 121 367 l 1,51,-1
 136 373 l 1,52,-1
 220 373 l 1,53,-1
 236 367 l 1,54,-1
 247 357 l 1,55,-1
 262 352 l 1,56,-1
 304 352 l 1,57,-1
 320 357 l 1,58,-1
 331 367 l 1,59,-1
 346 373 l 1,60,-1
 388 373 l 1,61,-1
 404 367 l 1,62,-1
 410 351 l 1,63,-1
 415 336 l 1,64,-1
 425 325 l 1,65,-1
 436 315 l 1,66,-1
 446 304 l 1,67,-1
 452 288 l 1,68,-1
 452 162 l 1,69,-1
 457 147 l 1,70,-1
 467 136 l 1,71,-1
 473 120 l 1,72,-1
 467 105 l 1,73,-1
 451 100 l 1,0,-1
EndSplineSet
EndChar

StartChar: n
Encoding: 110 110 81
Width: 358
VWidth: 1124
GlyphClass: 2
Flags: W
LayerCount: 2
Fore
SplineSet
310 115 m 1,0,-1
 305 99 l 1,1,-1
 299 84 l 1,2,-1
 283 79 l 1,3,-1
 268 84 l 1,4,-1
 263 99 l 1,5,-1
 263 141 l 1,6,-1
 268 157 l 1,7,-1
 278 168 l 1,8,-1
 284 183 l 1,9,-1
 284 267 l 1,10,-1
 278 283 l 1,11,-1
 268 294 l 1,12,-1
 257 304 l 1,13,-1
 247 315 l 1,14,-1
 236 325 l 1,15,-1
 220 331 l 1,16,-1
 205 325 l 1,17,-1
 194 315 l 1,18,-1
 178 310 l 1,19,-1
 163 304 l 1,20,-1
 152 294 l 1,21,-1
 136 289 l 1,22,-1
 121 283 l 1,23,-1
 110 273 l 1,24,-1
 100 262 l 1,25,-1
 95 246 l 1,26,-1
 89 231 l 1,27,-1
 79 220 l 1,28,-1
 74 204 l 1,29,-1
 74 120 l 1,30,-1
 68 105 l 1,31,-1
 52 100 l 1,32,-1
 37 105 l 1,33,-1
 32 120 l 1,34,-1
 32 351 l 1,35,-1
 37 367 l 1,36,-1
 52 373 l 1,37,-1
 68 367 l 1,38,-1
 74 351 l 1,39,-1
 74 330 l 1,40,-1
 79 315 l 1,41,-1
 89 315 l 1,42,-1
 100 325 l 1,43,-1
 110 336 l 1,44,-1
 121 346 l 1,45,-1
 136 352 l 1,46,-1
 157 352 l 1,47,-1
 173 357 l 1,48,-1
 184 367 l 1,49,-1
 199 373 l 1,50,-1
 262 373 l 1,51,-1
 278 367 l 1,52,-1
 289 357 l 1,53,-1
 299 346 l 1,54,-1
 305 330 l 1,55,-1
 310 315 l 1,56,-1
 320 304 l 1,57,-1
 326 288 l 1,58,-1
 326 141 l 1,59,-1
 320 126 l 1,60,-1
 310 115 l 1,0,-1
EndSplineSet
EndChar

StartChar: o
Encoding: 111 111 82
Width: 379
VWidth: 1124
GlyphClass: 2
Flags: W
LayerCount: 2
Fore
SplineSet
305 225 m 1,0,-1
 305 309 l 1,1,-1
 299 325 l 1,2,-1
 289 336 l 1,3,-1
 278 346 l 1,4,-1
 262 352 l 1,5,-1
 247 357 l 1,6,-1
 236 367 l 1,7,-1
 220 373 l 1,8,-1
 178 373 l 1,9,-1
 163 367 l 1,10,-1
 152 357 l 1,11,-1
 136 352 l 1,12,-1
 121 346 l 1,13,-1
 110 336 l 1,14,-1
 100 325 l 1,15,-1
 95 309 l 1,16,-1
 95 288 l 1,17,-1
 89 273 l 1,18,-1
 79 262 l 1,19,-1
 74 246 l 1,20,-1
 79 231 l 1,21,-1
 89 220 l 1,22,-1
 95 204 l 1,23,-1
 100 189 l 1,24,-1
 110 178 l 1,25,-1
 121 168 l 1,26,-1
 136 163 l 1,27,-1
 152 157 l 1,28,-1
 163 147 l 1,29,-1
 178 142 l 1,30,-1
 220 142 l 1,31,-1
 236 147 l 1,32,-1
 247 157 l 1,33,-1
 262 163 l 1,34,-1
 278 168 l 1,35,-1
 284 183 l 1,36,-1
 289 199 l 1,37,-1
 299 210 l 1,38,-1
 305 225 l 1,0,-1
331 157 m 1,39,-1
 320 147 l 1,40,-1
 310 136 l 1,41,-1
 299 126 l 1,42,-1
 289 115 l 1,43,-1
 278 105 l 1,44,-1
 262 100 l 1,45,-1
 157 100 l 1,46,-1
 142 105 l 1,47,-1
 131 115 l 1,48,-1
 115 121 l 1,49,-1
 100 126 l 1,50,-1
 89 136 l 1,51,-1
 79 147 l 1,52,-1
 68 157 l 1,53,-1
 58 168 l 1,54,-1
 47 178 l 1,55,-1
 37 189 l 1,56,-1
 32 204 l 1,57,-1
 32 288 l 1,58,-1
 37 304 l 1,59,-1
 47 315 l 1,60,-1
 53 330 l 1,61,-1
 58 346 l 1,62,-1
 68 357 l 1,63,-1
 79 367 l 1,64,-1
 89 378 l 1,65,-1
 100 388 l 1,66,-1
 110 399 l 1,67,-1
 121 409 l 1,68,-1
 136 415 l 1,69,-1
 262 415 l 1,70,-1
 278 409 l 1,71,-1
 289 399 l 1,72,-1
 299 388 l 1,73,-1
 310 378 l 1,74,-1
 320 367 l 1,75,-1
 331 357 l 1,76,-1
 341 346 l 1,77,-1
 347 330 l 1,78,-1
 347 183 l 1,79,-1
 341 168 l 1,80,-1
 331 157 l 1,39,-1
EndSplineSet
EndChar

StartChar: p
Encoding: 112 112 83
Width: 379
VWidth: 1124
GlyphClass: 2
Flags: W
LayerCount: 2
Fore
SplineSet
305 204 m 1,0,-1
 305 246 l 1,1,-1
 299 262 l 1,2,-1
 289 273 l 1,3,-1
 284 288 l 1,4,-1
 278 304 l 1,5,-1
 262 310 l 1,6,-1
 247 315 l 1,7,-1
 236 325 l 1,8,-1
 220 331 l 1,9,-1
 136 331 l 1,10,-1
 121 325 l 1,11,-1
 110 315 l 1,12,-1
 94 310 l 1,13,-1
 79 304 l 1,14,-1
 74 288 l 1,15,-1
 74 162 l 1,16,-1
 79 147 l 1,17,-1
 94 142 l 1,18,-1
 220 142 l 1,19,-1
 236 147 l 1,20,-1
 247 157 l 1,21,-1
 262 163 l 1,22,-1
 278 168 l 1,23,-1
 289 178 l 1,24,-1
 299 189 l 1,25,-1
 305 204 l 1,0,-1
331 157 m 1,26,-1
 320 147 l 1,27,-1
 310 136 l 1,28,-1
 299 126 l 1,29,-1
 289 115 l 1,30,-1
 278 105 l 1,31,-1
 262 100 l 1,32,-1
 94 100 l 1,33,-1
 79 94 l 1,34,-1
 74 78 l 1,35,-1
 74 -111 l 1,36,-1
 68 -126 l 1,37,-1
 52 -131 l 1,38,-1
 37 -126 l 1,39,-1
 32 -111 l 1,40,-1
 32 330 l 1,41,-1
 37 346 l 1,42,-1
 47 357 l 1,43,-1
 58 367 l 1,44,-1
 73 373 l 1,45,-1
 262 373 l 1,46,-1
 278 367 l 1,47,-1
 289 357 l 1,48,-1
 299 346 l 1,49,-1
 310 336 l 1,50,-1
 320 325 l 1,51,-1
 326 309 l 1,52,-1
 331 294 l 1,53,-1
 341 283 l 1,54,-1
 347 267 l 1,55,-1
 347 183 l 1,56,-1
 341 168 l 1,57,-1
 331 157 l 1,26,-1
EndSplineSet
EndChar

StartChar: q
Encoding: 113 113 84
Width: 400
VWidth: 1124
GlyphClass: 2
Flags: W
LayerCount: 2
Fore
SplineSet
263 246 m 1,0,-1
 263 288 l 1,1,-1
 257 304 l 1,2,-1
 247 315 l 1,3,-1
 242 330 l 1,4,-1
 236 346 l 1,5,-1
 220 352 l 1,6,-1
 178 352 l 1,7,-1
 163 346 l 1,8,-1
 152 336 l 1,9,-1
 142 325 l 1,10,-1
 131 315 l 1,11,-1
 121 304 l 1,12,-1
 110 294 l 1,13,-1
 100 283 l 1,14,-1
 89 273 l 1,15,-1
 79 262 l 1,16,-1
 74 246 l 1,17,-1
 74 225 l 1,18,-1
 79 210 l 1,19,-1
 89 199 l 1,20,-1
 100 189 l 1,21,-1
 110 178 l 1,22,-1
 121 168 l 1,23,-1
 136 163 l 1,24,-1
 152 157 l 1,25,-1
 163 147 l 1,26,-1
 178 142 l 1,27,-1
 194 147 l 1,28,-1
 205 157 l 1,29,-1
 215 168 l 1,30,-1
 226 178 l 1,31,-1
 236 189 l 1,32,-1
 242 204 l 1,33,-1
 247 220 l 1,34,-1
 257 231 l 1,35,-1
 263 246 l 1,0,-1
352 -53 m 1,36,-1
 341 -63 l 1,37,-1
 331 -74 l 1,38,-1
 326 -90 l 1,39,-1
 320 -105 l 1,40,-1
 304 -110 l 1,41,-1
 289 -105 l 1,42,-1
 284 -90 l 1,43,-1
 278 -74 l 1,44,-1
 268 -63 l 1,45,-1
 263 -48 l 1,46,-1
 263 120 l 1,47,-1
 257 136 l 1,48,-1
 247 136 l 1,49,-1
 236 126 l 1,50,-1
 226 115 l 1,51,-1
 215 105 l 1,52,-1
 199 100 l 1,53,-1
 136 100 l 1,54,-1
 121 105 l 1,55,-1
 110 115 l 1,56,-1
 94 121 l 1,57,-1
 79 126 l 1,58,-1
 68 136 l 1,59,-1
 58 147 l 1,60,-1
 47 157 l 1,61,-1
 37 168 l 1,62,-1
 32 183 l 1,63,-1
 32 267 l 1,64,-1
 37 283 l 1,65,-1
 47 294 l 1,66,-1
 53 309 l 1,67,-1
 58 325 l 1,68,-1
 68 336 l 1,69,-1
 79 346 l 1,70,-1
 94 352 l 1,71,-1
 110 357 l 1,72,-1
 121 367 l 1,73,-1
 131 378 l 1,74,-1
 142 388 l 1,75,-1
 157 394 l 1,76,-1
 241 394 l 1,77,-1
 257 388 l 1,78,-1
 268 378 l 1,79,-1
 283 373 l 1,80,-1
 299 367 l 1,81,-1
 305 351 l 1,82,-1
 310 336 l 1,83,-1
 320 325 l 1,84,-1
 326 309 l 1,85,-1
 326 267 l 1,86,-1
 320 252 l 1,87,-1
 310 241 l 1,88,-1
 305 225 l 1,89,-1
 305 15 l 1,90,-1
 310 0 l 1,91,-1
 325 -5 l 1,92,-1
 346 -5 l 1,93,-1
 362 -11 l 1,94,-1
 368 -27 l 1,95,-1
 362 -42 l 1,96,-1
 352 -53 l 1,36,-1
EndSplineSet
EndChar

StartChar: r
Encoding: 114 114 85
Width: 316
VWidth: 1124
GlyphClass: 2
Flags: W
LayerCount: 2
Fore
SplineSet
89 367 m 1,0,-1
 79 367 l 1,1,-1
 79 357 l 1,2,-1
 89 357 l 1,3,-1
 89 367 l 1,0,-1
262 331 m 1,4,-1
 247 336 l 1,5,-1
 236 346 l 1,6,-1
 220 352 l 1,7,-1
 178 352 l 1,8,-1
 163 346 l 1,9,-1
 152 336 l 1,10,-1
 142 325 l 1,11,-1
 131 315 l 1,12,-1
 121 304 l 1,13,-1
 110 294 l 1,14,-1
 100 283 l 1,15,-1
 95 267 l 1,16,-1
 95 120 l 1,17,-1
 89 105 l 1,18,-1
 73 100 l 1,19,-1
 58 105 l 1,20,-1
 53 120 l 1,21,-1
 53 183 l 1,22,-1
 47 199 l 1,23,-1
 37 210 l 1,24,-1
 32 225 l 1,25,-1
 32 393 l 1,26,-1
 37 409 l 1,27,-1
 52 415 l 1,28,-1
 73 415 l 1,29,-1
 89 409 l 1,30,-1
 95 393 l 1,31,-1
 100 378 l 1,32,-1
 115 373 l 1,33,-1
 131 378 l 1,34,-1
 142 388 l 1,35,-1
 157 394 l 1,36,-1
 241 394 l 1,37,-1
 257 388 l 1,38,-1
 268 378 l 1,39,-1
 278 367 l 1,40,-1
 284 351 l 1,41,-1
 278 336 l 1,42,-1
 262 331 l 1,4,-1
EndSplineSet
EndChar

StartChar: s
Encoding: 115 115 86
Width: 379
VWidth: 1124
GlyphClass: 2
Flags: W
LayerCount: 2
Fore
SplineSet
331 115 m 1,0,-1
 320 105 l 1,1,-1
 310 94 l 1,2,-1
 299 84 l 1,3,-1
 283 79 l 1,4,-1
 220 79 l 1,5,-1
 205 73 l 1,6,-1
 194 63 l 1,7,-1
 178 58 l 1,8,-1
 136 58 l 1,9,-1
 121 63 l 1,10,-1
 110 73 l 1,11,-1
 94 79 l 1,12,-1
 79 84 l 1,13,-1
 74 99 l 1,14,-1
 68 115 l 1,15,-1
 52 121 l 1,16,-1
 37 126 l 1,17,-1
 32 141 l 1,18,-1
 37 157 l 1,19,-1
 52 163 l 1,20,-1
 73 163 l 1,21,-1
 89 157 l 1,22,-1
 100 147 l 1,23,-1
 110 136 l 1,24,-1
 121 126 l 1,25,-1
 131 115 l 1,26,-1
 142 105 l 1,27,-1
 157 100 l 1,28,-1
 173 105 l 1,29,-1
 184 115 l 1,30,-1
 199 121 l 1,31,-1
 241 121 l 1,32,-1
 257 126 l 1,33,-1
 268 136 l 1,34,-1
 278 147 l 1,35,-1
 289 157 l 1,36,-1
 299 168 l 1,37,-1
 305 183 l 1,38,-1
 299 199 l 1,39,-1
 289 210 l 1,40,-1
 278 220 l 1,41,-1
 262 226 l 1,42,-1
 157 226 l 1,43,-1
 142 231 l 1,44,-1
 131 241 l 1,45,-1
 115 247 l 1,46,-1
 100 252 l 1,47,-1
 89 262 l 1,48,-1
 79 273 l 1,49,-1
 74 288 l 1,50,-1
 74 330 l 1,51,-1
 79 346 l 1,52,-1
 89 357 l 1,53,-1
 95 372 l 1,54,-1
 100 388 l 1,55,-1
 110 399 l 1,56,-1
 121 409 l 1,57,-1
 136 415 l 1,58,-1
 241 415 l 1,59,-1
 257 409 l 1,60,-1
 268 399 l 1,61,-1
 283 394 l 1,62,-1
 299 388 l 1,63,-1
 305 372 l 1,64,-1
 305 351 l 1,65,-1
 299 336 l 1,66,-1
 283 331 l 1,67,-1
 262 331 l 1,68,-1
 247 336 l 1,69,-1
 236 346 l 1,70,-1
 226 357 l 1,71,-1
 215 367 l 1,72,-1
 199 373 l 1,73,-1
 178 373 l 1,74,-1
 163 367 l 1,75,-1
 152 357 l 1,76,-1
 142 346 l 1,77,-1
 131 336 l 1,78,-1
 121 325 l 1,79,-1
 116 309 l 1,80,-1
 121 294 l 1,81,-1
 136 289 l 1,82,-1
 157 289 l 1,83,-1
 173 283 l 1,84,-1
 184 273 l 1,85,-1
 199 268 l 1,86,-1
 304 268 l 1,87,-1
 320 262 l 1,88,-1
 331 252 l 1,89,-1
 341 241 l 1,90,-1
 347 225 l 1,91,-1
 347 141 l 1,92,-1
 341 126 l 1,93,-1
 331 115 l 1,0,-1
EndSplineSet
EndChar

StartChar: t
Encoding: 116 116 87
Width: 337
VWidth: 1124
GlyphClass: 2
Flags: W
LayerCount: 2
Fore
SplineSet
283 100 m 1,0,-1
 268 94 l 1,1,-1
 257 84 l 1,2,-1
 241 79 l 1,3,-1
 199 79 l 1,4,-1
 184 84 l 1,5,-1
 173 94 l 1,6,-1
 157 100 l 1,7,-1
 142 105 l 1,8,-1
 131 115 l 1,9,-1
 121 126 l 1,10,-1
 116 141 l 1,11,-1
 116 288 l 1,12,-1
 110 304 l 1,13,-1
 94 310 l 1,14,-1
 52 310 l 1,15,-1
 37 315 l 1,16,-1
 32 330 l 1,17,-1
 37 346 l 1,18,-1
 52 352 l 1,19,-1
 94 352 l 1,20,-1
 110 357 l 1,21,-1
 116 372 l 1,22,-1
 116 414 l 1,23,-1
 121 430 l 1,24,-1
 131 441 l 1,25,-1
 137 456 l 1,26,-1
 137 519 l 1,27,-1
 142 535 l 1,28,-1
 157 541 l 1,29,-1
 173 535 l 1,30,-1
 179 519 l 1,31,-1
 179 435 l 1,32,-1
 173 420 l 1,33,-1
 163 409 l 1,34,-1
 158 393 l 1,35,-1
 158 372 l 1,36,-1
 163 357 l 1,37,-1
 178 352 l 1,38,-1
 220 352 l 1,39,-1
 236 346 l 1,40,-1
 242 330 l 1,41,-1
 236 315 l 1,42,-1
 220 310 l 1,43,-1
 178 310 l 1,44,-1
 163 304 l 1,45,-1
 158 288 l 1,46,-1
 158 162 l 1,47,-1
 163 147 l 1,48,-1
 178 142 l 1,49,-1
 194 136 l 1,50,-1
 205 126 l 1,51,-1
 220 121 l 1,52,-1
 236 126 l 1,53,-1
 247 136 l 1,54,-1
 257 147 l 1,55,-1
 268 157 l 1,56,-1
 283 163 l 1,57,-1
 299 157 l 1,58,-1
 305 141 l 1,59,-1
 305 120 l 1,60,-1
 299 105 l 1,61,-1
 283 100 l 1,0,-1
EndSplineSet
EndChar

StartChar: u
Encoding: 117 117 88
Width: 358
VWidth: 1124
GlyphClass: 2
Flags: W
LayerCount: 2
Fore
SplineSet
304 121 m 1,0,-1
 289 126 l 1,1,-1
 284 141 l 1,2,-1
 284 204 l 1,3,-1
 278 220 l 1,4,-1
 268 220 l 1,5,-1
 257 210 l 1,6,-1
 247 199 l 1,7,-1
 242 183 l 1,8,-1
 236 168 l 1,9,-1
 226 157 l 1,10,-1
 215 147 l 1,11,-1
 199 142 l 1,12,-1
 184 136 l 1,13,-1
 173 126 l 1,14,-1
 157 121 l 1,15,-1
 94 121 l 1,16,-1
 79 126 l 1,17,-1
 68 136 l 1,18,-1
 58 147 l 1,19,-1
 47 157 l 1,20,-1
 37 168 l 1,21,-1
 32 183 l 1,22,-1
 32 414 l 1,23,-1
 37 430 l 1,24,-1
 52 436 l 1,25,-1
 68 430 l 1,26,-1
 74 414 l 1,27,-1
 74 225 l 1,28,-1
 79 210 l 1,29,-1
 89 199 l 1,30,-1
 100 189 l 1,31,-1
 110 178 l 1,32,-1
 121 168 l 1,33,-1
 136 163 l 1,34,-1
 152 168 l 1,35,-1
 163 178 l 1,36,-1
 173 189 l 1,37,-1
 184 199 l 1,38,-1
 194 210 l 1,39,-1
 205 220 l 1,40,-1
 215 231 l 1,41,-1
 221 246 l 1,42,-1
 221 267 l 1,43,-1
 226 283 l 1,44,-1
 236 294 l 1,45,-1
 242 309 l 1,46,-1
 242 414 l 1,47,-1
 247 430 l 1,48,-1
 262 436 l 1,49,-1
 278 430 l 1,50,-1
 284 414 l 1,51,-1
 284 393 l 1,52,-1
 289 378 l 1,53,-1
 299 367 l 1,54,-1
 305 351 l 1,55,-1
 305 267 l 1,56,-1
 310 252 l 1,57,-1
 320 241 l 1,58,-1
 326 225 l 1,59,-1
 326 141 l 1,60,-1
 320 126 l 1,61,-1
 304 121 l 1,0,-1
EndSplineSet
EndChar

StartChar: v
Encoding: 118 118 89
Width: 442
VWidth: 1124
GlyphClass: 2
Flags: W
LayerCount: 2
Fore
SplineSet
394 367 m 1,0,-1
 389 351 l 1,1,-1
 383 336 l 1,2,-1
 373 325 l 1,3,-1
 368 309 l 1,4,-1
 362 294 l 1,5,-1
 352 283 l 1,6,-1
 341 273 l 1,7,-1
 331 262 l 1,8,-1
 326 246 l 1,9,-1
 320 231 l 1,10,-1
 310 220 l 1,11,-1
 299 210 l 1,12,-1
 289 199 l 1,13,-1
 284 183 l 1,14,-1
 284 162 l 1,15,-1
 278 147 l 1,16,-1
 268 136 l 1,17,-1
 257 126 l 1,18,-1
 247 115 l 1,19,-1
 242 99 l 1,20,-1
 236 84 l 1,21,-1
 220 79 l 1,22,-1
 205 84 l 1,23,-1
 194 94 l 1,24,-1
 184 105 l 1,25,-1
 179 120 l 1,26,-1
 179 141 l 1,27,-1
 173 157 l 1,28,-1
 163 168 l 1,29,-1
 158 183 l 1,30,-1
 152 199 l 1,31,-1
 142 210 l 1,32,-1
 137 225 l 1,33,-1
 131 241 l 1,34,-1
 121 252 l 1,35,-1
 110 262 l 1,36,-1
 100 273 l 1,37,-1
 89 283 l 1,38,-1
 79 294 l 1,39,-1
 68 304 l 1,40,-1
 58 315 l 1,41,-1
 47 325 l 1,42,-1
 37 336 l 1,43,-1
 32 351 l 1,44,-1
 37 367 l 1,45,-1
 52 373 l 1,46,-1
 73 373 l 1,47,-1
 89 367 l 1,48,-1
 100 357 l 1,49,-1
 110 346 l 1,50,-1
 121 336 l 1,51,-1
 131 325 l 1,52,-1
 137 309 l 1,53,-1
 142 294 l 1,54,-1
 152 283 l 1,55,-1
 163 273 l 1,56,-1
 173 262 l 1,57,-1
 179 246 l 1,58,-1
 184 231 l 1,59,-1
 194 220 l 1,60,-1
 200 204 l 1,61,-1
 205 189 l 1,62,-1
 220 184 l 1,63,-1
 236 189 l 1,64,-1
 242 204 l 1,65,-1
 247 220 l 1,66,-1
 257 231 l 1,67,-1
 268 241 l 1,68,-1
 278 252 l 1,69,-1
 284 267 l 1,70,-1
 289 283 l 1,71,-1
 299 294 l 1,72,-1
 305 309 l 1,73,-1
 310 325 l 1,74,-1
 320 336 l 1,75,-1
 326 351 l 1,76,-1
 331 367 l 1,77,-1
 341 378 l 1,78,-1
 347 393 l 1,79,-1
 352 409 l 1,80,-1
 367 415 l 1,81,-1
 388 415 l 1,82,-1
 404 409 l 1,83,-1
 410 393 l 1,84,-1
 404 378 l 1,85,-1
 394 367 l 1,0,-1
EndSplineSet
EndChar

StartChar: w
Encoding: 119 119 90
Width: 526
VWidth: 1124
GlyphClass: 2
Flags: W
LayerCount: 2
Fore
SplineSet
478 304 m 1,0,-1
 467 294 l 1,1,-1
 457 283 l 1,2,-1
 452 267 l 1,3,-1
 446 252 l 1,4,-1
 436 241 l 1,5,-1
 431 225 l 1,6,-1
 425 210 l 1,7,-1
 415 199 l 1,8,-1
 410 183 l 1,9,-1
 404 168 l 1,10,-1
 394 157 l 1,11,-1
 389 141 l 1,12,-1
 383 126 l 1,13,-1
 373 115 l 1,14,-1
 362 105 l 1,15,-1
 346 100 l 1,16,-1
 331 105 l 1,17,-1
 320 115 l 1,18,-1
 310 126 l 1,19,-1
 305 141 l 1,20,-1
 299 157 l 1,21,-1
 289 168 l 1,22,-1
 278 178 l 1,23,-1
 268 189 l 1,24,-1
 263 204 l 1,25,-1
 257 220 l 1,26,-1
 247 220 l 1,27,-1
 236 210 l 1,28,-1
 226 199 l 1,29,-1
 215 189 l 1,30,-1
 205 178 l 1,31,-1
 194 168 l 1,32,-1
 184 157 l 1,33,-1
 173 147 l 1,34,-1
 163 136 l 1,35,-1
 158 120 l 1,36,-1
 152 105 l 1,37,-1
 136 100 l 1,38,-1
 115 100 l 1,39,-1
 100 105 l 1,40,-1
 95 120 l 1,41,-1
 89 136 l 1,42,-1
 79 147 l 1,43,-1
 74 162 l 1,44,-1
 74 225 l 1,45,-1
 68 241 l 1,46,-1
 58 252 l 1,47,-1
 53 267 l 1,48,-1
 53 330 l 1,49,-1
 47 346 l 1,50,-1
 37 357 l 1,51,-1
 32 372 l 1,52,-1
 32 393 l 1,53,-1
 37 409 l 1,54,-1
 52 415 l 1,55,-1
 68 409 l 1,56,-1
 74 393 l 1,57,-1
 79 378 l 1,58,-1
 89 367 l 1,59,-1
 95 351 l 1,60,-1
 95 288 l 1,61,-1
 100 273 l 1,62,-1
 110 262 l 1,63,-1
 116 246 l 1,64,-1
 116 183 l 1,65,-1
 121 168 l 1,66,-1
 131 168 l 1,67,-1
 142 178 l 1,68,-1
 152 189 l 1,69,-1
 163 199 l 1,70,-1
 173 210 l 1,71,-1
 184 220 l 1,72,-1
 194 231 l 1,73,-1
 205 241 l 1,74,-1
 215 252 l 1,75,-1
 221 267 l 1,76,-1
 226 283 l 1,77,-1
 236 294 l 1,78,-1
 247 304 l 1,79,-1
 262 310 l 1,80,-1
 278 304 l 1,81,-1
 284 288 l 1,82,-1
 289 273 l 1,83,-1
 299 262 l 1,84,-1
 305 246 l 1,85,-1
 305 225 l 1,86,-1
 310 210 l 1,87,-1
 320 199 l 1,88,-1
 331 189 l 1,89,-1
 346 184 l 1,90,-1
 362 189 l 1,91,-1
 368 204 l 1,92,-1
 373 220 l 1,93,-1
 383 231 l 1,94,-1
 389 246 l 1,95,-1
 394 262 l 1,96,-1
 404 273 l 1,97,-1
 410 288 l 1,98,-1
 415 304 l 1,99,-1
 425 315 l 1,100,-1
 431 330 l 1,101,-1
 436 346 l 1,102,-1
 446 357 l 1,103,-1
 452 372 l 1,104,-1
 457 388 l 1,105,-1
 472 394 l 1,106,-1
 488 388 l 1,107,-1
 494 372 l 1,108,-1
 494 330 l 1,109,-1
 488 315 l 1,110,-1
 478 304 l 1,0,-1
EndSplineSet
EndChar

StartChar: x
Encoding: 120 120 91
Width: 379
VWidth: 1124
GlyphClass: 2
Flags: W
LayerCount: 2
Fore
SplineSet
325 58 m 1,0,-1
 304 58 l 1,1,-1
 289 63 l 1,2,-1
 278 73 l 1,3,-1
 268 84 l 1,4,-1
 257 94 l 1,5,-1
 247 105 l 1,6,-1
 242 120 l 1,7,-1
 236 136 l 1,8,-1
 226 147 l 1,9,-1
 215 157 l 1,10,-1
 205 168 l 1,11,-1
 194 178 l 1,12,-1
 184 178 l 1,13,-1
 173 168 l 1,14,-1
 163 157 l 1,15,-1
 152 147 l 1,16,-1
 136 142 l 1,17,-1
 121 136 l 1,18,-1
 116 120 l 1,19,-1
 110 105 l 1,20,-1
 94 100 l 1,21,-1
 79 94 l 1,22,-1
 68 84 l 1,23,-1
 52 79 l 1,24,-1
 37 84 l 1,25,-1
 32 99 l 1,26,-1
 37 115 l 1,27,-1
 47 126 l 1,28,-1
 58 136 l 1,29,-1
 68 147 l 1,30,-1
 79 157 l 1,31,-1
 89 168 l 1,32,-1
 100 178 l 1,33,-1
 115 184 l 1,34,-1
 131 189 l 1,35,-1
 142 199 l 1,36,-1
 152 210 l 1,37,-1
 158 225 l 1,38,-1
 152 241 l 1,39,-1
 142 252 l 1,40,-1
 137 267 l 1,41,-1
 131 283 l 1,42,-1
 121 294 l 1,43,-1
 110 304 l 1,44,-1
 100 315 l 1,45,-1
 89 325 l 1,46,-1
 79 336 l 1,47,-1
 74 351 l 1,48,-1
 74 372 l 1,49,-1
 79 388 l 1,50,-1
 94 394 l 1,51,-1
 110 388 l 1,52,-1
 116 372 l 1,53,-1
 121 357 l 1,54,-1
 131 346 l 1,55,-1
 142 336 l 1,56,-1
 152 325 l 1,57,-1
 163 315 l 1,58,-1
 173 304 l 1,59,-1
 179 288 l 1,60,-1
 184 273 l 1,61,-1
 199 268 l 1,62,-1
 215 273 l 1,63,-1
 226 283 l 1,64,-1
 236 294 l 1,65,-1
 247 304 l 1,66,-1
 257 315 l 1,67,-1
 268 325 l 1,68,-1
 278 336 l 1,69,-1
 284 351 l 1,70,-1
 289 367 l 1,71,-1
 304 373 l 1,72,-1
 320 367 l 1,73,-1
 326 351 l 1,74,-1
 326 330 l 1,75,-1
 320 315 l 1,76,-1
 310 304 l 1,77,-1
 299 294 l 1,78,-1
 289 283 l 1,79,-1
 278 273 l 1,80,-1
 268 262 l 1,81,-1
 257 252 l 1,82,-1
 247 241 l 1,83,-1
 236 231 l 1,84,-1
 226 220 l 1,85,-1
 226 210 l 1,86,-1
 236 199 l 1,87,-1
 247 189 l 1,88,-1
 257 178 l 1,89,-1
 268 168 l 1,90,-1
 278 157 l 1,91,-1
 289 147 l 1,92,-1
 299 136 l 1,93,-1
 310 126 l 1,94,-1
 320 115 l 1,95,-1
 331 105 l 1,96,-1
 341 94 l 1,97,-1
 347 78 l 1,98,-1
 341 63 l 1,99,-1
 325 58 l 1,0,-1
EndSplineSet
EndChar

StartChar: y
Encoding: 121 121 92
Width: 358
VWidth: 1124
GlyphClass: 2
Flags: W
LayerCount: 2
Fore
SplineSet
310 10 m 1,0,-1
 305 -6 l 1,1,-1
 305 -90 l 1,2,-1
 299 -105 l 1,3,-1
 289 -116 l 1,4,-1
 278 -126 l 1,5,-1
 268 -137 l 1,6,-1
 257 -147 l 1,7,-1
 241 -152 l 1,8,-1
 226 -158 l 1,9,-1
 215 -168 l 1,10,-1
 199 -173 l 1,11,-1
 136 -173 l 1,12,-1
 121 -168 l 1,13,-1
 110 -158 l 1,14,-1
 100 -147 l 1,15,-1
 89 -137 l 1,16,-1
 79 -126 l 1,17,-1
 74 -111 l 1,18,-1
 74 -69 l 1,19,-1
 79 -53 l 1,20,-1
 94 -47 l 1,21,-1
 110 -53 l 1,22,-1
 116 -69 l 1,23,-1
 121 -84 l 1,24,-1
 131 -95 l 1,25,-1
 137 -111 l 1,26,-1
 142 -126 l 1,27,-1
 157 -131 l 1,28,-1
 173 -126 l 1,29,-1
 184 -116 l 1,30,-1
 199 -110 l 1,31,-1
 220 -110 l 1,32,-1
 236 -105 l 1,33,-1
 247 -95 l 1,34,-1
 257 -84 l 1,35,-1
 263 -69 l 1,36,-1
 263 15 l 1,37,-1
 268 31 l 1,38,-1
 278 42 l 1,39,-1
 278 52 l 1,40,-1
 262 58 l 1,41,-1
 136 58 l 1,42,-1
 121 63 l 1,43,-1
 110 73 l 1,44,-1
 94 79 l 1,45,-1
 79 84 l 1,46,-1
 74 99 l 1,47,-1
 68 115 l 1,48,-1
 58 126 l 1,49,-1
 53 141 l 1,50,-1
 53 183 l 1,51,-1
 47 199 l 1,52,-1
 37 210 l 1,53,-1
 32 225 l 1,54,-1
 32 351 l 1,55,-1
 37 367 l 1,56,-1
 52 373 l 1,57,-1
 73 373 l 1,58,-1
 89 367 l 1,59,-1
 95 351 l 1,60,-1
 89 336 l 1,61,-1
 79 325 l 1,62,-1
 74 309 l 1,63,-1
 74 246 l 1,64,-1
 79 231 l 1,65,-1
 89 220 l 1,66,-1
 95 204 l 1,67,-1
 95 162 l 1,68,-1
 100 147 l 1,69,-1
 110 136 l 1,70,-1
 121 126 l 1,71,-1
 131 115 l 1,72,-1
 142 105 l 1,73,-1
 157 100 l 1,74,-1
 220 100 l 1,75,-1
 236 105 l 1,76,-1
 247 115 l 1,77,-1
 257 126 l 1,78,-1
 263 141 l 1,79,-1
 268 157 l 1,80,-1
 278 168 l 1,81,-1
 284 183 l 1,82,-1
 284 330 l 1,83,-1
 289 346 l 1,84,-1
 304 352 l 1,85,-1
 320 346 l 1,86,-1
 326 330 l 1,87,-1
 326 36 l 1,88,-1
 320 21 l 1,89,-1
 310 10 l 1,0,-1
EndSplineSet
EndChar

StartChar: z
Encoding: 122 122 93
Width: 421
VWidth: 1124
GlyphClass: 2
Flags: W
LayerCount: 2
Fore
SplineSet
367 58 m 1,0,-1
 178 58 l 1,1,-1
 163 52 l 1,2,-1
 152 42 l 1,3,-1
 136 37 l 1,4,-1
 52 37 l 1,5,-1
 37 42 l 1,6,-1
 32 57 l 1,7,-1
 32 78 l 1,8,-1
 37 94 l 1,9,-1
 52 100 l 1,10,-1
 68 105 l 1,11,-1
 79 115 l 1,12,-1
 89 126 l 1,13,-1
 100 136 l 1,14,-1
 110 147 l 1,15,-1
 121 157 l 1,16,-1
 136 163 l 1,17,-1
 152 168 l 1,18,-1
 158 183 l 1,19,-1
 163 199 l 1,20,-1
 173 210 l 1,21,-1
 184 220 l 1,22,-1
 194 231 l 1,23,-1
 200 246 l 1,24,-1
 205 262 l 1,25,-1
 215 273 l 1,26,-1
 226 283 l 1,27,-1
 236 294 l 1,28,-1
 242 309 l 1,29,-1
 236 325 l 1,30,-1
 220 331 l 1,31,-1
 73 331 l 1,32,-1
 58 336 l 1,33,-1
 53 351 l 1,34,-1
 58 367 l 1,35,-1
 73 373 l 1,36,-1
 304 373 l 1,37,-1
 320 367 l 1,38,-1
 326 351 l 1,39,-1
 320 336 l 1,40,-1
 310 325 l 1,41,-1
 305 309 l 1,42,-1
 299 294 l 1,43,-1
 289 283 l 1,44,-1
 278 273 l 1,45,-1
 268 262 l 1,46,-1
 263 246 l 1,47,-1
 257 231 l 1,48,-1
 247 220 l 1,49,-1
 236 210 l 1,50,-1
 226 199 l 1,51,-1
 221 183 l 1,52,-1
 215 168 l 1,53,-1
 205 157 l 1,54,-1
 194 147 l 1,55,-1
 184 136 l 1,56,-1
 173 126 l 1,57,-1
 163 115 l 1,58,-1
 163 105 l 1,59,-1
 178 100 l 1,60,-1
 367 100 l 1,61,-1
 383 94 l 1,62,-1
 389 78 l 1,63,-1
 383 63 l 1,64,-1
 367 58 l 1,0,-1
EndSplineSet
EndChar

StartChar: braceleft
Encoding: 123 123 94
Width: 358
VWidth: 1124
GlyphClass: 2
Flags: W
LayerCount: 2
Fore
SplineSet
304 709 m 1,0,-1
 262 709 l 1,1,-1
 247 714 l 1,2,-1
 236 724 l 1,3,-1
 226 724 l 1,4,-1
 215 714 l 1,5,-1
 205 703 l 1,6,-1
 194 693 l 1,7,-1
 184 682 l 1,8,-1
 173 672 l 1,9,-1
 163 661 l 1,10,-1
 158 645 l 1,11,-1
 158 561 l 1,12,-1
 163 546 l 1,13,-1
 173 535 l 1,14,-1
 179 519 l 1,15,-1
 179 477 l 1,16,-1
 173 462 l 1,17,-1
 163 451 l 1,18,-1
 163 441 l 1,19,-1
 173 430 l 1,20,-1
 179 414 l 1,21,-1
 179 225 l 1,22,-1
 184 210 l 1,23,-1
 194 199 l 1,24,-1
 200 183 l 1,25,-1
 205 168 l 1,26,-1
 215 157 l 1,27,-1
 226 147 l 1,28,-1
 241 142 l 1,29,-1
 283 142 l 1,30,-1
 299 136 l 1,31,-1
 305 120 l 1,32,-1
 305 99 l 1,33,-1
 299 84 l 1,34,-1
 283 79 l 1,35,-1
 241 79 l 1,36,-1
 226 84 l 1,37,-1
 215 94 l 1,38,-1
 199 100 l 1,39,-1
 184 105 l 1,40,-1
 179 120 l 1,41,-1
 173 136 l 1,42,-1
 163 147 l 1,43,-1
 152 157 l 1,44,-1
 142 168 l 1,45,-1
 137 183 l 1,46,-1
 137 372 l 1,47,-1
 131 388 l 1,48,-1
 121 399 l 1,49,-1
 110 409 l 1,50,-1
 94 415 l 1,51,-1
 52 415 l 1,52,-1
 37 420 l 1,53,-1
 32 435 l 1,54,-1
 37 451 l 1,55,-1
 52 457 l 1,56,-1
 73 457 l 1,57,-1
 89 462 l 1,58,-1
 100 472 l 1,59,-1
 110 483 l 1,60,-1
 121 493 l 1,61,-1
 131 504 l 1,62,-1
 131 514 l 1,63,-1
 121 525 l 1,64,-1
 116 540 l 1,65,-1
 116 666 l 1,66,-1
 121 682 l 1,67,-1
 131 693 l 1,68,-1
 137 708 l 1,69,-1
 142 724 l 1,70,-1
 152 735 l 1,71,-1
 163 745 l 1,72,-1
 178 751 l 1,73,-1
 194 756 l 1,74,-1
 205 766 l 1,75,-1
 220 772 l 1,76,-1
 262 772 l 1,77,-1
 278 766 l 1,78,-1
 289 756 l 1,79,-1
 304 751 l 1,80,-1
 320 745 l 1,81,-1
 326 729 l 1,82,-1
 320 714 l 1,83,-1
 304 709 l 1,0,-1
EndSplineSet
EndChar

StartChar: bar
Encoding: 124 124 95
Width: 148
VWidth: 1124
GlyphClass: 2
Flags: W
LayerCount: 2
Fore
SplineSet
100 451 m 1,0,-1
 95 435 l 1,1,-1
 95 162 l 1,2,-1
 89 147 l 1,3,-1
 79 136 l 1,4,-1
 74 120 l 1,5,-1
 74 99 l 1,6,-1
 68 84 l 1,7,-1
 52 79 l 1,8,-1
 37 84 l 1,9,-1
 32 99 l 1,10,-1
 32 162 l 1,11,-1
 37 178 l 1,12,-1
 47 189 l 1,13,-1
 53 204 l 1,14,-1
 53 456 l 1,15,-1
 58 472 l 1,16,-1
 68 483 l 1,17,-1
 74 498 l 1,18,-1
 74 813 l 1,19,-1
 79 829 l 1,20,-1
 94 835 l 1,21,-1
 110 829 l 1,22,-1
 116 813 l 1,23,-1
 116 477 l 1,24,-1
 110 462 l 1,25,-1
 100 451 l 1,0,-1
EndSplineSet
EndChar

StartChar: braceright
Encoding: 125 125 96
Width: 379
VWidth: 1124
GlyphClass: 2
Flags: W
LayerCount: 2
Fore
SplineSet
325 394 m 1,0,-1
 283 394 l 1,1,-1
 268 388 l 1,2,-1
 257 378 l 1,3,-1
 247 367 l 1,4,-1
 236 357 l 1,5,-1
 226 346 l 1,6,-1
 221 330 l 1,7,-1
 221 183 l 1,8,-1
 215 168 l 1,9,-1
 205 157 l 1,10,-1
 200 141 l 1,11,-1
 194 126 l 1,12,-1
 184 115 l 1,13,-1
 173 105 l 1,14,-1
 157 100 l 1,15,-1
 52 100 l 1,16,-1
 37 105 l 1,17,-1
 32 120 l 1,18,-1
 37 136 l 1,19,-1
 52 142 l 1,20,-1
 115 142 l 1,21,-1
 131 147 l 1,22,-1
 142 157 l 1,23,-1
 152 168 l 1,24,-1
 158 183 l 1,25,-1
 163 199 l 1,26,-1
 173 210 l 1,27,-1
 179 225 l 1,28,-1
 179 372 l 1,29,-1
 184 388 l 1,30,-1
 194 399 l 1,31,-1
 200 414 l 1,32,-1
 200 624 l 1,33,-1
 194 640 l 1,34,-1
 184 651 l 1,35,-1
 179 666 l 1,36,-1
 173 682 l 1,37,-1
 157 688 l 1,38,-1
 136 688 l 1,39,-1
 121 682 l 1,40,-1
 110 672 l 1,41,-1
 94 667 l 1,42,-1
 79 672 l 1,43,-1
 74 687 l 1,44,-1
 74 708 l 1,45,-1
 79 724 l 1,46,-1
 94 730 l 1,47,-1
 110 735 l 1,48,-1
 121 745 l 1,49,-1
 136 751 l 1,50,-1
 178 751 l 1,51,-1
 194 745 l 1,52,-1
 205 735 l 1,53,-1
 215 724 l 1,54,-1
 221 708 l 1,55,-1
 226 693 l 1,56,-1
 236 682 l 1,57,-1
 242 666 l 1,58,-1
 242 456 l 1,59,-1
 247 441 l 1,60,-1
 262 436 l 1,61,-1
 325 436 l 1,62,-1
 341 430 l 1,63,-1
 347 414 l 1,64,-1
 341 399 l 1,65,-1
 325 394 l 1,0,-1
EndSplineSet
EndChar

StartChar: asciitilde
Encoding: 126 126 97
Width: 400
VWidth: 1124
GlyphClass: 2
Flags: W
LayerCount: 2
Fore
SplineSet
352 409 m 1,0,-1
 347 393 l 1,1,-1
 341 378 l 1,2,-1
 331 367 l 1,3,-1
 320 357 l 1,4,-1
 304 352 l 1,5,-1
 241 352 l 1,6,-1
 226 357 l 1,7,-1
 215 367 l 1,8,-1
 205 378 l 1,9,-1
 194 388 l 1,10,-1
 184 399 l 1,11,-1
 173 409 l 1,12,-1
 163 420 l 1,13,-1
 152 430 l 1,14,-1
 136 436 l 1,15,-1
 115 436 l 1,16,-1
 100 430 l 1,17,-1
 89 420 l 1,18,-1
 79 409 l 1,19,-1
 74 393 l 1,20,-1
 68 378 l 1,21,-1
 52 373 l 1,22,-1
 37 378 l 1,23,-1
 32 393 l 1,24,-1
 32 414 l 1,25,-1
 37 430 l 1,26,-1
 47 441 l 1,27,-1
 58 451 l 1,28,-1
 68 462 l 1,29,-1
 79 472 l 1,30,-1
 94 478 l 1,31,-1
 178 478 l 1,32,-1
 194 472 l 1,33,-1
 205 462 l 1,34,-1
 215 451 l 1,35,-1
 226 441 l 1,36,-1
 236 430 l 1,37,-1
 247 420 l 1,38,-1
 257 409 l 1,39,-1
 268 399 l 1,40,-1
 283 394 l 1,41,-1
 299 399 l 1,42,-1
 305 414 l 1,43,-1
 305 456 l 1,44,-1
 310 472 l 1,45,-1
 325 478 l 1,46,-1
 346 478 l 1,47,-1
 362 472 l 1,48,-1
 368 456 l 1,49,-1
 368 435 l 1,50,-1
 362 420 l 1,51,-1
 352 409 l 1,0,-1
EndSplineSet
EndChar

StartChar: cent
Encoding: 162 162 98
Width: 421
VWidth: 1124
GlyphClass: 2
Flags: W
LayerCount: 2
Fore
SplineSet
158 393 m 1,0,-1
 158 519 l 1,1,-1
 152 535 l 1,2,-1
 136 541 l 1,3,-1
 121 535 l 1,4,-1
 110 525 l 1,5,-1
 100 514 l 1,6,-1
 95 498 l 1,7,-1
 89 483 l 1,8,-1
 79 472 l 1,9,-1
 74 456 l 1,10,-1
 74 435 l 1,11,-1
 79 420 l 1,12,-1
 89 409 l 1,13,-1
 100 399 l 1,14,-1
 115 394 l 1,15,-1
 131 388 l 1,16,-1
 142 378 l 1,17,-1
 152 378 l 1,18,-1
 158 393 l 1,0,-1
367 373 m 1,19,-1
 352 367 l 1,20,-1
 341 357 l 1,21,-1
 331 346 l 1,22,-1
 320 336 l 1,23,-1
 304 331 l 1,24,-1
 220 331 l 1,25,-1
 205 325 l 1,26,-1
 200 309 l 1,27,-1
 200 225 l 1,28,-1
 194 210 l 1,29,-1
 178 205 l 1,30,-1
 163 210 l 1,31,-1
 158 225 l 1,32,-1
 158 309 l 1,33,-1
 152 325 l 1,34,-1
 136 331 l 1,35,-1
 115 331 l 1,36,-1
 100 336 l 1,37,-1
 89 346 l 1,38,-1
 79 357 l 1,39,-1
 68 367 l 1,40,-1
 58 378 l 1,41,-1
 47 388 l 1,42,-1
 37 399 l 1,43,-1
 32 414 l 1,44,-1
 32 477 l 1,45,-1
 37 493 l 1,46,-1
 47 504 l 1,47,-1
 53 519 l 1,48,-1
 58 535 l 1,49,-1
 68 546 l 1,50,-1
 79 556 l 1,51,-1
 89 567 l 1,52,-1
 100 577 l 1,53,-1
 115 583 l 1,54,-1
 136 583 l 1,55,-1
 152 588 l 1,56,-1
 158 603 l 1,57,-1
 158 645 l 1,58,-1
 163 661 l 1,59,-1
 178 667 l 1,60,-1
 194 661 l 1,61,-1
 200 645 l 1,62,-1
 200 603 l 1,63,-1
 205 588 l 1,64,-1
 220 583 l 1,65,-1
 283 583 l 1,66,-1
 299 577 l 1,67,-1
 310 567 l 1,68,-1
 320 556 l 1,69,-1
 331 546 l 1,70,-1
 346 541 l 1,71,-1
 362 535 l 1,72,-1
 368 519 l 1,73,-1
 362 504 l 1,74,-1
 346 499 l 1,75,-1
 325 499 l 1,76,-1
 310 504 l 1,77,-1
 299 514 l 1,78,-1
 283 520 l 1,79,-1
 268 525 l 1,80,-1
 257 535 l 1,81,-1
 241 541 l 1,82,-1
 220 541 l 1,83,-1
 205 535 l 1,84,-1
 200 519 l 1,85,-1
 200 393 l 1,86,-1
 205 378 l 1,87,-1
 220 373 l 1,88,-1
 283 373 l 1,89,-1
 299 378 l 1,90,-1
 310 388 l 1,91,-1
 320 399 l 1,92,-1
 331 409 l 1,93,-1
 341 420 l 1,94,-1
 352 430 l 1,95,-1
 367 436 l 1,96,-1
 383 430 l 1,97,-1
 389 414 l 1,98,-1
 389 393 l 1,99,-1
 383 378 l 1,100,-1
 367 373 l 1,19,-1
EndSplineSet
EndChar

StartChar: sterling
Encoding: 163 163 99
Width: 505
VWidth: 1124
GlyphClass: 2
Flags: W
LayerCount: 2
Fore
SplineSet
457 178 m 1,0,-1
 452 162 l 1,1,-1
 446 147 l 1,2,-1
 436 136 l 1,3,-1
 425 126 l 1,4,-1
 409 121 l 1,5,-1
 394 115 l 1,6,-1
 383 105 l 1,7,-1
 367 100 l 1,8,-1
 325 100 l 1,9,-1
 310 105 l 1,10,-1
 299 115 l 1,11,-1
 283 121 l 1,12,-1
 268 126 l 1,13,-1
 257 136 l 1,14,-1
 247 147 l 1,15,-1
 242 162 l 1,16,-1
 236 178 l 1,17,-1
 220 184 l 1,18,-1
 205 178 l 1,19,-1
 200 162 l 1,20,-1
 194 147 l 1,21,-1
 184 136 l 1,22,-1
 173 126 l 1,23,-1
 163 115 l 1,24,-1
 152 105 l 1,25,-1
 136 100 l 1,26,-1
 52 100 l 1,27,-1
 37 105 l 1,28,-1
 32 120 l 1,29,-1
 37 136 l 1,30,-1
 52 142 l 1,31,-1
 115 142 l 1,32,-1
 131 147 l 1,33,-1
 137 162 l 1,34,-1
 142 178 l 1,35,-1
 152 189 l 1,36,-1
 163 199 l 1,37,-1
 173 210 l 1,38,-1
 179 225 l 1,39,-1
 179 288 l 1,40,-1
 173 304 l 1,41,-1
 157 310 l 1,42,-1
 115 310 l 1,43,-1
 100 315 l 1,44,-1
 95 330 l 1,45,-1
 100 346 l 1,46,-1
 115 352 l 1,47,-1
 157 352 l 1,48,-1
 173 357 l 1,49,-1
 179 372 l 1,50,-1
 179 540 l 1,51,-1
 184 556 l 1,52,-1
 194 567 l 1,53,-1
 205 577 l 1,54,-1
 220 583 l 1,55,-1
 236 588 l 1,56,-1
 247 598 l 1,57,-1
 262 604 l 1,58,-1
 325 604 l 1,59,-1
 341 598 l 1,60,-1
 352 588 l 1,61,-1
 367 583 l 1,62,-1
 388 583 l 1,63,-1
 404 577 l 1,64,-1
 410 561 l 1,65,-1
 410 540 l 1,66,-1
 404 525 l 1,67,-1
 388 520 l 1,68,-1
 373 525 l 1,69,-1
 362 535 l 1,70,-1
 346 541 l 1,71,-1
 331 546 l 1,72,-1
 320 556 l 1,73,-1
 304 562 l 1,74,-1
 283 562 l 1,75,-1
 268 556 l 1,76,-1
 257 546 l 1,77,-1
 247 535 l 1,78,-1
 236 525 l 1,79,-1
 226 514 l 1,80,-1
 221 498 l 1,81,-1
 221 393 l 1,82,-1
 226 378 l 1,83,-1
 241 373 l 1,84,-1
 325 373 l 1,85,-1
 341 367 l 1,86,-1
 347 351 l 1,87,-1
 341 336 l 1,88,-1
 325 331 l 1,89,-1
 262 331 l 1,90,-1
 247 325 l 1,91,-1
 242 309 l 1,92,-1
 242 267 l 1,93,-1
 247 252 l 1,94,-1
 257 241 l 1,95,-1
 263 225 l 1,96,-1
 268 210 l 1,97,-1
 278 199 l 1,98,-1
 284 183 l 1,99,-1
 289 168 l 1,100,-1
 304 163 l 1,101,-1
 320 157 l 1,102,-1
 331 147 l 1,103,-1
 346 142 l 1,104,-1
 362 147 l 1,105,-1
 373 157 l 1,106,-1
 388 163 l 1,107,-1
 404 168 l 1,108,-1
 410 183 l 1,109,-1
 415 199 l 1,110,-1
 425 210 l 1,111,-1
 431 225 l 1,112,-1
 431 246 l 1,113,-1
 436 262 l 1,114,-1
 451 268 l 1,115,-1
 467 262 l 1,116,-1
 473 246 l 1,117,-1
 473 204 l 1,118,-1
 467 189 l 1,119,-1
 457 178 l 1,0,-1
EndSplineSet
EndChar

StartChar: logicalnot
Encoding: 172 172 100
Width: 358
VWidth: 1124
GlyphClass: 2
Flags: W
LayerCount: 2
Fore
SplineSet
304 352 m 1,0,-1
 289 357 l 1,1,-1
 284 372 l 1,2,-1
 284 456 l 1,3,-1
 278 472 l 1,4,-1
 262 478 l 1,5,-1
 115 478 l 1,6,-1
 100 472 l 1,7,-1
 89 462 l 1,8,-1
 73 457 l 1,9,-1
 52 457 l 1,10,-1
 37 462 l 1,11,-1
 32 477 l 1,12,-1
 37 493 l 1,13,-1
 47 504 l 1,14,-1
 58 514 l 1,15,-1
 73 520 l 1,16,-1
 304 520 l 1,17,-1
 320 514 l 1,18,-1
 326 498 l 1,19,-1
 326 372 l 1,20,-1
 320 357 l 1,21,-1
 304 352 l 1,0,-1
EndSplineSet
EndChar

StartChar: plusminus
Encoding: 177 177 101
Width: 316
VWidth: 1124
GlyphClass: 2
Flags: W
LayerCount: 2
Fore
SplineSet
262 457 m 1,0,-1
 199 457 l 1,1,-1
 184 451 l 1,2,-1
 179 435 l 1,3,-1
 179 330 l 1,4,-1
 173 315 l 1,5,-1
 157 310 l 1,6,-1
 142 315 l 1,7,-1
 137 330 l 1,8,-1
 137 435 l 1,9,-1
 131 451 l 1,10,-1
 115 457 l 1,11,-1
 52 457 l 1,12,-1
 37 462 l 1,13,-1
 32 477 l 1,14,-1
 37 493 l 1,15,-1
 52 499 l 1,16,-1
 115 499 l 1,17,-1
 131 504 l 1,18,-1
 137 519 l 1,19,-1
 137 603 l 1,20,-1
 142 619 l 1,21,-1
 157 625 l 1,22,-1
 173 619 l 1,23,-1
 179 603 l 1,24,-1
 179 519 l 1,25,-1
 184 504 l 1,26,-1
 199 499 l 1,27,-1
 262 499 l 1,28,-1
 278 493 l 1,29,-1
 284 477 l 1,30,-1
 278 462 l 1,31,-1
 262 457 l 1,0,-1
262 205 m 1,32,-1
 52 205 l 1,33,-1
 37 210 l 1,34,-1
 32 225 l 1,35,-1
 37 241 l 1,36,-1
 52 247 l 1,37,-1
 262 247 l 1,38,-1
 278 241 l 1,39,-1
 284 225 l 1,40,-1
 278 210 l 1,41,-1
 262 205 l 1,32,-1
EndSplineSet
EndChar

StartChar: endash
Encoding: 8211 8211 102
Width: 295
GlyphClass: 2
Flags: W
LayerCount: 2
Fore
SplineSet
241 126 m 1,0,-1
 52 126 l 1,1,-1
 37 131 l 1,2,-1
 32 146 l 1,3,-1
 37 162 l 1,4,-1
 52 168 l 1,5,-1
 241 168 l 1,6,-1
 257 162 l 1,7,-1
 263 146 l 1,8,-1
 257 131 l 1,9,-1
 241 126 l 1,0,-1
EndSplineSet
EndChar

StartChar: quoteleft
Encoding: 8216 8216 103
Width: 127
GlyphClass: 2
Flags: W
LayerCount: 2
Fore
SplineSet
79 372 m 1,0,-1
 68 362 l 1,1,-1
 52 357 l 1,2,-1
 37 362 l 1,3,-1
 32 377 l 1,4,-1
 37 393 l 1,5,-1
 47 404 l 1,6,-1
 53 419 l 1,7,-1
 53 461 l 1,8,-1
 58 477 l 1,9,-1
 73 483 l 1,10,-1
 89 477 l 1,11,-1
 95 461 l 1,12,-1
 95 398 l 1,13,-1
 89 383 l 1,14,-1
 79 372 l 1,0,-1
EndSplineSet
EndChar

StartChar: quoteright
Encoding: 8217 8217 104
Width: 127
GlyphClass: 2
Flags: W
LayerCount: 2
Fore
SplineSet
79 372 m 1,0,-1
 68 362 l 1,1,-1
 52 357 l 1,2,-1
 37 362 l 1,3,-1
 32 377 l 1,4,-1
 37 393 l 1,5,-1
 47 404 l 1,6,-1
 53 419 l 1,7,-1
 53 461 l 1,8,-1
 58 477 l 1,9,-1
 73 483 l 1,10,-1
 89 477 l 1,11,-1
 95 461 l 1,12,-1
 95 398 l 1,13,-1
 89 383 l 1,14,-1
 79 372 l 1,0,-1
EndSplineSet
EndChar

StartChar: quotedblleft
Encoding: 8220 8220 105
Width: 232
GlyphClass: 2
Flags: W
LayerCount: 2
Fore
SplineSet
79 393 m 1,0,-1
 68 383 l 1,1,-1
 52 378 l 1,2,-1
 37 383 l 1,3,-1
 32 398 l 1,4,-1
 32 419 l 1,5,-1
 37 435 l 1,6,-1
 47 446 l 1,7,-1
 53 461 l 1,8,-1
 53 482 l 1,9,-1
 58 498 l 1,10,-1
 73 504 l 1,11,-1
 89 498 l 1,12,-1
 95 482 l 1,13,-1
 95 419 l 1,14,-1
 89 404 l 1,15,-1
 79 393 l 1,0,-1
184 456 m 1,16,-1
 179 440 l 1,17,-1
 179 419 l 1,18,-1
 173 404 l 1,19,-1
 163 393 l 1,20,-1
 152 383 l 1,21,-1
 136 378 l 1,22,-1
 121 383 l 1,23,-1
 116 398 l 1,24,-1
 116 419 l 1,25,-1
 121 435 l 1,26,-1
 131 446 l 1,27,-1
 137 461 l 1,28,-1
 142 477 l 1,29,-1
 152 488 l 1,30,-1
 163 498 l 1,31,-1
 178 504 l 1,32,-1
 194 498 l 1,33,-1
 200 482 l 1,34,-1
 194 467 l 1,35,-1
 184 456 l 1,16,-1
EndSplineSet
EndChar

StartChar: quotedblright
Encoding: 8221 8221 106
Width: 232
GlyphClass: 2
Flags: W
LayerCount: 2
Fore
SplineSet
79 393 m 1,0,-1
 68 383 l 1,1,-1
 52 378 l 1,2,-1
 37 383 l 1,3,-1
 32 398 l 1,4,-1
 32 419 l 1,5,-1
 37 435 l 1,6,-1
 47 446 l 1,7,-1
 53 461 l 1,8,-1
 53 482 l 1,9,-1
 58 498 l 1,10,-1
 73 504 l 1,11,-1
 89 498 l 1,12,-1
 95 482 l 1,13,-1
 95 419 l 1,14,-1
 89 404 l 1,15,-1
 79 393 l 1,0,-1
184 456 m 1,16,-1
 179 440 l 1,17,-1
 179 419 l 1,18,-1
 173 404 l 1,19,-1
 163 393 l 1,20,-1
 152 383 l 1,21,-1
 136 378 l 1,22,-1
 121 383 l 1,23,-1
 116 398 l 1,24,-1
 116 419 l 1,25,-1
 121 435 l 1,26,-1
 131 446 l 1,27,-1
 137 461 l 1,28,-1
 142 477 l 1,29,-1
 152 488 l 1,30,-1
 163 498 l 1,31,-1
 178 504 l 1,32,-1
 194 498 l 1,33,-1
 200 482 l 1,34,-1
 194 467 l 1,35,-1
 184 456 l 1,16,-1
EndSplineSet
EndChar

StartChar: currency
Encoding: 8364 8364 107
Width: 568
GlyphClass: 2
Flags: W
LayerCount: 2
Fore
SplineSet
221 83 m 1,0,-1
 221 440 l 1,1,-1
 215 456 l 1,2,-1
 205 456 l 1,3,-1
 194 446 l 1,4,-1
 184 435 l 1,5,-1
 173 425 l 1,6,-1
 163 414 l 1,7,-1
 152 404 l 1,8,-1
 142 393 l 1,9,-1
 131 383 l 1,10,-1
 121 372 l 1,11,-1
 110 362 l 1,12,-1
 100 351 l 1,13,-1
 95 335 l 1,14,-1
 95 293 l 1,15,-1
 89 278 l 1,16,-1
 79 267 l 1,17,-1
 74 251 l 1,18,-1
 74 209 l 1,19,-1
 79 194 l 1,20,-1
 89 183 l 1,21,-1
 95 167 l 1,22,-1
 100 152 l 1,23,-1
 110 141 l 1,24,-1
 121 131 l 1,25,-1
 131 120 l 1,26,-1
 142 110 l 1,27,-1
 152 99 l 1,28,-1
 163 89 l 1,29,-1
 173 78 l 1,30,-1
 184 68 l 1,31,-1
 199 63 l 1,32,-1
 215 68 l 1,33,-1
 221 83 l 1,0,-1
305 62 m 1,34,-1
 305 461 l 1,35,-1
 299 477 l 1,36,-1
 283 483 l 1,37,-1
 268 477 l 1,38,-1
 263 461 l 1,39,-1
 263 62 l 1,40,-1
 268 47 l 1,41,-1
 283 42 l 1,42,-1
 299 47 l 1,43,-1
 305 62 l 1,34,-1
520 99 m 1,44,-1
 515 83 l 1,45,-1
 509 68 l 1,46,-1
 493 63 l 1,47,-1
 478 57 l 1,48,-1
 467 47 l 1,49,-1
 451 42 l 1,50,-1
 436 36 l 1,51,-1
 425 26 l 1,52,-1
 409 21 l 1,53,-1
 394 15 l 1,54,-1
 383 5 l 1,55,-1
 367 0 l 1,56,-1
 352 -6 l 1,57,-1
 347 -22 l 1,58,-1
 341 -37 l 1,59,-1
 325 -42 l 1,60,-1
 310 -37 l 1,61,-1
 305 -22 l 1,62,-1
 299 -6 l 1,63,-1
 283 0 l 1,64,-1
 268 -6 l 1,65,-1
 263 -22 l 1,66,-1
 257 -37 l 1,67,-1
 241 -42 l 1,68,-1
 226 -37 l 1,69,-1
 221 -22 l 1,70,-1
 221 -1 l 1,71,-1
 215 15 l 1,72,-1
 199 21 l 1,73,-1
 178 21 l 1,74,-1
 163 26 l 1,75,-1
 152 36 l 1,76,-1
 142 47 l 1,77,-1
 131 57 l 1,78,-1
 115 63 l 1,79,-1
 100 68 l 1,80,-1
 95 83 l 1,81,-1
 89 99 l 1,82,-1
 79 110 l 1,83,-1
 68 120 l 1,84,-1
 58 131 l 1,85,-1
 53 146 l 1,86,-1
 47 162 l 1,87,-1
 37 173 l 1,88,-1
 32 188 l 1,89,-1
 32 272 l 1,90,-1
 37 288 l 1,91,-1
 47 299 l 1,92,-1
 53 314 l 1,93,-1
 53 356 l 1,94,-1
 58 372 l 1,95,-1
 68 383 l 1,96,-1
 74 398 l 1,97,-1
 79 414 l 1,98,-1
 89 425 l 1,99,-1
 100 435 l 1,100,-1
 110 446 l 1,101,-1
 121 456 l 1,102,-1
 131 467 l 1,103,-1
 142 477 l 1,104,-1
 157 483 l 1,105,-1
 173 488 l 1,106,-1
 184 498 l 1,107,-1
 194 509 l 1,108,-1
 205 519 l 1,109,-1
 215 530 l 1,110,-1
 221 545 l 1,111,-1
 221 587 l 1,112,-1
 226 603 l 1,113,-1
 241 609 l 1,114,-1
 257 603 l 1,115,-1
 263 587 l 1,116,-1
 263 545 l 1,117,-1
 268 530 l 1,118,-1
 283 525 l 1,119,-1
 299 530 l 1,120,-1
 305 545 l 1,121,-1
 305 587 l 1,122,-1
 310 603 l 1,123,-1
 325 609 l 1,124,-1
 341 603 l 1,125,-1
 347 587 l 1,126,-1
 347 524 l 1,127,-1
 352 509 l 1,128,-1
 367 504 l 1,129,-1
 409 504 l 1,130,-1
 425 498 l 1,131,-1
 436 488 l 1,132,-1
 446 477 l 1,133,-1
 457 467 l 1,134,-1
 467 456 l 1,135,-1
 473 440 l 1,136,-1
 473 356 l 1,137,-1
 467 341 l 1,138,-1
 451 336 l 1,139,-1
 436 341 l 1,140,-1
 431 356 l 1,141,-1
 431 419 l 1,142,-1
 425 435 l 1,143,-1
 409 441 l 1,144,-1
 394 446 l 1,145,-1
 383 456 l 1,146,-1
 367 462 l 1,147,-1
 352 456 l 1,148,-1
 347 440 l 1,149,-1
 347 62 l 1,150,-1
 352 47 l 1,151,-1
 362 47 l 1,152,-1
 373 57 l 1,153,-1
 388 63 l 1,154,-1
 404 68 l 1,155,-1
 415 78 l 1,156,-1
 430 84 l 1,157,-1
 446 89 l 1,158,-1
 457 99 l 1,159,-1
 467 110 l 1,160,-1
 473 125 l 1,161,-1
 478 141 l 1,162,-1
 493 147 l 1,163,-1
 514 147 l 1,164,-1
 530 141 l 1,165,-1
 536 125 l 1,166,-1
 530 110 l 1,167,-1
 520 99 l 1,44,-1
EndSplineSet
EndChar
